LibreCaslonText-Bold.ufo
<glyph name="numbersign" format="1">
  <advance width="667"/>
  <unicode hex="0023"/>
  <outline>
    <contour>
      <point x="74" y="463" type="line" name="hr00"/>
      <point x="618" y="463" type="line"/>
      <point x="630" y="530" type="line"/>
      <point x="86" y="530" type="line"/>
    </contour>
    <contour>
      <point x="36" y="256" type="line"/>
      <point x="580" y="256" type="line"/>
      <point x="594" y="323" type="line"/>
      <point x="50" y="323" type="line"/>
    </contour>
    <contour>
      <point x="245" y="696" type="line"/>
      <point x="150" y="92" type="line"/>
      <point x="218" y="92" type="line"/>
      <point x="313" y="696" type="line"/>
    </contour>
    <contour>
      <point x="452" y="696" type="line"/>
      <point x="357" y="92" type="line"/>
      <point x="424" y="92" type="line"/>
      <point x="519" y="696" type="line"/>
    </contour>
  </outline>
</glyph>
<glyph name="dollar" format="1">
  <advance width="565"/>
  <unicode hex="0024"/>
  <outline>
    <contour>
      <point x="306" y="780" type="curve" smooth="yes" name="hr00"/>
      <point x="153" y="780"/>
      <point x="42" y="690"/>
      <point x="42" y="568" type="curve" smooth="yes"/>
      <point x="42" y="318"/>
      <point x="395" y="349"/>
      <point x="395" y="149" type="curve" smooth="yes"/>
      <point x="395" y="88"/>
      <point x="348" y="49"/>
      <point x="277" y="49" type="curve" smooth="yes"/>
      <point x="222" y="49"/>
      <point x="190" y="75"/>
      <point x="178" y="129" type="curve" smooth="yes"/>
      <point x="166" y="178"/>
      <point x="143" y="202"/>
      <point x="107" y="202" type="curve" smooth="yes"/>
      <point x="68" y="202"/>
      <point x="43" y="177"/>
      <point x="43" y="138" type="curve" smooth="yes"/>
      <point x="43" y="57"/>
      <point x="138" y="-9"/>
      <point x="257" y="-9" type="curve" smooth="yes"/>
      <point x="412" y="-9"/>
      <point x="527" y="88"/>
      <point x="527" y="218" type="curve" smooth="yes"/>
      <point x="527" y="480"/>
      <point x="187" y="433"/>
      <point x="187" y="633" type="curve" smooth="yes"/>
      <point x="187" y="686"/>
      <point x="229" y="721"/>
      <point x="291" y="721" type="curve" smooth="yes"/>
      <point x="338" y="721"/>
      <point x="368" y="694"/>
      <point x="381" y="641" type="curve" smooth="yes"/>
      <point x="393" y="594"/>
      <point x="415" y="573"/>
      <point x="452" y="573" type="curve" smooth="yes"/>
      <point x="488" y="573"/>
      <point x="511" y="596"/>
      <point x="511" y="632" type="curve" smooth="yes"/>
      <point x="511" y="714"/>
      <point x="421" y="780"/>
    </contour>
    <contour>
      <point x="319" y="888" type="line"/>
      <point x="259" y="888" type="line"/>
      <point x="259" y="-102" type="line"/>
      <point x="319" y="-102" type="line"/>
    </contour>
  </outline>
</glyph>
<glyph name="percent" format="1">
  <advance width="1014"/>
  <unicode hex="0025"/>
  <outline>
    <contour>
      <point x="239" y="783" type="curve" smooth="yes"/>
      <point x="125" y="783"/>
      <point x="35" y="677"/>
      <point x="35" y="543" type="curve" smooth="yes"/>
      <point x="35" y="410"/>
      <point x="124" y="307"/>
      <point x="239" y="307" type="curve" smooth="yes"/>
      <point x="354" y="307"/>
      <point x="444" y="410"/>
      <point x="444" y="543" type="curve" smooth="yes"/>
      <point x="444" y="676"/>
      <point x="353" y="783"/>
    </contour>
    <contour>
      <point x="239" y="742" type="curve" smooth="yes"/>
      <point x="272" y="742"/>
      <point x="284" y="704"/>
      <point x="284" y="543" type="curve" smooth="yes"/>
      <point x="284" y="382"/>
      <point x="272" y="349"/>
      <point x="239" y="349" type="curve" smooth="yes"/>
      <point x="207" y="349"/>
      <point x="195" y="382"/>
      <point x="195" y="543" type="curve" smooth="yes"/>
      <point x="195" y="704"/>
      <point x="207" y="742"/>
    </contour>
    <contour>
      <point x="774" y="466" type="curve" smooth="yes"/>
      <point x="660" y="466"/>
      <point x="570" y="360"/>
      <point x="570" y="226" type="curve" smooth="yes"/>
      <point x="570" y="93"/>
      <point x="659" y="-10"/>
      <point x="774" y="-10" type="curve" smooth="yes"/>
      <point x="889" y="-10"/>
      <point x="979" y="93"/>
      <point x="979" y="226" type="curve" smooth="yes"/>
      <point x="979" y="359"/>
      <point x="888" y="466"/>
    </contour>
    <contour>
      <point x="774" y="425" type="curve" smooth="yes"/>
      <point x="807" y="425"/>
      <point x="819" y="387"/>
      <point x="819" y="226" type="curve" smooth="yes"/>
      <point x="819" y="65"/>
      <point x="807" y="32"/>
      <point x="774" y="32" type="curve" smooth="yes"/>
      <point x="742" y="32"/>
      <point x="730" y="65"/>
      <point x="730" y="226" type="curve" smooth="yes"/>
      <point x="730" y="387"/>
      <point x="742" y="425"/>
    </contour>
    <contour>
      <point x="326" y="0" type="line"/>
      <point x="791" y="770" type="line"/>
      <point x="686" y="770" type="line"/>
      <point x="222" y="0" type="line"/>
    </contour>
  </outline>
</glyph>
<glyph name="quotesingle" format="1">
  <advance width="220"/>
  <unicode hex="0027"/>
  <outline>
    <contour>
      <point x="135" y="505" type="line"/>
      <point x="139" y="621"/>
      <point x="173" y="715"/>
      <point x="173" y="764" type="curve" smooth="yes"/>
      <point x="173" y="802"/>
      <point x="150" y="830"/>
      <point x="110" y="830" type="curve" smooth="yes"/>
      <point x="71" y="830"/>
      <point x="47" y="803"/>
      <point x="47" y="760" type="curve" smooth="yes"/>
      <point x="47" y="714"/>
      <point x="82" y="620"/>
      <point x="85" y="505" type="curve"/>
    </contour>
  </outline>
</glyph>
<glyph name="asterisk" format="1">
  <advance width="483"/>
  <unicode hex="002A"/>
  <outline>
    <contour>
      <point x="262" y="591" type="line"/>
      <point x="265" y="548" type="line" smooth="yes"/>
      <point x="267" y="511"/>
      <point x="288" y="493"/>
      <point x="288" y="465" type="curve" smooth="yes"/>
      <point x="288" y="431"/>
      <point x="266" y="414"/>
      <point x="241" y="414" type="curve" smooth="yes"/>
      <point x="217" y="414"/>
      <point x="196" y="430"/>
      <point x="196" y="466" type="curve" smooth="yes"/>
      <point x="196" y="493"/>
      <point x="218" y="510"/>
      <point x="220" y="551" type="curve" smooth="yes"/>
      <point x="222" y="591" type="line"/>
      <point x="189" y="566" type="line" smooth="yes"/>
      <point x="150" y="537"/>
      <point x="143" y="495"/>
      <point x="100" y="495" type="curve" smooth="yes"/>
      <point x="75" y="495"/>
      <point x="56" y="517"/>
      <point x="56" y="542" type="curve" smooth="yes"/>
      <point x="56" y="602"/>
      <point x="133" y="590"/>
      <point x="168" y="606" type="curve" smooth="yes"/>
      <point x="203" y="622" type="line"/>
      <point x="165" y="639" type="line" smooth="yes"/>
      <point x="128" y="655"/>
      <point x="54" y="645"/>
      <point x="54" y="702" type="curve" smooth="yes"/>
      <point x="54" y="725"/>
      <point x="72" y="749"/>
      <point x="98" y="749" type="curve" smooth="yes"/>
      <point x="143" y="749"/>
      <point x="149" y="706"/>
      <point x="190" y="678" type="curve" smooth="yes"/>
      <point x="222" y="656" type="line"/>
      <point x="218" y="696" type="line" smooth="yes"/>
      <point x="214" y="733"/>
      <point x="195" y="752"/>
      <point x="195" y="779" type="curve" smooth="yes"/>
      <point x="195" y="814"/>
      <point x="217" y="830"/>
      <point x="241" y="830" type="curve" smooth="yes"/>
      <point x="264" y="830"/>
      <point x="287" y="814"/>
      <point x="287" y="779" type="curve" smooth="yes"/>
      <point x="287" y="751"/>
      <point x="265" y="734"/>
      <point x="263" y="694" type="curve" smooth="yes"/>
      <point x="261" y="656" type="line"/>
      <point x="293" y="678" type="line" smooth="yes"/>
      <point x="334" y="706"/>
      <point x="340" y="749"/>
      <point x="384" y="749" type="curve" smooth="yes"/>
      <point x="410" y="749"/>
      <point x="429" y="725"/>
      <point x="429" y="702" type="curve" smooth="yes"/>
      <point x="429" y="645"/>
      <point x="351" y="654"/>
      <point x="318" y="639" type="curve" smooth="yes"/>
      <point x="280" y="622" type="line"/>
      <point x="315" y="606" type="line" smooth="yes"/>
      <point x="352" y="589"/>
      <point x="427" y="600"/>
      <point x="427" y="542" type="curve" smooth="yes"/>
      <point x="427" y="517"/>
      <point x="408" y="495"/>
      <point x="383" y="495" type="curve" smooth="yes"/>
      <point x="340" y="495"/>
      <point x="331" y="537"/>
      <point x="294" y="566" type="curve" smooth="yes"/>
    </contour>
  </outline>
</glyph>
<glyph name="plus" format="1">
  <advance width="491"/>
  <unicode hex="002B"/>
  <outline>
    <contour>
      <point x="451" y="307" type="line"/>
      <point x="451" y="372" type="line"/>
      <point x="41" y="372" type="line"/>
      <point x="41" y="307" type="line"/>
    </contour>
    <contour>
      <point x="213" y="134" type="line"/>
      <point x="280" y="134" type="line"/>
      <point x="280" y="544" type="line"/>
      <point x="213" y="544" type="line"/>
    </contour>
  </outline>
</glyph>
<glyph name="zero" format="1">
  <advance width="644"/>
  <unicode hex="0030"/>
  <outline>
    <contour>
      <point x="321" y="780" type="curve" smooth="yes" name="hr00"/>
      <point x="169" y="780"/>
      <point x="50" y="605"/>
      <point x="50" y="381" type="curve" smooth="yes"/>
      <point x="50" y="159"/>
      <point x="168" y="-10"/>
      <point x="321" y="-10" type="curve" smooth="yes"/>
      <point x="475" y="-10"/>
      <point x="594" y="160"/>
      <point x="594" y="381" type="curve" smooth="yes"/>
      <point x="594" y="604"/>
      <point x="473" y="780"/>
    </contour>
    <contour>
      <point x="321" y="720" type="curve" smooth="yes"/>
      <point x="386" y="720"/>
      <point x="411" y="650"/>
      <point x="411" y="382" type="curve" smooth="yes"/>
      <point x="411" y="113"/>
      <point x="386" y="50"/>
      <point x="321" y="50" type="curve" smooth="yes"/>
      <point x="257" y="50"/>
      <point x="233" y="112"/>
      <point x="233" y="382" type="curve" smooth="yes"/>
      <point x="233" y="650"/>
      <point x="257" y="720"/>
    </contour>
  </outline>
</glyph>
<glyph name="one" format="1">
  <advance width="455"/>
  <unicode hex="0031"/>
  <outline>
    <contour>
      <point x="273" y="780" type="line" name="hr00"/>
      <point x="200" y="712"/>
      <point x="131" y="674"/>
      <point x="41" y="658" type="curve"/>
      <point x="41" y="615" type="line"/>
      <point x="164" y="615" type="line"/>
      <point x="164" y="62" type="line"/>
      <point x="41" y="36" type="line"/>
      <point x="41" y="0" type="line"/>
      <point x="445" y="0" type="line"/>
      <point x="445" y="36" type="line"/>
      <point x="319" y="62" type="line"/>
      <point x="319" y="772" type="line"/>
    </contour>
  </outline>
</glyph>
<glyph name="four" format="1">
  <advance width="599"/>
  <unicode hex="0034"/>
  <outline>
    <contour>
      <point x="307" y="60" type="line" name="hr00"/>
      <point x="187" y="37" type="line"/>
      <point x="187" y="0" type="line"/>
      <point x="551" y="0" type="line"/>
      <point x="551" y="37" type="line"/>
      <point x="462" y="60" type="line"/>
      <point x="462" y="192" type="line"/>
      <point x="555" y="192" type="line"/>
      <point x="555" y="290" type="line"/>
      <point x="462" y="290" type="line"/>
      <point x="462" y="770" type="line"/>
      <point x="382" y="780" type="line"/>
      <point x="9" y="250" type="line"/>
      <point x="27" y="192" type="line"/>
      <point x="307" y="192" type="line"/>
    </contour>
    <contour>
      <point x="307" y="290" type="line"/>
      <point x="117" y="290" type="line"/>
      <point x="116" y="294" type="line"/>
      <point x="303" y="556" type="line"/>
      <point x="307" y="556" type="line"/>
    </contour>
  </outline>
</glyph>
<glyph name="six" format="1">
  <advance width="604"/>
  <unicode hex="0036"/>
  <outline>
    <contour>
      <point x="308" y="-10" type="curve" smooth="yes" name="hr00"/>
      <point x="466" y="-10"/>
      <point x="574" y="90"/>
      <point x="574" y="236" type="curve" smooth="yes"/>
      <point x="574" y="372"/>
      <point x="481" y="472"/>
      <point x="353" y="472" type="curve" smooth="yes"/>
      <point x="298" y="472"/>
      <point x="253" y="453"/>
      <point x="229" y="420" type="curve"/>
      <point x="243" y="528"/>
      <point x="355" y="677"/>
      <point x="466" y="737" type="curve"/>
      <point x="443" y="777" type="line"/>
      <point x="203" y="693"/>
      <point x="46" y="493"/>
      <point x="46" y="272" type="curve" smooth="yes"/>
      <point x="46" y="97"/>
      <point x="145" y="-10"/>
    </contour>
    <contour>
      <point x="316" y="50" type="curve" smooth="yes"/>
      <point x="254" y="50"/>
      <point x="215" y="122"/>
      <point x="215" y="237" type="curve" smooth="yes"/>
      <point x="215" y="275"/>
      <point x="219" y="313"/>
      <point x="227" y="343" type="curve"/>
      <point x="244" y="377"/>
      <point x="275" y="397"/>
      <point x="309" y="397" type="curve" smooth="yes"/>
      <point x="371" y="397"/>
      <point x="410" y="328"/>
      <point x="410" y="219" type="curve" smooth="yes"/>
      <point x="410" y="115"/>
      <point x="374" y="50"/>
    </contour>
  </outline>
</glyph>
<glyph name="equal" format="1">
  <advance width="546"/>
  <unicode hex="003D"/>
  <outline>
    <contour>
      <point x="478" y="392" type="line" name="hr00"/>
      <point x="478" y="455" type="line"/>
      <point x="68" y="455" type="line"/>
      <point x="68" y="392" type="line"/>
    </contour>
    <contour>
      <point x="478" y="231" type="line"/>
      <point x="478" y="294" type="line"/>
      <point x="68" y="294" type="line"/>
      <point x="68" y="231" type="line"/>
    </contour>
  </outline>
</glyph>
<glyph name="greater" format="1">
  <advance width="509"/>
  <unicode hex="003E"/>
  <outline>
    <contour>
      <point x="476" y="315" type="line"/>
      <point x="476" y="366" type="line"/>
      <point x="67" y="561" type="line"/>
      <point x="67" y="475" type="line"/>
      <point x="384" y="341" type="line"/>
      <point x="384" y="337" type="line"/>
      <point x="67" y="201" type="line"/>
      <point x="67" y="121" type="line"/>
    </contour>
  </outline>
</glyph>
<glyph name="at" format="1">
  <advance width="920"/>
  <unicode hex="0040"/>
  <outline>
    <contour>
      <point x="447" y="-159" type="curve" smooth="yes"/>
      <point x="210" y="-159"/>
      <point x="45" y="-25"/>
      <point x="45" y="201" type="curve" smooth="yes"/>
      <point x="45" y="468"/>
      <point x="277" y="650"/>
      <point x="519" y="650" type="curve" smooth="yes"/>
      <point x="740" y="650"/>
      <point x="866" y="499"/>
      <point x="866" y="336" type="curve" smooth="yes"/>
      <point x="866" y="182"/>
      <point x="753" y="29"/>
      <point x="606" y="29" type="curve" smooth="yes"/>
      <point x="577" y="29"/>
      <point x="549" y="35"/>
      <point x="530" y="52" type="curve" smooth="yes"/>
      <point x="511" y="69"/>
      <point x="504" y="94"/>
      <point x="500" y="120" type="curve"/>
      <point x="496" y="120" type="line"/>
      <point x="450" y="74"/>
      <point x="398" y="45"/>
      <point x="344" y="45" type="curve" smooth="yes"/>
      <point x="299" y="45"/>
      <point x="222" y="65"/>
      <point x="222" y="173" type="curve" smooth="yes"/>
      <point x="222" y="303"/>
      <point x="333" y="461"/>
      <point x="484" y="461" type="curve" smooth="yes"/>
      <point x="533" y="461"/>
      <point x="553" y="444"/>
      <point x="568" y="420" type="curve"/>
      <point x="572" y="420" type="line"/>
      <point x="581" y="461" type="line"/>
      <point x="698" y="461" type="line"/>
      <point x="617" y="181" type="line" smooth="yes"/>
      <point x="613" y="167"/>
      <point x="610" y="155"/>
      <point x="610" y="141" type="curve" smooth="yes"/>
      <point x="610" y="113"/>
      <point x="622" y="101"/>
      <point x="646" y="101" type="curve" smooth="yes"/>
      <point x="714" y="101"/>
      <point x="789" y="195"/>
      <point x="789" y="331" type="curve" smooth="yes"/>
      <point x="789" y="498"/>
      <point x="676" y="589"/>
      <point x="508" y="589" type="curve" smooth="yes"/>
      <point x="284" y="589"/>
      <point x="116" y="426"/>
      <point x="116" y="206" type="curve" smooth="yes"/>
      <point x="116" y="17"/>
      <point x="237" y="-106"/>
      <point x="468" y="-106" type="curve" smooth="yes"/>
      <point x="548" y="-106"/>
      <point x="609" y="-89"/>
      <point x="665" y="-56" type="curve"/>
      <point x="683" y="-99" type="line"/>
      <point x="626" y="-137"/>
      <point x="543" y="-159"/>
    </contour>
    <contour>
      <point x="388" y="99" type="curve" smooth="yes"/>
      <point x="418" y="99"/>
      <point x="461" y="130"/>
      <point x="497" y="212" type="curve" smooth="yes"/>
      <point x="511" y="245"/>
      <point x="533" y="307"/>
      <point x="533" y="361" type="curve" smooth="yes"/>
      <point x="533" y="389"/>
      <point x="527" y="407"/>
      <point x="503" y="407" type="curve" smooth="yes"/>
      <point x="433" y="407"/>
      <point x="355" y="259"/>
      <point x="355" y="154" type="curve" smooth="yes"/>
      <point x="355" y="117"/>
      <point x="365" y="99"/>
    </contour>
  </outline>
</glyph>
<glyph name="A" format="1">
  <advance width="781"/>
  <unicode hex="0041"/>
  <outline>
    <contour>
      <point x="334" y="516" type="line"/>
      <point x="482" y="114" type="line" smooth="yes"/>
      <point x="488" y="98"/>
      <point x="491" y="84"/>
      <point x="491" y="74" type="curve" smooth="yes"/>
      <point x="491" y="47"/>
      <point x="466" y="39"/>
      <point x="393" y="37" type="curve"/>
      <point x="393" y="0" type="line"/>
      <point x="805" y="0" type="line"/>
      <point x="805" y="37" type="line"/>
      <point x="732" y="42"/>
      <point x="716" y="52"/>
      <point x="697" y="98" type="curve" smooth="yes"/>
      <point x="411" y="790" type="line"/>
      <point x="262" y="733" type="line"/>
      <point x="308" y="630" type="line"/>
      <point x="119" y="148" type="line" smooth="yes"/>
      <point x="87" y="67"/>
      <point x="74" y="53"/>
      <point x="-20" y="37" type="curve"/>
      <point x="-20" y="0" type="line"/>
      <point x="290" y="0" type="line"/>
      <point x="290" y="37" type="line"/>
      <point x="207" y="49"/>
      <point x="177" y="65"/>
      <point x="177" y="99" type="curve" smooth="yes"/>
      <point x="177" y="112"/>
      <point x="181" y="127"/>
      <point x="188" y="146" type="curve" smooth="yes"/>
      <point x="330" y="516" type="line"/>
    </contour>
    <contour>
      <point x="184" y="222" type="line"/>
      <point x="506" y="222" type="line"/>
      <point x="506" y="279" type="line"/>
      <point x="184" y="279" type="line"/>
    </contour>
  </outline>
</glyph>
<glyph name="B" format="1">
  <advance width="751"/>
  <unicode hex="0042"/>
  <outline>
    <contour>
      <point x="42" y="770" type="line"/>
      <point x="42" y="733" type="line"/>
      <point x="127" y="712" type="line"/>
      <point x="127" y="59" type="line"/>
      <point x="42" y="37" type="line"/>
      <point x="42" y="0" type="line"/>
      <point x="397" y="0" type="line" smooth="yes"/>
      <point x="517" y="0"/>
      <point x="584" y="15"/>
      <point x="635" y="52" type="curve" smooth="yes"/>
      <point x="681" y="87"/>
      <point x="709" y="143"/>
      <point x="709" y="204" type="curve" smooth="yes"/>
      <point x="709" y="321"/>
      <point x="620" y="405"/>
      <point x="485" y="418" type="curve"/>
      <point x="485" y="422" type="line"/>
      <point x="604" y="443"/>
      <point x="671" y="502"/>
      <point x="671" y="583" type="curve" smooth="yes"/>
      <point x="671" y="642"/>
      <point x="641" y="696"/>
      <point x="589" y="729" type="curve" smooth="yes"/>
      <point x="544" y="757"/>
      <point x="480" y="770"/>
      <point x="379" y="770" type="curve" smooth="yes"/>
    </contour>
    <contour>
      <point x="299" y="716" type="line"/>
      <point x="317" y="716" type="line" smooth="yes"/>
      <point x="374" y="716"/>
      <point x="417" y="705"/>
      <point x="446" y="682" type="curve" smooth="yes"/>
      <point x="473" y="660"/>
      <point x="488" y="626"/>
      <point x="488" y="579" type="curve" smooth="yes"/>
      <point x="488" y="497"/>
      <point x="443" y="448"/>
      <point x="363" y="440" type="curve" smooth="yes"/>
      <point x="350" y="438"/>
      <point x="334" y="437"/>
      <point x="310" y="437" type="curve" smooth="yes"/>
      <point x="299" y="437" type="line"/>
    </contour>
    <contour>
      <point x="336" y="383" type="line"/>
      <point x="462" y="383"/>
      <point x="521" y="330"/>
      <point x="521" y="213" type="curve" smooth="yes"/>
      <point x="521" y="103"/>
      <point x="475" y="53"/>
      <point x="376" y="53" type="curve" smooth="yes"/>
      <point x="317" y="53"/>
      <point x="299" y="66"/>
      <point x="299" y="113" type="curve" smooth="yes"/>
      <point x="299" y="383" type="line"/>
    </contour>
  </outline>
</glyph>
<glyph name="D" format="1">
  <advance width="878"/>
  <unicode hex="0044"/>
  <outline>
    <contour>
      <point x="412" y="0" type="line"/>
      <point x="525" y="0"/>
      <point x="598" y="17"/>
      <point x="664" y="59" type="curve" smooth="yes"/>
      <point x="766" y="124"/>
      <point x="832" y="246"/>
      <point x="832" y="386" type="curve" smooth="yes"/>
      <point x="832" y="522"/>
      <point x="770" y="632"/>
      <point x="672" y="697" type="curve" smooth="yes"/>
      <point x="591" y="751"/>
      <point x="488" y="770"/>
      <point x="314" y="770" type="curve" smooth="yes"/>
      <point x="41" y="770" type="line"/>
      <point x="41" y="733" type="line"/>
      <point x="127" y="714" type="line"/>
      <point x="127" y="57" type="line"/>
      <point x="41" y="38" type="line"/>
      <point x="41" y="0" type="line"/>
    </contour>
    <contour>
      <point x="401" y="54" type="curve" smooth="yes"/>
      <point x="328" y="54"/>
      <point x="299" y="72"/>
      <point x="299" y="114" type="curve" smooth="yes"/>
      <point x="299" y="714" type="line"/>
      <point x="389" y="714" type="line" smooth="yes"/>
      <point x="474" y="714"/>
      <point x="535" y="691"/>
      <point x="575" y="642" type="curve" smooth="yes"/>
      <point x="620" y="588"/>
      <point x="640" y="508"/>
      <point x="640" y="386" type="curve" smooth="yes"/>
      <point x="640" y="262"/>
      <point x="620" y="174"/>
      <point x="575" y="121" type="curve" smooth="yes"/>
      <point x="536" y="75"/>
      <point x="479" y="54"/>
    </contour>
  </outline>
</glyph>
<glyph name="F" format="1">
  <advance width="684"/>
  <unicode hex="0046"/>
  <outline>
    <contour>
      <point x="560" y="713" type="line"/>
      <point x="593" y="661"/>
      <point x="616" y="602"/>
      <point x="632" y="550" type="curve"/>
      <point x="671" y="550" type="line"/>
      <point x="654" y="770" type="line"/>
      <point x="42" y="770" type="line"/>
      <point x="42" y="733" type="line"/>
      <point x="127" y="714" type="line"/>
      <point x="127" y="56" type="line"/>
      <point x="42" y="37" type="line"/>
      <point x="42" y="0" type="line"/>
      <point x="412" y="0" type="line"/>
      <point x="412" y="37" type="line"/>
      <point x="298" y="56" type="line"/>
      <point x="298" y="713" type="line"/>
    </contour>
    <contour>
      <point x="285" y="381" type="line"/>
      <point x="433" y="381" type="line"/>
      <point x="451" y="343"/>
      <point x="463" y="305"/>
      <point x="470" y="267" type="curve"/>
      <point x="509" y="267" type="line"/>
      <point x="509" y="547" type="line"/>
      <point x="470" y="547" type="line"/>
      <point x="463" y="509"/>
      <point x="452" y="472"/>
      <point x="433" y="434" type="curve"/>
      <point x="285" y="434" type="line"/>
    </contour>
  </outline>
</glyph>
<glyph name="G" format="1">
  <advance width="855"/>
  <unicode hex="0047"/>
  <outline>
    <contour>
      <point x="749" y="330" type="line"/>
      <point x="838" y="349" type="line"/>
      <point x="838" y="386" type="line"/>
      <point x="487" y="386" type="line"/>
      <point x="487" y="349" type="line"/>
      <point x="577" y="330" type="line"/>
      <point x="577" y="161" type="line" smooth="yes"/>
      <point x="577" y="129"/>
      <point x="575" y="118"/>
      <point x="566" y="105" type="curve" smooth="yes"/>
      <point x="542" y="70"/>
      <point x="492" y="48"/>
      <point x="434" y="48" type="curve" smooth="yes"/>
      <point x="299" y="48"/>
      <point x="237" y="147"/>
      <point x="237" y="377" type="curve" smooth="yes"/>
      <point x="237" y="607"/>
      <point x="312" y="720"/>
      <point x="464" y="720" type="curve" smooth="yes"/>
      <point x="570" y="720"/>
      <point x="633" y="668"/>
      <point x="702" y="525" type="curve"/>
      <point x="747" y="525" type="line"/>
      <point x="747" y="770" type="line"/>
      <point x="715" y="770" type="line"/>
      <point x="671" y="719" type="line"/>
      <point x="667" y="719" type="line"/>
      <point x="618" y="757"/>
      <point x="535" y="780"/>
      <point x="446" y="780" type="curve" smooth="yes"/>
      <point x="211" y="780"/>
      <point x="45" y="612"/>
      <point x="45" y="373" type="curve" smooth="yes"/>
      <point x="45" y="143"/>
      <point x="200" y="-10"/>
      <point x="434" y="-10" type="curve" smooth="yes"/>
      <point x="550" y="-10"/>
      <point x="686" y="29"/>
      <point x="749" y="81" type="curve"/>
    </contour>
  </outline>
</glyph>
<glyph name="H" format="1">
  <advance width="923"/>
  <unicode hex="0048"/>
  <outline>
    <contour>
      <point x="127" y="58" type="line"/>
      <point x="42" y="37" type="line"/>
      <point x="42" y="0" type="line"/>
      <point x="383" y="0" type="line"/>
      <point x="383" y="37" type="line"/>
      <point x="299" y="58" type="line"/>
      <point x="299" y="713" type="line"/>
      <point x="383" y="733" type="line"/>
      <point x="383" y="770" type="line"/>
      <point x="42" y="770" type="line"/>
      <point x="42" y="733" type="line"/>
      <point x="127" y="713" type="line"/>
    </contour>
    <contour>
      <point x="625" y="58" type="line"/>
      <point x="540" y="37" type="line"/>
      <point x="540" y="0" type="line"/>
      <point x="881" y="0" type="line"/>
      <point x="881" y="37" type="line"/>
      <point x="797" y="58" type="line"/>
      <point x="797" y="713" type="line"/>
      <point x="881" y="733" type="line"/>
      <point x="881" y="770" type="line"/>
      <point x="540" y="770" type="line"/>
      <point x="540" y="733" type="line"/>
      <point x="625" y="713" type="line"/>
    </contour>
    <contour>
      <point x="201" y="378" type="line"/>
      <point x="725" y="378" type="line"/>
      <point x="725" y="435" type="line"/>
      <point x="201" y="435" type="line"/>
    </contour>
  </outline>
</glyph>
<glyph name="I" format="1">
  <advance width="425"/>
  <unicode hex="0049"/>
  <outline>
    <contour>
      <point x="127" y="58" type="line"/>
      <point x="42" y="37" type="line"/>
      <point x="42" y="0" type="line"/>
      <point x="383" y="0" type="line"/>
      <point x="383" y="37" type="line"/>
      <point x="299" y="58" type="line"/>
      <point x="299" y="713" type="line"/>
      <point x="383" y="733" type="line"/>
      <point x="383" y="770" type="line"/>
      <point x="42" y="770" type="line"/>
      <point x="42" y="733" type="line"/>
      <point x="127" y="713" type="line"/>
    </contour>
  </outline>
</glyph>
<glyph name="J" format="1">
  <advance width="409"/>
  <unicode hex="004A"/>
  <outline>
    <contour>
      <point x="291" y="713" type="line"/>
      <point x="375" y="733" type="line"/>
      <point x="375" y="770" type="line"/>
      <point x="34" y="770" type="line"/>
      <point x="34" y="733" type="line"/>
      <point x="119" y="713" type="line"/>
      <point x="119" y="-43" type="line" smooth="yes"/>
      <point x="119" y="-151"/>
      <point x="87" y="-203"/>
      <point x="47" y="-203" type="curve" smooth="yes"/>
      <point x="23" y="-203"/>
      <point x="6" y="-184"/>
      <point x="-9" y="-139" type="curve" smooth="yes"/>
      <point x="-22" y="-103"/>
      <point x="-41" y="-77"/>
      <point x="-82" y="-77" type="curve" smooth="yes"/>
      <point x="-122" y="-77"/>
      <point x="-154" y="-103"/>
      <point x="-154" y="-153" type="curve" smooth="yes"/>
      <point x="-154" y="-218"/>
      <point x="-93" y="-260"/>
      <point x="15" y="-260" type="curve" smooth="yes"/>
      <point x="109" y="-260"/>
      <point x="204" y="-215"/>
      <point x="257" y="-131" type="curve"/>
      <point x="286" y="-78"/>
      <point x="291" y="-41"/>
      <point x="291" y="155" type="curve" smooth="yes"/>
    </contour>
  </outline>
</glyph>
<glyph name="K" format="1">
  <advance width="807"/>
  <unicode hex="004B"/>
  <outline>
    <contour>
      <point x="42" y="0" type="line"/>
      <point x="383" y="0" type="line"/>
      <point x="383" y="37" type="line"/>
      <point x="299" y="58" type="line"/>
      <point x="299" y="328" type="line"/>
      <point x="321" y="351" type="line"/>
      <point x="567" y="0" type="line"/>
      <point x="834" y="0" type="line"/>
      <point x="834" y="37" type="line"/>
      <point x="743" y="56" type="line"/>
      <point x="439" y="479" type="line"/>
      <point x="615" y="671" type="line" smooth="yes"/>
      <point x="648" y="707"/>
      <point x="669" y="718"/>
      <point x="763" y="733" type="curve"/>
      <point x="763" y="770" type="line"/>
      <point x="476" y="770" type="line"/>
      <point x="476" y="734" type="line"/>
      <point x="527" y="732"/>
      <point x="553" y="724"/>
      <point x="553" y="705" type="curve" smooth="yes"/>
      <point x="553" y="697"/>
      <point x="550" y="685"/>
      <point x="539" y="674" type="curve" smooth="yes"/>
      <point x="299" y="416" type="line"/>
      <point x="299" y="713" type="line"/>
      <point x="383" y="733" type="line"/>
      <point x="383" y="770" type="line"/>
      <point x="42" y="770" type="line"/>
      <point x="42" y="733" type="line"/>
      <point x="127" y="713" type="line"/>
      <point x="127" y="58" type="line"/>
      <point x="42" y="37" type="line"/>
    </contour>
  </outline>
</glyph>
<glyph name="M" format="1">
  <advance width="1073"/>
  <unicode hex="004D"/>
  <outline>
    <contour>
      <point x="128" y="56" type="line"/>
      <point x="39" y="37" type="line"/>
      <point x="39" y="0" type="line"/>
      <point x="285" y="0" type="line"/>
      <point x="285" y="37" type="line"/>
      <point x="197" y="56" type="line"/>
      <point x="197" y="621" type="line"/>
      <point x="201" y="621" type="line"/>
      <point x="472" y="-10" type="line"/>
      <point x="520" y="-10" type="line"/>
      <point x="771" y="594" type="line"/>
      <point x="775" y="594" type="line"/>
      <point x="775" y="58" type="line"/>
      <point x="690" y="37" type="line"/>
      <point x="690" y="0" type="line"/>
      <point x="1031" y="0" type="line"/>
      <point x="1031" y="37" type="line"/>
      <point x="947" y="58" type="line"/>
      <point x="947" y="713" type="line"/>
      <point x="1031" y="733" type="line"/>
      <point x="1031" y="770" type="line"/>
      <point x="774" y="770" type="line"/>
      <point x="557" y="254" type="line"/>
      <point x="551" y="254" type="line"/>
      <point x="343" y="770" type="line"/>
      <point x="40" y="770" type="line"/>
      <point x="40" y="733" type="line"/>
      <point x="128" y="714" type="line"/>
    </contour>
  </outline>
</glyph>
<glyph name="P" format="1">
  <advance width="694"/>
  <unicode hex="0050"/>
  <outline>
    <contour>
      <point x="42" y="733" type="line"/>
      <point x="127" y="712" type="line"/>
      <point x="127" y="59" type="line"/>
      <point x="42" y="37" type="line"/>
      <point x="42" y="0" type="line"/>
      <point x="424" y="0" type="line"/>
      <point x="424" y="37" type="line"/>
      <point x="299" y="59" type="line"/>
      <point x="299" y="320" type="line"/>
      <point x="359" y="320" type="line" smooth="yes"/>
      <point x="556" y="320"/>
      <point x="669" y="401"/>
      <point x="669" y="542" type="curve" smooth="yes"/>
      <point x="669" y="682"/>
      <point x="555" y="770"/>
      <point x="375" y="770" type="curve" smooth="yes"/>
      <point x="42" y="770" type="line"/>
    </contour>
    <contour>
      <point x="299" y="716" type="line"/>
      <point x="324" y="716" type="line" smooth="yes"/>
      <point x="385" y="716"/>
      <point x="423" y="705"/>
      <point x="448" y="680" type="curve" smooth="yes"/>
      <point x="473" y="655"/>
      <point x="486" y="612"/>
      <point x="486" y="551" type="curve" smooth="yes"/>
      <point x="486" y="486"/>
      <point x="472" y="444"/>
      <point x="441" y="415" type="curve" smooth="yes"/>
      <point x="411" y="387"/>
      <point x="368" y="374"/>
      <point x="306" y="374" type="curve" smooth="yes"/>
      <point x="299" y="374" type="line"/>
    </contour>
  </outline>
</glyph>
<glyph name="Q" format="1">
  <advance width="869"/>
  <unicode hex="0051"/>
  <outline>
    <contour>
      <point x="434" y="780" type="curve" smooth="yes"/>
      <point x="184" y="780"/>
      <point x="45" y="602"/>
      <point x="45" y="385" type="curve" smooth="yes"/>
      <point x="45" y="212"/>
      <point x="138" y="64"/>
      <point x="300" y="11" type="curve"/>
      <point x="300" y="7" type="line"/>
      <point x="230" y="-21"/>
      <point x="187" y="-64"/>
      <point x="187" y="-118" type="curve" smooth="yes"/>
      <point x="187" y="-162"/>
      <point x="215" y="-195"/>
      <point x="257" y="-195" type="curve" smooth="yes"/>
      <point x="298" y="-195"/>
      <point x="329" y="-165"/>
      <point x="329" y="-126" type="curve" smooth="yes"/>
      <point x="329" y="-96"/>
      <point x="310" y="-87"/>
      <point x="310" y="-64" type="curve" smooth="yes"/>
      <point x="310" y="-37"/>
      <point x="335" y="-22"/>
      <point x="369" y="-22" type="curve" smooth="yes"/>
      <point x="496" y="-22"/>
      <point x="521" y="-194"/>
      <point x="652" y="-194" type="curve" smooth="yes"/>
      <point x="725" y="-194"/>
      <point x="801" y="-140"/>
      <point x="845" y="-34" type="curve"/>
      <point x="815" y="-14" type="line"/>
      <point x="783" y="-46"/>
      <point x="751" y="-57"/>
      <point x="710" y="-57" type="curve" smooth="yes"/>
      <point x="636" y="-57"/>
      <point x="578" y="-24"/>
      <point x="517" y="-5" type="curve"/>
      <point x="517" y="-1" type="line"/>
      <point x="713" y="35"/>
      <point x="824" y="194"/>
      <point x="824" y="385" type="curve" smooth="yes"/>
      <point x="824" y="602"/>
      <point x="685" y="780"/>
    </contour>
    <contour>
      <point x="242" y="383" type="curve" smooth="yes"/>
      <point x="242" y="522"/>
      <point x="272" y="720"/>
      <point x="435" y="720" type="curve" smooth="yes"/>
      <point x="598" y="720"/>
      <point x="627" y="522"/>
      <point x="627" y="385" type="curve" smooth="yes"/>
      <point x="627" y="242"/>
      <point x="596" y="38"/>
      <point x="434" y="38" type="curve" smooth="yes"/>
      <point x="273" y="38"/>
      <point x="242" y="242"/>
    </contour>
  </outline>
</glyph>
<glyph name="R" format="1">
  <advance width="778"/>
  <unicode hex="0052"/>
  <outline>
    <contour>
      <point x="42" y="0" type="line"/>
      <point x="413" y="0" type="line"/>
      <point x="413" y="37" type="line"/>
      <point x="299" y="59" type="line"/>
      <point x="299" y="335" type="line"/>
      <point x="340" y="335" type="line"/>
      <point x="541" y="0" type="line"/>
      <point x="814" y="0" type="line"/>
      <point x="814" y="37" type="line"/>
      <point x="723" y="56" type="line"/>
      <point x="530" y="356" type="line"/>
      <point x="619" y="388"/>
      <point x="670" y="454"/>
      <point x="670" y="551" type="curve" smooth="yes"/>
      <point x="670" y="693"/>
      <point x="560" y="770"/>
      <point x="403" y="770" type="curve" smooth="yes"/>
      <point x="42" y="770" type="line"/>
      <point x="42" y="733" type="line"/>
      <point x="127" y="712" type="line"/>
      <point x="127" y="59" type="line"/>
      <point x="42" y="37" type="line"/>
    </contour>
    <contour>
      <point x="299" y="389" type="line"/>
      <point x="299" y="716" type="line"/>
      <point x="320" y="716" type="line" smooth="yes"/>
      <point x="361" y="716"/>
      <point x="385" y="712"/>
      <point x="408" y="703" type="curve" smooth="yes"/>
      <point x="459" y="682"/>
      <point x="495" y="633"/>
      <point x="495" y="561" type="curve" smooth="yes"/>
      <point x="495" y="518"/>
      <point x="484" y="476"/>
      <point x="455" y="443" type="curve" smooth="yes"/>
      <point x="427" y="410"/>
      <point x="386" y="389"/>
      <point x="313" y="389" type="curve" smooth="yes"/>
    </contour>
  </outline>
</glyph>
<glyph name="T" format="1">
  <advance width="778"/>
  <unicode hex="0054"/>
  <outline>
    <contour>
      <point x="185" y="0" type="line"/>
      <point x="595" y="0" type="line"/>
      <point x="595" y="37" type="line"/>
      <point x="476" y="59" type="line"/>
      <point x="476" y="715" type="line"/>
      <point x="639" y="715" type="line"/>
      <point x="682" y="660"/>
      <point x="708" y="595"/>
      <point x="728" y="540" type="curve"/>
      <point x="767" y="540" type="line"/>
      <point x="730" y="770" type="line"/>
      <point x="48" y="770" type="line"/>
      <point x="11" y="540" type="line"/>
      <point x="50" y="540" type="line"/>
      <point x="70" y="595"/>
      <point x="99" y="660"/>
      <point x="142" y="715" type="curve"/>
      <point x="305" y="715" type="line"/>
      <point x="305" y="59" type="line"/>
      <point x="185" y="37" type="line"/>
    </contour>
  </outline>
</glyph>
<glyph name="Z" format="1">
  <advance width="730"/>
  <unicode hex="005A"/>
  <outline>
    <contour>
      <point x="99" y="770" type="line"/>
      <point x="48" y="541" type="line"/>
      <point x="89" y="541" type="line"/>
      <point x="99" y="571"/>
      <point x="121" y="622"/>
      <point x="160" y="693" type="curve" smooth="yes"/>
      <point x="172" y="715" type="line"/>
      <point x="445" y="715" type="line"/>
      <point x="27" y="38" type="line"/>
      <point x="27" y="0" type="line"/>
      <point x="636" y="0" type="line"/>
      <point x="699" y="262" type="line"/>
      <point x="657" y="262" type="line"/>
      <point x="639" y="217"/>
      <point x="607" y="144"/>
      <point x="560" y="73" type="curve" smooth="yes"/>
      <point x="548" y="55" type="line"/>
      <point x="259" y="55" type="line"/>
      <point x="679" y="733" type="line"/>
      <point x="679" y="770" type="line"/>
    </contour>
  </outline>
</glyph>
<glyph name="bracketleft" format="1">
  <advance width="337"/>
  <unicode hex="005B"/>
  <outline>
    <contour>
      <point x="92" y="-187" type="line"/>
      <point x="92" y="820" type="line"/>
      <point x="317" y="820" type="line"/>
      <point x="317" y="770" type="line"/>
      <point x="209" y="770" type="line"/>
      <point x="209" y="-138" type="line"/>
      <point x="317" y="-138" type="line"/>
      <point x="317" y="-187" type="line"/>
    </contour>
  </outline>
</glyph>
<glyph name="backslash" format="1">
  <advance width="378"/>
  <unicode hex="005C"/>
  <outline>
    <contour>
      <point x="338" y="-169" type="line"/>
      <point x="138" y="819" type="line"/>
      <point x="38" y="819" type="line"/>
      <point x="239" y="-169" type="line"/>
    </contour>
  </outline>
</glyph>
<glyph name="asciicircum" format="1">
  <advance width="485"/>
  <unicode hex="005E"/>
  <outline>
    <contour>
      <point x="40" y="332" type="line"/>
      <point x="225" y="711" type="line"/>
      <point x="261" y="711" type="line"/>
      <point x="445" y="332" type="line"/>
      <point x="383" y="332" type="line"/>
      <point x="244" y="609" type="line"/>
      <point x="240" y="609" type="line"/>
      <point x="103" y="332" type="line"/>
    </contour>
  </outline>
</glyph>
<glyph name="grave" format="1">
  <advance width="181"/>
  <unicode hex="0060"/>
  <outline>
    <contour>
      <point x="140" y="631" type="line"/>
      <point x="43" y="742" type="line" smooth="yes"/>
      <point x="20" y="768"/>
      <point x="10" y="794"/>
      <point x="10" y="814" type="curve" smooth="yes"/>
      <point x="10" y="841"/>
      <point x="28" y="859"/>
      <point x="55" y="859" type="curve" smooth="yes"/>
      <point x="94" y="859"/>
      <point x="118" y="836"/>
      <point x="130" y="793" type="curve" smooth="yes"/>
      <point x="171" y="642" type="line"/>
    </contour>
    <contour>
      <point x="84" y="651" type="move" name="_top"/>
    </contour>
  </outline>
</glyph>
<glyph name="a" format="1">
  <advance width="585"/>
  <unicode hex="0061"/>
  <outline>
    <contour>
      <point x="170" y="-10" type="curve" smooth="yes"/>
      <point x="231" y="-10"/>
      <point x="284" y="15"/>
      <point x="334" y="69" type="curve"/>
      <point x="338" y="69" type="line"/>
      <point x="348" y="16"/>
      <point x="380" y="-10"/>
      <point x="445" y="-10" type="curve" smooth="yes"/>
      <point x="502" y="-10"/>
      <point x="548" y="11"/>
      <point x="591" y="57" type="curve"/>
      <point x="568" y="90" type="line"/>
      <point x="554" y="74"/>
      <point x="539" y="66"/>
      <point x="524" y="66" type="curve" smooth="yes"/>
      <point x="497" y="66"/>
      <point x="486" y="91"/>
      <point x="486" y="150" type="curve" smooth="yes"/>
      <point x="486" y="356" type="line" smooth="yes"/>
      <point x="486" y="430"/>
      <point x="479" y="465"/>
      <point x="463" y="490" type="curve" smooth="yes"/>
      <point x="441" y="523"/>
      <point x="398" y="540"/>
      <point x="326" y="540" type="curve" smooth="yes"/>
      <point x="254" y="540"/>
      <point x="188" y="523"/>
      <point x="137" y="490" type="curve" smooth="yes"/>
      <point x="87" y="457"/>
      <point x="58" y="413"/>
      <point x="58" y="371" type="curve" smooth="yes"/>
      <point x="58" y="331"/>
      <point x="85" y="303"/>
      <point x="124" y="303" type="curve" smooth="yes"/>
      <point x="163" y="303"/>
      <point x="193" y="332"/>
      <point x="193" y="370" type="curve" smooth="yes"/>
      <point x="193" y="384"/>
      <point x="189" y="399"/>
      <point x="189" y="414" type="curve" smooth="yes"/>
      <point x="189" y="456"/>
      <point x="220" y="482"/>
      <point x="270" y="482" type="curve" smooth="yes"/>
      <point x="318" y="482"/>
      <point x="331" y="458"/>
      <point x="331" y="367" type="curve" smooth="yes"/>
      <point x="331" y="294" type="line"/>
      <point x="129" y="266"/>
      <point x="38" y="208"/>
      <point x="38" y="108" type="curve" smooth="yes"/>
      <point x="38" y="34"/>
      <point x="88" y="-10"/>
    </contour>
    <contour>
      <point x="262" y="84" type="curve" smooth="yes"/>
      <point x="223" y="84"/>
      <point x="205" y="105"/>
      <point x="205" y="149" type="curve" smooth="yes"/>
      <point x="205" y="205"/>
      <point x="234" y="228"/>
      <point x="331" y="247" type="curve"/>
      <point x="331" y="113" type="line"/>
      <point x="313" y="94"/>
      <point x="289" y="84"/>
    </contour>
    <contour>
      <point x="258" y="651" type="move" name="top"/>
    </contour>
    <contour>
      <point x="404" y="0" type="move" name="bottom"/>
    </contour>
  </outline>
</glyph>
<glyph name="c" format="1">
  <advance width="571"/>
  <unicode hex="0063"/>
  <outline>
    <contour>
      <point x="305" y="-10" type="curve" smooth="yes"/>
      <point x="413" y="-10"/>
      <point x="491" y="37"/>
      <point x="531" y="133" type="curve" smooth="yes"/>
      <point x="536" y="145" type="line"/>
      <point x="508" y="167" type="line"/>
      <point x="501" y="159" type="line" smooth="yes"/>
      <point x="464" y="116"/>
      <point x="413" y="93"/>
      <point x="353" y="93" type="curve" smooth="yes"/>
      <point x="254" y="93"/>
      <point x="204" y="161"/>
      <point x="204" y="289" type="curve" smooth="yes"/>
      <point x="204" y="416"/>
      <point x="253" y="488"/>
      <point x="337" y="488" type="curve" smooth="yes"/>
      <point x="391" y="488"/>
      <point x="404" y="452"/>
      <point x="410" y="405" type="curve" smooth="yes"/>
      <point x="414" y="375"/>
      <point x="426" y="340"/>
      <point x="476" y="340" type="curve" smooth="yes"/>
      <point x="517" y="340"/>
      <point x="543" y="366"/>
      <point x="543" y="407" type="curve" smooth="yes"/>
      <point x="543" y="483"/>
      <point x="453" y="540"/>
      <point x="332" y="540" type="curve" smooth="yes"/>
      <point x="159" y="540"/>
      <point x="36" y="422"/>
      <point x="36" y="258" type="curve" smooth="yes"/>
      <point x="36" y="102"/>
      <point x="148" y="-10"/>
    </contour>
  </outline>
</glyph>
<glyph name="e" format="1">
  <advance width="604"/>
  <unicode hex="0065"/>
  <outline>
    <contour>
      <point x="574" y="296" type="line"/>
      <point x="569" y="456"/>
      <point x="488" y="540"/>
      <point x="336" y="540" type="curve" smooth="yes"/>
      <point x="158" y="540"/>
      <point x="36" y="425"/>
      <point x="36" y="257" type="curve" smooth="yes"/>
      <point x="36" y="98"/>
      <point x="145" y="-10"/>
      <point x="311" y="-10" type="curve" smooth="yes"/>
      <point x="420" y="-10"/>
      <point x="515" y="41"/>
      <point x="552" y="131" type="curve" smooth="yes"/>
      <point x="557" y="143" type="line"/>
      <point x="529" y="167" type="line"/>
      <point x="522" y="159" type="line" smooth="yes"/>
      <point x="483" y="115"/>
      <point x="417" y="93"/>
      <point x="359" y="93" type="curve" smooth="yes"/>
      <point x="254" y="93"/>
      <point x="202" y="159"/>
      <point x="202" y="295" type="curve" smooth="yes"/>
      <point x="202" y="419"/>
      <point x="245" y="489"/>
      <point x="323" y="489" type="curve" smooth="yes"/>
      <point x="381" y="489"/>
      <point x="412" y="452"/>
      <point x="412" y="383" type="curve" smooth="yes"/>
      <point x="412" y="366"/>
      <point x="410" y="351"/>
      <point x="408" y="345" type="curve"/>
      <point x="129" y="335" type="line"/>
      <point x="129" y="290" type="line"/>
      <point x="566" y="290" type="line"/>
    </contour>
  </outline>
</glyph>
<glyph name="g" format="1">
  <advance width="584"/>
  <unicode hex="0067"/>
  <outline>
    <contour>
      <point x="239" y="-259" type="curve" smooth="yes"/>
      <point x="322" y="-259"/>
      <point x="424" y="-242"/>
      <point x="488" y="-197" type="curve" smooth="yes"/>
      <point x="529" y="-168"/>
      <point x="551" y="-131"/>
      <point x="551" y="-77" type="curve" smooth="yes"/>
      <point x="551" y="-27"/>
      <point x="532" y="37"/>
      <point x="400" y="67" type="curve" smooth="yes"/>
      <point x="319" y="85"/>
      <point x="174" y="96"/>
      <point x="174" y="142" type="curve" smooth="yes"/>
      <point x="174" y="164"/>
      <point x="207" y="187"/>
      <point x="285" y="195" type="curve" smooth="yes"/>
      <point x="421" y="209"/>
      <point x="511" y="284"/>
      <point x="511" y="370" type="curve" smooth="yes"/>
      <point x="511" y="415"/>
      <point x="486" y="459"/>
      <point x="443" y="490" type="curve"/>
      <point x="451" y="509"/>
      <point x="465" y="525"/>
      <point x="486" y="525" type="curve" smooth="yes"/>
      <point x="512" y="525"/>
      <point x="517" y="499"/>
      <point x="551" y="499" type="curve" smooth="yes"/>
      <point x="587" y="499"/>
      <point x="607" y="528"/>
      <point x="607" y="557" type="curve" smooth="yes"/>
      <point x="607" y="593"/>
      <point x="576" y="616"/>
      <point x="535" y="616" type="curve" smooth="yes"/>
      <point x="472" y="616"/>
      <point x="432" y="561"/>
      <point x="409" y="511" type="curve"/>
      <point x="373" y="529"/>
      <point x="329" y="540"/>
      <point x="280" y="540" type="curve" smooth="yes"/>
      <point x="151" y="540"/>
      <point x="54" y="467"/>
      <point x="54" y="368" type="curve" smooth="yes"/>
      <point x="54" y="285"/>
      <point x="123" y="225"/>
      <point x="211" y="205" type="curve"/>
      <point x="96" y="166"/>
      <point x="57" y="140"/>
      <point x="57" y="84" type="curve" smooth="yes"/>
      <point x="57" y="39"/>
      <point x="83" y="15"/>
      <point x="121" y="-2" type="curve"/>
      <point x="32" y="-40"/>
      <point x="-3" y="-79"/>
      <point x="-3" y="-129" type="curve" smooth="yes"/>
      <point x="-3" y="-176"/>
      <point x="27" y="-205"/>
      <point x="63" y="-224" type="curve" smooth="yes"/>
      <point x="118" y="-253"/>
      <point x="189" y="-259"/>
    </contour>
    <contour>
      <point x="302" y="-51" type="curve" smooth="yes"/>
      <point x="394" y="-72"/>
      <point x="437" y="-87"/>
      <point x="437" y="-126" type="curve" smooth="yes"/>
      <point x="437" y="-155"/>
      <point x="414" y="-174"/>
      <point x="384" y="-187" type="curve" smooth="yes"/>
      <point x="348" y="-202"/>
      <point x="302" y="-208"/>
      <point x="267" y="-208" type="curve" smooth="yes"/>
      <point x="226" y="-208"/>
      <point x="190" y="-200"/>
      <point x="163" y="-186" type="curve" smooth="yes"/>
      <point x="132" y="-170"/>
      <point x="116" y="-148"/>
      <point x="116" y="-115" type="curve" smooth="yes"/>
      <point x="116" y="-79"/>
      <point x="135" y="-43"/>
      <point x="168" y="-20" type="curve"/>
      <point x="213" y="-31"/>
      <point x="253" y="-40"/>
    </contour>
    <contour>
      <point x="281" y="239" type="curve" smooth="yes"/>
      <point x="225" y="239"/>
      <point x="213" y="312"/>
      <point x="213" y="360" type="curve" smooth="yes"/>
      <point x="213" y="412"/>
      <point x="227" y="497"/>
      <point x="286" y="497" type="curve" smooth="yes"/>
      <point x="342" y="497"/>
      <point x="353" y="420"/>
      <point x="353" y="372" type="curve" smooth="yes"/>
      <point x="353" y="314"/>
      <point x="337" y="239"/>
    </contour>
  </outline>
</glyph>
<glyph name="i" format="1">
  <advance width="360"/>
  <unicode hex="0069"/>
  <outline>
    <contour>
      <point x="99" y="697" type="curve" smooth="yes"/>
      <point x="99" y="656"/>
      <point x="129" y="615"/>
      <point x="185" y="615" type="curve" smooth="yes"/>
      <point x="244" y="615"/>
      <point x="274" y="656"/>
      <point x="274" y="697" type="curve" smooth="yes"/>
      <point x="274" y="741"/>
      <point x="240" y="780"/>
      <point x="185" y="780" type="curve" smooth="yes"/>
      <point x="131" y="780"/>
      <point x="99" y="741"/>
    </contour>
    <contour>
      <point x="264" y="55" type="line"/>
      <point x="264" y="540" type="line"/>
      <point x="243" y="540" type="line"/>
      <point x="24" y="492" type="line"/>
      <point x="24" y="468" type="line"/>
      <point x="109" y="441" type="line"/>
      <point x="109" y="55" type="line"/>
      <point x="24" y="35" type="line"/>
      <point x="24" y="0" type="line"/>
      <point x="344" y="0" type="line"/>
      <point x="344" y="35" type="line"/>
    </contour>
  </outline>
</glyph>
<glyph name="l" format="1">
  <advance width="356"/>
  <unicode hex="006C"/>
  <outline>
    <contour>
      <point x="257" y="55" type="line"/>
      <point x="257" y="830" type="line"/>
      <point x="236" y="830" type="line"/>
      <point x="17" y="782" type="line"/>
      <point x="17" y="758" type="line"/>
      <point x="102" y="731" type="line"/>
      <point x="102" y="55" type="line"/>
      <point x="17" y="35" type="line"/>
      <point x="17" y="0" type="line"/>
      <point x="337" y="0" type="line"/>
      <point x="337" y="35" type="line"/>
    </contour>
  </outline>
</glyph>
<glyph name="m" format="1">
  <advance width="1008"/>
  <unicode hex="006D"/>
  <outline>
    <contour>
      <point x="256" y="55" type="line"/>
      <point x="256" y="465" type="line"/>
      <point x="252" y="470" type="line"/>
      <point x="252" y="540" type="line"/>
      <point x="212" y="540" type="line"/>
      <point x="28" y="491" type="line"/>
      <point x="28" y="468" type="line"/>
      <point x="101" y="440" type="line"/>
      <point x="101" y="55" type="line"/>
      <point x="26" y="35" type="line"/>
      <point x="26" y="0" type="line"/>
      <point x="326" y="0" type="line"/>
      <point x="326" y="35" type="line"/>
    </contour>
    <contour>
      <point x="230" y="389" type="line"/>
      <point x="258" y="431"/>
      <point x="290" y="452"/>
      <point x="332" y="452" type="curve" smooth="yes"/>
      <point x="378" y="452"/>
      <point x="408" y="433"/>
      <point x="421" y="399" type="curve" smooth="yes"/>
      <point x="429" y="379"/>
      <point x="431" y="350"/>
      <point x="431" y="279" type="curve" smooth="yes"/>
      <point x="431" y="55" type="line"/>
      <point x="361" y="35" type="line"/>
      <point x="361" y="0" type="line"/>
      <point x="656" y="0" type="line"/>
      <point x="656" y="35" type="line"/>
      <point x="586" y="55" type="line"/>
      <point x="586" y="318" type="line" smooth="yes"/>
      <point x="586" y="410"/>
      <point x="583" y="435"/>
      <point x="571" y="460" type="curve" smooth="yes"/>
      <point x="545" y="513"/>
      <point x="496" y="540"/>
      <point x="429" y="540" type="curve" smooth="yes"/>
      <point x="358" y="540"/>
      <point x="277" y="505"/>
      <point x="230" y="454" type="curve"/>
    </contour>
    <contour>
      <point x="560" y="388" type="line"/>
      <point x="588" y="430"/>
      <point x="620" y="451"/>
      <point x="662" y="451" type="curve" smooth="yes"/>
      <point x="708" y="451"/>
      <point x="738" y="432"/>
      <point x="751" y="399" type="curve" smooth="yes"/>
      <point x="759" y="379"/>
      <point x="761" y="350"/>
      <point x="761" y="279" type="curve" smooth="yes"/>
      <point x="761" y="55" type="line"/>
      <point x="691" y="35" type="line"/>
      <point x="691" y="0" type="line"/>
      <point x="986" y="0" type="line"/>
      <point x="986" y="35" type="line"/>
      <point x="916" y="55" type="line"/>
      <point x="916" y="318" type="line" smooth="yes"/>
      <point x="916" y="410"/>
      <point x="913" y="435"/>
      <point x="901" y="460" type="curve" smooth="yes"/>
      <point x="875" y="513"/>
      <point x="826" y="540"/>
      <point x="759" y="540" type="curve" smooth="yes"/>
      <point x="688" y="540"/>
      <point x="607" y="505"/>
      <point x="560" y="454" type="curve"/>
    </contour>
  </outline>
</glyph>
<glyph name="p" format="1">
  <advance width="677"/>
  <unicode hex="0070"/>
  <outline>
    <contour>
      <point x="252" y="5" type="line"/>
      <point x="282" y="-5"/>
      <point x="311" y="-10"/>
      <point x="347" y="-10" type="curve" smooth="yes"/>
      <point x="524" y="-10"/>
      <point x="639" y="103"/>
      <point x="639" y="277" type="curve" smooth="yes"/>
      <point x="639" y="431"/>
      <point x="546" y="540"/>
      <point x="415" y="540" type="curve" smooth="yes"/>
      <point x="349" y="540"/>
      <point x="285" y="512"/>
      <point x="248" y="466" type="curve"/>
      <point x="243" y="466" type="line"/>
      <point x="243" y="540" type="line"/>
      <point x="220" y="540" type="line"/>
      <point x="13" y="492" type="line"/>
      <point x="13" y="468" type="line"/>
      <point x="97" y="441" type="line"/>
      <point x="97" y="-200" type="line"/>
      <point x="10" y="-226" type="line"/>
      <point x="10" y="-250" type="line"/>
      <point x="386" y="-250" type="line"/>
      <point x="386" y="-226" type="line"/>
      <point x="252" y="-200" type="line"/>
    </contour>
    <contour>
      <point x="349" y="44" type="curve" smooth="yes"/>
      <point x="296" y="44"/>
      <point x="252" y="93"/>
      <point x="252" y="154" type="curve" smooth="yes"/>
      <point x="252" y="403" type="line"/>
      <point x="268" y="437"/>
      <point x="311" y="462"/>
      <point x="352" y="462" type="curve" smooth="yes"/>
      <point x="424" y="462"/>
      <point x="470" y="384"/>
      <point x="470" y="260" type="curve" smooth="yes"/>
      <point x="470" y="132"/>
      <point x="421" y="44"/>
    </contour>
  </outline>
</glyph>
<glyph name="u" format="1">
  <advance width="664"/>
  <unicode hex="0075"/>
  <outline>
    <contour>
      <point x="439" y="152" type="line"/>
      <point x="419" y="105"/>
      <point x="385" y="81"/>
      <point x="342" y="81" type="curve" smooth="yes"/>
      <point x="298" y="81"/>
      <point x="271" y="100"/>
      <point x="258" y="136" type="curve" smooth="yes"/>
      <point x="250" y="156"/>
      <point x="248" y="185"/>
      <point x="248" y="256" type="curve" smooth="yes"/>
      <point x="248" y="530" type="line"/>
      <point x="18" y="530" type="line"/>
      <point x="18" y="495" type="line"/>
      <point x="93" y="475" type="line"/>
      <point x="93" y="212" type="line" smooth="yes"/>
      <point x="93" y="120"/>
      <point x="96" y="95"/>
      <point x="108" y="70" type="curve" smooth="yes"/>
      <point x="133" y="17"/>
      <point x="181" y="-10"/>
      <point x="245" y="-10" type="curve" smooth="yes"/>
      <point x="314" y="-10"/>
      <point x="393" y="27"/>
      <point x="439" y="81" type="curve"/>
    </contour>
    <contour>
      <point x="412" y="475" type="line"/>
      <point x="412" y="80" type="line"/>
      <point x="414" y="56" type="line"/>
      <point x="417" y="53" type="line"/>
      <point x="417" y="-10" type="line"/>
      <point x="439" y="-10" type="line"/>
      <point x="643" y="39" type="line"/>
      <point x="643" y="62" type="line"/>
      <point x="567" y="90" type="line"/>
      <point x="567" y="530" type="line"/>
      <point x="342" y="530" type="line"/>
      <point x="342" y="495" type="line"/>
    </contour>
  </outline>
</glyph>
<glyph name="v" format="1">
  <advance width="631"/>
  <unicode hex="0076"/>
  <outline>
    <contour>
      <point x="361" y="-10" type="line"/>
      <point x="532" y="418" type="line" smooth="yes"/>
      <point x="555" y="474"/>
      <point x="569" y="484"/>
      <point x="646" y="495" type="curve"/>
      <point x="646" y="530" type="line"/>
      <point x="411" y="530" type="line"/>
      <point x="411" y="495" type="line"/>
      <point x="465" y="487"/>
      <point x="483" y="479"/>
      <point x="483" y="458" type="curve" smooth="yes"/>
      <point x="483" y="448"/>
      <point x="479" y="435"/>
      <point x="473" y="419" type="curve" smooth="yes"/>
      <point x="375" y="171" type="line"/>
      <point x="371" y="171" type="line"/>
      <point x="259" y="441" type="line" smooth="yes"/>
      <point x="256" y="449"/>
      <point x="254" y="456"/>
      <point x="254" y="462" type="curve" smooth="yes"/>
      <point x="254" y="482"/>
      <point x="274" y="490"/>
      <point x="332" y="495" type="curve"/>
      <point x="332" y="530" type="line"/>
      <point x="-5" y="530" type="line"/>
      <point x="-5" y="495" type="line"/>
      <point x="49" y="491"/>
      <point x="59" y="483"/>
      <point x="73" y="452" type="curve" smooth="yes"/>
      <point x="281" y="-10" type="line"/>
    </contour>
  </outline>
</glyph>
<glyph name="w" format="1">
  <advance width="978"/>
  <unicode hex="0077"/>
  <outline>
    <contour>
      <point x="488" y="478" type="line"/>
      <point x="354" y="171" type="line"/>
      <point x="350" y="171" type="line"/>
      <point x="263" y="441" type="line" smooth="yes"/>
      <point x="261" y="446"/>
      <point x="260" y="451"/>
      <point x="260" y="456" type="curve" smooth="yes"/>
      <point x="260" y="479"/>
      <point x="282" y="492"/>
      <point x="336" y="495" type="curve"/>
      <point x="336" y="530" type="line"/>
      <point x="-1" y="530" type="line"/>
      <point x="-1" y="495" type="line"/>
      <point x="53" y="491"/>
      <point x="64" y="484"/>
      <point x="77" y="452" type="curve" smooth="yes"/>
      <point x="260" y="-10" type="line"/>
      <point x="337" y="-10" type="line"/>
      <point x="541" y="471" type="line"/>
    </contour>
    <contour>
      <point x="721" y="-10" type="line"/>
      <point x="882" y="418" type="line" smooth="yes"/>
      <point x="901" y="468"/>
      <point x="910" y="483"/>
      <point x="996" y="495" type="curve"/>
      <point x="996" y="530" type="line"/>
      <point x="761" y="530" type="line"/>
      <point x="761" y="495" type="line"/>
      <point x="814" y="487"/>
      <point x="833" y="479"/>
      <point x="833" y="458" type="curve" smooth="yes"/>
      <point x="833" y="448"/>
      <point x="829" y="435"/>
      <point x="823" y="419" type="curve" smooth="yes"/>
      <point x="735" y="171" type="line"/>
      <point x="731" y="171" type="line"/>
      <point x="644" y="441" type="line" smooth="yes"/>
      <point x="642" y="446"/>
      <point x="641" y="451"/>
      <point x="641" y="456" type="curve" smooth="yes"/>
      <point x="641" y="479"/>
      <point x="663" y="492"/>
      <point x="717" y="495" type="curve"/>
      <point x="717" y="530" type="line"/>
      <point x="380" y="530" type="line"/>
      <point x="380" y="495" type="line"/>
      <point x="434" y="491"/>
      <point x="445" y="484"/>
      <point x="458" y="452" type="curve" smooth="yes"/>
      <point x="641" y="-10" type="line"/>
    </contour>
  </outline>
</glyph>
<glyph name="y" format="1">
  <advance width="630"/>
  <unicode hex="0079"/>
  <outline>
    <contour>
      <point x="367" y="171" type="line"/>
      <point x="251" y="445" type="line" smooth="yes"/>
      <point x="248" y="451"/>
      <point x="247" y="457"/>
      <point x="247" y="463" type="curve" smooth="yes"/>
      <point x="247" y="484"/>
      <point x="269" y="491"/>
      <point x="318" y="495" type="curve"/>
      <point x="318" y="530" type="line"/>
      <point x="-8" y="530" type="line"/>
      <point x="-8" y="495" type="line"/>
      <point x="42" y="490"/>
      <point x="61" y="480"/>
      <point x="72" y="455" type="curve" smooth="yes"/>
      <point x="286" y="-28" type="line"/>
      <point x="246" y="-134" type="line" smooth="yes"/>
      <point x="231" y="-175"/>
      <point x="206" y="-200"/>
      <point x="183" y="-200" type="curve" smooth="yes"/>
      <point x="165" y="-200"/>
      <point x="159" y="-194"/>
      <point x="149" y="-162" type="curve" smooth="yes"/>
      <point x="139" y="-127"/>
      <point x="114" y="-111"/>
      <point x="84" y="-111" type="curve" smooth="yes"/>
      <point x="49" y="-111"/>
      <point x="20" y="-136"/>
      <point x="20" y="-174" type="curve" smooth="yes"/>
      <point x="20" y="-231"/>
      <point x="72" y="-260"/>
      <point x="138" y="-260" type="curve" smooth="yes"/>
      <point x="180" y="-260"/>
      <point x="211" y="-252"/>
      <point x="237" y="-234" type="curve" smooth="yes"/>
      <point x="263" y="-215"/>
      <point x="284" y="-185"/>
      <point x="302" y="-141" type="curve" smooth="yes"/>
      <point x="533" y="415" type="line" smooth="yes"/>
      <point x="555" y="467"/>
      <point x="568" y="481"/>
      <point x="643" y="495" type="curve"/>
      <point x="643" y="530" type="line"/>
      <point x="402" y="530" type="line"/>
      <point x="402" y="495" type="line"/>
      <point x="457" y="492"/>
      <point x="482" y="478"/>
      <point x="482" y="451" type="curve" smooth="yes"/>
      <point x="482" y="442"/>
      <point x="480" y="432"/>
      <point x="473" y="416" type="curve" smooth="yes"/>
      <point x="372" y="171" type="line"/>
    </contour>
  </outline>
</glyph>
<glyph name="braceleft" format="1">
  <advance width="340"/>
  <unicode hex="007B"/>
  <outline>
    <contour>
      <point x="318" y="-180" type="line"/>
      <point x="288" y="-189"/>
      <point x="255" y="-194"/>
      <point x="223" y="-194" type="curve" smooth="yes"/>
      <point x="131" y="-194"/>
      <point x="92" y="-158"/>
      <point x="92" y="-70" type="curve" smooth="yes"/>
      <point x="92" y="2"/>
      <point x="118" y="106"/>
      <point x="118" y="194" type="curve" smooth="yes"/>
      <point x="118" y="281"/>
      <point x="93" y="311"/>
      <point x="22" y="311" type="curve"/>
      <point x="22" y="352" type="line"/>
      <point x="91" y="352"/>
      <point x="118" y="384"/>
      <point x="118" y="463" type="curve" smooth="yes"/>
      <point x="118" y="539"/>
      <point x="92" y="641"/>
      <point x="92" y="701" type="curve" smooth="yes"/>
      <point x="92" y="783"/>
      <point x="141" y="828"/>
      <point x="230" y="828" type="curve" smooth="yes"/>
      <point x="260" y="828"/>
      <point x="292" y="823"/>
      <point x="318" y="815" type="curve"/>
      <point x="307" y="774" type="line"/>
      <point x="288" y="778"/>
      <point x="281" y="779"/>
      <point x="271" y="779" type="curve" smooth="yes"/>
      <point x="228" y="779"/>
      <point x="205" y="751"/>
      <point x="205" y="699" type="curve" smooth="yes"/>
      <point x="205" y="644"/>
      <point x="230" y="538"/>
      <point x="230" y="464" type="curve" smooth="yes"/>
      <point x="230" y="393"/>
      <point x="207" y="351"/>
      <point x="158" y="332" type="curve"/>
      <point x="158" y="328" type="line"/>
      <point x="209" y="308"/>
      <point x="230" y="273"/>
      <point x="230" y="202" type="curve" smooth="yes"/>
      <point x="230" y="125"/>
      <point x="205" y="-5"/>
      <point x="205" y="-65" type="curve" smooth="yes"/>
      <point x="205" y="-119"/>
      <point x="225" y="-142"/>
      <point x="271" y="-142" type="curve" smooth="yes"/>
      <point x="284" y="-142"/>
      <point x="296" y="-140"/>
      <point x="307" y="-136" type="curve"/>
    </contour>
  </outline>
</glyph>
<glyph name="asciitilde" format="1">
  <advance width="568"/>
  <unicode hex="007E"/>
  <outline>
    <contour>
      <point x="70" y="223" type="line"/>
      <point x="70" y="275"/>
      <point x="96" y="359"/>
      <point x="188" y="359" type="curve" smooth="yes"/>
      <point x="260" y="359"/>
      <point x="328" y="307"/>
      <point x="402" y="307" type="curve" smooth="yes"/>
      <point x="447" y="307"/>
      <point x="461" y="328"/>
      <point x="470" y="359" type="curve"/>
      <point x="500" y="359" type="line"/>
      <point x="500" y="307"/>
      <point x="474" y="223"/>
      <point x="382" y="223" type="curve" smooth="yes"/>
      <point x="311" y="223"/>
      <point x="241" y="276"/>
      <point x="168" y="276" type="curve" smooth="yes"/>
      <point x="123" y="276"/>
      <point x="109" y="254"/>
      <point x="100" y="223" type="curve"/>
    </contour>
  </outline>
</glyph>
<glyph name="exclamdown" format="1">
  <advance width="301"/>
  <unicode hex="00A1"/>
  <outline>
    <contour>
      <point x="120" y="300" type="line"/>
      <point x="120" y="227"/>
      <point x="113" y="172"/>
      <point x="88" y="41" type="curve" smooth="yes"/>
      <point x="69" y="-57"/>
      <point x="60" y="-123"/>
      <point x="60" y="-159" type="curve" smooth="yes"/>
      <point x="60" y="-226"/>
      <point x="91" y="-260"/>
      <point x="153" y="-260" type="curve" smooth="yes"/>
      <point x="213" y="-260"/>
      <point x="241" y="-228"/>
      <point x="241" y="-159" type="curve" smooth="yes"/>
      <point x="241" y="-121"/>
      <point x="233" y="-66"/>
      <point x="212" y="44" type="curve" smooth="yes"/>
      <point x="187" y="172"/>
      <point x="181" y="224"/>
      <point x="181" y="300" type="curve"/>
    </contour>
    <contour>
      <point x="238" y="458" type="curve" smooth="yes"/>
      <point x="238" y="506"/>
      <point x="201" y="540"/>
      <point x="150" y="540" type="curve" smooth="yes"/>
      <point x="99" y="540"/>
      <point x="63" y="506"/>
      <point x="63" y="458" type="curve" smooth="yes"/>
      <point x="63" y="410"/>
      <point x="99" y="375"/>
      <point x="149" y="375" type="curve" smooth="yes"/>
      <point x="200" y="375"/>
      <point x="238" y="410"/>
    </contour>
  </outline>
</glyph>
<glyph name="sterling" format="1">
  <advance width="680"/>
  <unicode hex="00A3"/>
  <outline>
    <contour>
      <point x="124" y="313" type="line"/>
      <point x="124" y="374" type="line"/>
      <point x="235" y="374" type="line"/>
      <point x="257" y="483" type="line" smooth="yes"/>
      <point x="296" y="677"/>
      <point x="378" y="775"/>
      <point x="501" y="775" type="curve" smooth="yes"/>
      <point x="577" y="775"/>
      <point x="634" y="737"/>
      <point x="634" y="686" type="curve" smooth="yes"/>
      <point x="634" y="651"/>
      <point x="608" y="626"/>
      <point x="570" y="626" type="curve" smooth="yes"/>
      <point x="500" y="626"/>
      <point x="513" y="712"/>
      <point x="473" y="712" type="curve" smooth="yes"/>
      <point x="448" y="712"/>
      <point x="437" y="675"/>
      <point x="394" y="430" type="curve" smooth="yes"/>
      <point x="384" y="374" type="line"/>
      <point x="555" y="374" type="line"/>
      <point x="555" y="313" type="line"/>
      <point x="370" y="313" type="line"/>
      <point x="350" y="237"/>
      <point x="328" y="177"/>
      <point x="301" y="124" type="curve"/>
      <point x="335" y="105"/>
      <point x="377" y="96"/>
      <point x="425" y="96" type="curve" smooth="yes"/>
      <point x="497" y="96"/>
      <point x="539" y="117"/>
      <point x="555" y="163" type="curve"/>
      <point x="605" y="163" type="line"/>
      <point x="605" y="53"/>
      <point x="541" y="-10"/>
      <point x="431" y="-10" type="curve" smooth="yes"/>
      <point x="374" y="-10"/>
      <point x="325" y="7"/>
      <point x="270" y="47" type="curve"/>
      <point x="229" y="11"/>
      <point x="177" y="-9"/>
      <point x="123" y="-9" type="curve" smooth="yes"/>
      <point x="63" y="-9"/>
      <point x="31" y="16"/>
      <point x="31" y="63" type="curve" smooth="yes"/>
      <point x="31" y="120"/>
      <point x="77" y="163"/>
      <point x="138" y="163" type="curve" smooth="yes"/>
      <point x="153" y="163"/>
      <point x="165" y="161"/>
      <point x="184" y="155" type="curve"/>
      <point x="194" y="178"/>
      <point x="199" y="197"/>
      <point x="221" y="313" type="curve"/>
    </contour>
    <contour>
      <point x="177" y="83" type="curve"/>
      <point x="165" y="96"/>
      <point x="153" y="101"/>
      <point x="136" y="101" type="curve" smooth="yes"/>
      <point x="111" y="101"/>
      <point x="96" y="90"/>
      <point x="96" y="72" type="curve" smooth="yes"/>
      <point x="96" y="56"/>
      <point x="106" y="48"/>
      <point x="126" y="48" type="curve" smooth="yes"/>
      <point x="148" y="48"/>
      <point x="165" y="60"/>
    </contour>
  </outline>
</glyph>
<glyph name="dieresis" format="1">
  <advance width="390"/>
  <unicode hex="00A8"/>
  <outline>
    <contour>
      <point x="10" y="708" type="curve" smooth="yes"/>
      <point x="10" y="673"/>
      <point x="36" y="637"/>
      <point x="85" y="637" type="curve" smooth="yes"/>
      <point x="136" y="637"/>
      <point x="162" y="673"/>
      <point x="162" y="708" type="curve" smooth="yes"/>
      <point x="162" y="746"/>
      <point x="132" y="780"/>
      <point x="85" y="780" type="curve" smooth="yes"/>
      <point x="38" y="780"/>
      <point x="10" y="746"/>
    </contour>
    <contour>
      <point x="228" y="708" type="curve" smooth="yes"/>
      <point x="228" y="673"/>
      <point x="254" y="637"/>
      <point x="303" y="637" type="curve" smooth="yes"/>
      <point x="354" y="637"/>
      <point x="380" y="673"/>
      <point x="380" y="708" type="curve" smooth="yes"/>
      <point x="380" y="746"/>
      <point x="350" y="780"/>
      <point x="303" y="780" type="curve" smooth="yes"/>
      <point x="256" y="780"/>
      <point x="228" y="746"/>
    </contour>
    <contour>
      <point x="195" y="614" type="move" name="_top"/>
    </contour>
  </outline>
</glyph>
<glyph name="copyright" format="1">
  <advance width="886"/>
  <unicode hex="00A9"/>
  <outline>
    <contour>
      <point x="46" y="385" type="curve" smooth="yes"/>
      <point x="46" y="168"/>
      <point x="224" y="-10"/>
      <point x="443" y="-10" type="curve" smooth="yes"/>
      <point x="662" y="-10"/>
      <point x="840" y="168"/>
      <point x="840" y="385" type="curve" smooth="yes"/>
      <point x="840" y="602"/>
      <point x="662" y="780"/>
      <point x="443" y="780" type="curve" smooth="yes"/>
      <point x="224" y="780"/>
      <point x="46" y="602"/>
    </contour>
    <contour>
      <point x="111" y="385" type="curve" smooth="yes"/>
      <point x="111" y="568"/>
      <point x="259" y="720"/>
      <point x="443" y="720" type="curve" smooth="yes"/>
      <point x="628" y="720"/>
      <point x="774" y="568"/>
      <point x="774" y="385" type="curve" smooth="yes"/>
      <point x="774" y="202"/>
      <point x="628" y="50"/>
      <point x="443" y="50" type="curve" smooth="yes"/>
      <point x="259" y="50"/>
      <point x="111" y="202"/>
    </contour>
    <contour>
      <point x="245" y="384" type="curve" smooth="yes"/>
      <point x="245" y="270"/>
      <point x="326" y="191"/>
      <point x="440" y="191" type="curve" smooth="yes"/>
      <point x="486" y="191"/>
      <point x="519" y="204"/>
      <point x="554" y="233" type="curve"/>
      <point x="577" y="192" type="line"/>
      <point x="590" y="192" type="line"/>
      <point x="590" y="345" type="line"/>
      <point x="564" y="345" type="line"/>
      <point x="558" y="317"/>
      <point x="548" y="294"/>
      <point x="537" y="277" type="curve" smooth="yes"/>
      <point x="517" y="246"/>
      <point x="489" y="230"/>
      <point x="454" y="230" type="curve" smooth="yes"/>
      <point x="386" y="230"/>
      <point x="347" y="287"/>
      <point x="347" y="390" type="curve" smooth="yes"/>
      <point x="347" y="490"/>
      <point x="384" y="545"/>
      <point x="456" y="545" type="curve" smooth="yes"/>
      <point x="494" y="545"/>
      <point x="519" y="530"/>
      <point x="542" y="492" type="curve" smooth="yes"/>
      <point x="554" y="472"/>
      <point x="558" y="460"/>
      <point x="562" y="446" type="curve"/>
      <point x="590" y="446" type="line"/>
      <point x="590" y="583" type="line"/>
      <point x="577" y="583" type="line"/>
      <point x="556" y="549" type="line"/>
      <point x="552" y="549" type="line"/>
      <point x="521" y="572"/>
      <point x="484" y="585"/>
      <point x="440" y="585" type="curve" smooth="yes"/>
      <point x="329" y="585"/>
      <point x="245" y="501"/>
    </contour>
  </outline>
</glyph>
<glyph name="ordfeminine" format="1">
  <advance width="420"/>
  <unicode hex="00AA"/>
  <outline>
    <contour>
      <point x="137" y="422" type="curve" smooth="yes"/>
      <point x="177" y="422"/>
      <point x="207" y="441"/>
      <point x="231" y="477" type="curve"/>
      <point x="235" y="476" type="line"/>
      <point x="242" y="441"/>
      <point x="268" y="422"/>
      <point x="307" y="422" type="curve" smooth="yes"/>
      <point x="340" y="422"/>
      <point x="366" y="436"/>
      <point x="389" y="466" type="curve"/>
      <point x="373" y="481" type="line"/>
      <point x="363" y="471"/>
      <point x="356" y="467"/>
      <point x="346" y="467" type="curve" smooth="yes"/>
      <point x="327" y="467"/>
      <point x="322" y="479"/>
      <point x="322" y="521" type="curve" smooth="yes"/>
      <point x="322" y="660" type="line" smooth="yes"/>
      <point x="322" y="716"/>
      <point x="321" y="730"/>
      <point x="314" y="745" type="curve" smooth="yes"/>
      <point x="302" y="766"/>
      <point x="267" y="780"/>
      <point x="224" y="780" type="curve" smooth="yes"/>
      <point x="192" y="780"/>
      <point x="158" y="774"/>
      <point x="131" y="760" type="curve" smooth="yes"/>
      <point x="85" y="737"/>
      <point x="56" y="698"/>
      <point x="56" y="666" type="curve" smooth="yes"/>
      <point x="56" y="645"/>
      <point x="70" y="630"/>
      <point x="96" y="630" type="curve" smooth="yes"/>
      <point x="115" y="630"/>
      <point x="135" y="648"/>
      <point x="135" y="672" type="curve" smooth="yes"/>
      <point x="135" y="680"/>
      <point x="133" y="688"/>
      <point x="133" y="695" type="curve" smooth="yes"/>
      <point x="133" y="719"/>
      <point x="158" y="735"/>
      <point x="185" y="735" type="curve" smooth="yes"/>
      <point x="217" y="735"/>
      <point x="230" y="713"/>
      <point x="230" y="670" type="curve" smooth="yes"/>
      <point x="230" y="627" type="line"/>
      <point x="101" y="597"/>
      <point x="51" y="562"/>
      <point x="51" y="502" type="curve" smooth="yes"/>
      <point x="51" y="454"/>
      <point x="90" y="422"/>
    </contour>
    <contour>
      <point x="182" y="484" type="curve" smooth="yes"/>
      <point x="163" y="484"/>
      <point x="145" y="496"/>
      <point x="145" y="524" type="curve" smooth="yes"/>
      <point x="145" y="554"/>
      <point x="166" y="575"/>
      <point x="230" y="591" type="curve"/>
      <point x="230" y="527" type="line"/>
      <point x="221" y="497"/>
      <point x="204" y="484"/>
    </contour>
  </outline>
</glyph>
<glyph name="guillemotleft" format="1">
  <advance width="489"/>
  <unicode hex="00AB"/>
  <outline>
    <contour>
      <point x="198" y="53" type="line"/>
      <point x="49" y="236" type="line"/>
      <point x="49" y="255" type="line"/>
      <point x="196" y="436" type="line"/>
      <point x="226" y="423" type="line"/>
      <point x="172" y="246" type="line"/>
      <point x="228" y="68" type="line"/>
    </contour>
    <contour>
      <point x="391" y="53" type="line"/>
      <point x="242" y="236" type="line"/>
      <point x="242" y="255" type="line"/>
      <point x="389" y="436" type="line"/>
      <point x="419" y="423" type="line"/>
      <point x="365" y="246" type="line"/>
      <point x="421" y="68" type="line"/>
    </contour>
  </outline>
</glyph>
<glyph name="uni00AD" format="1">
  <advance width="445"/>
  <unicode hex="00AD"/>
  <outline>
    <contour>
      <point x="382" y="199" type="line"/>
      <point x="382" y="305" type="line"/>
      <point x="63" y="305" type="line"/>
      <point x="63" y="199" type="line"/>
    </contour>
  </outline>
</glyph>
<glyph name="macron" format="1">
  <advance width="327"/>
  <unicode hex="00AF"/>
  <outline>
    <contour>
      <point x="317" y="694" type="line"/>
      <point x="317" y="790" type="line"/>
      <point x="10" y="790" type="line"/>
      <point x="10" y="694" type="line"/>
    </contour>
    <contour>
      <point x="167" y="651" type="move" name="_top"/>
    </contour>
  </outline>
</glyph>
<glyph name="degree" format="1">
  <advance width="322"/>
  <unicode hex="00B0"/>
  <outline>
    <contour>
      <point x="161" y="587" type="curve" smooth="yes"/>
      <point x="93" y="587"/>
      <point x="40" y="640"/>
      <point x="40" y="708" type="curve" smooth="yes"/>
      <point x="40" y="776"/>
      <point x="93" y="830"/>
      <point x="161" y="830" type="curve" smooth="yes"/>
      <point x="228" y="830"/>
      <point x="282" y="775"/>
      <point x="282" y="708" type="curve" smooth="yes"/>
      <point x="282" y="640"/>
      <point x="229" y="587"/>
    </contour>
    <contour>
      <point x="96" y="708" type="curve" smooth="yes"/>
      <point x="96" y="671"/>
      <point x="124" y="643"/>
      <point x="161" y="643" type="curve" smooth="yes"/>
      <point x="200" y="643"/>
      <point x="226" y="671"/>
      <point x="226" y="708" type="curve" smooth="yes"/>
      <point x="226" y="747"/>
      <point x="200" y="775"/>
      <point x="161" y="775" type="curve" smooth="yes"/>
      <point x="124" y="775"/>
      <point x="96" y="747"/>
    </contour>
  </outline>
</glyph>
<glyph name="threesuperior" format="1">
  <advance width="444"/>
  <unicode hex="00B3"/>
  <outline>
    <contour>
      <point x="121" y="656" type="line"/>
      <point x="129" y="658"/>
      <point x="149" y="659"/>
      <point x="162" y="659" type="curve" smooth="yes"/>
      <point x="230" y="659"/>
      <point x="267" y="617"/>
      <point x="267" y="546" type="curve" smooth="yes"/>
      <point x="267" y="489"/>
      <point x="246" y="457"/>
      <point x="203" y="457" type="curve" smooth="yes"/>
      <point x="125" y="457"/>
      <point x="153" y="553"/>
      <point x="79" y="553" type="curve" smooth="yes"/>
      <point x="43" y="553"/>
      <point x="19" y="532"/>
      <point x="19" y="503" type="curve" smooth="yes"/>
      <point x="19" y="452"/>
      <point x="91" y="412"/>
      <point x="183" y="412" type="curve" smooth="yes"/>
      <point x="312" y="412"/>
      <point x="413" y="490"/>
      <point x="413" y="585" type="curve" smooth="yes"/>
      <point x="413" y="660"/>
      <point x="353" y="709"/>
      <point x="263" y="716" type="curve"/>
      <point x="263" y="720" type="line"/>
      <point x="321" y="729"/>
      <point x="377" y="772"/>
      <point x="377" y="825" type="curve" smooth="yes"/>
      <point x="377" y="887"/>
      <point x="317" y="928"/>
      <point x="226" y="928" type="curve" smooth="yes"/>
      <point x="135" y="928"/>
      <point x="65" y="883"/>
      <point x="47" y="815" type="curve"/>
      <point x="78" y="805" type="line"/>
      <point x="98" y="840"/>
      <point x="141" y="864"/>
      <point x="180" y="864" type="curve" smooth="yes"/>
      <point x="220" y="864"/>
      <point x="243" y="843"/>
      <point x="243" y="810" type="curve" smooth="yes"/>
      <point x="243" y="762"/>
      <point x="189" y="713"/>
      <point x="106" y="687" type="curve"/>
    </contour>
  </outline>
</glyph>
<glyph name="acute" format="1">
  <advance width="181"/>
  <unicode hex="00B4"/>
  <outline>
    <contour>
      <point x="10" y="642" type="line"/>
      <point x="51" y="793" type="line" smooth="yes"/>
      <point x="63" y="836"/>
      <point x="87" y="859"/>
      <point x="126" y="859" type="curve" smooth="yes"/>
      <point x="153" y="859"/>
      <point x="171" y="841"/>
      <point x="171" y="814" type="curve" smooth="yes"/>
      <point x="171" y="794"/>
      <point x="161" y="768"/>
      <point x="138" y="742" type="curve" smooth="yes"/>
      <point x="41" y="631" type="line"/>
    </contour>
    <contour>
      <point x="81" y="651" type="move" name="_top"/>
    </contour>
  </outline>
</glyph>
<glyph name="paragraph" format="1">
  <advance width="635"/>
  <unicode hex="00B6"/>
  <outline>
    <contour>
      <point x="366" y="-108" type="line"/>
      <point x="366" y="715" type="line"/>
      <point x="435" y="715" type="line"/>
      <point x="435" y="-108" type="line"/>
      <point x="510" y="-108" type="line"/>
      <point x="510" y="713" type="line"/>
      <point x="588" y="730" type="line"/>
      <point x="588" y="770" type="line"/>
      <point x="261" y="770" type="line" smooth="yes"/>
      <point x="117" y="770"/>
      <point x="29" y="685"/>
      <point x="29" y="554" type="curve" smooth="yes"/>
      <point x="29" y="438"/>
      <point x="109" y="340"/>
      <point x="236" y="340" type="curve" smooth="yes"/>
      <point x="292" y="340" type="line"/>
      <point x="292" y="-108" type="line"/>
    </contour>
  </outline>
</glyph>
<glyph name="cedilla" format="1">
  <advance width="250"/>
  <unicode hex="00B8"/>
  <outline>
    <contour>
      <point x="10" y="-233" type="line"/>
      <point x="31" y="-248"/>
      <point x="69" y="-257"/>
      <point x="108" y="-257" type="curve" smooth="yes"/>
      <point x="189" y="-257"/>
      <point x="240" y="-214"/>
      <point x="240" y="-156" type="curve" smooth="yes"/>
      <point x="240" y="-100"/>
      <point x="196" y="-58"/>
      <point x="125" y="-58" type="curve"/>
      <point x="154" y="17" type="line"/>
      <point x="97" y="17" type="line"/>
      <point x="37" y="-134" type="line"/>
      <point x="51" y="-143" type="line"/>
      <point x="64" y="-138"/>
      <point x="84" y="-135"/>
      <point x="97" y="-135" type="curve" smooth="yes"/>
      <point x="120" y="-135"/>
      <point x="135" y="-147"/>
      <point x="135" y="-165" type="curve" smooth="yes"/>
      <point x="135" y="-184"/>
      <point x="114" y="-202"/>
      <point x="83" y="-202" type="curve" smooth="yes"/>
      <point x="66" y="-202"/>
      <point x="48" y="-198"/>
      <point x="29" y="-188" type="curve"/>
    </contour>
    <contour>
      <point x="120" y="0" type="move" name="_bottom"/>
    </contour>
  </outline>
</glyph>
<glyph name="onesuperior" format="1">
  <advance width="400"/>
  <unicode hex="00B9"/>
  <outline>
    <contour>
      <point x="235" y="928" type="line"/>
      <point x="177" y="884"/>
      <point x="125" y="859"/>
      <point x="49" y="850" type="curve"/>
      <point x="49" y="819" type="line"/>
      <point x="143" y="819" type="line"/>
      <point x="143" y="462" type="line"/>
      <point x="50" y="444" type="line"/>
      <point x="50" y="419" type="line"/>
      <point x="375" y="419" type="line"/>
      <point x="375" y="444" type="line"/>
      <point x="278" y="462" type="line"/>
      <point x="278" y="923" type="line"/>
    </contour>
  </outline>
</glyph>
<glyph name="ordmasculine" format="1">
  <advance width="424"/>
  <unicode hex="00BA"/>
  <outline>
    <contour>
      <point x="212" y="780" type="curve" smooth="yes"/>
      <point x="114" y="780"/>
      <point x="41" y="704"/>
      <point x="41" y="601" type="curve" smooth="yes"/>
      <point x="41" y="498"/>
      <point x="114" y="422"/>
      <point x="212" y="422" type="curve" smooth="yes"/>
      <point x="310" y="422"/>
      <point x="383" y="498"/>
      <point x="383" y="601" type="curve" smooth="yes"/>
      <point x="383" y="704"/>
      <point x="310" y="780"/>
    </contour>
    <contour>
      <point x="140" y="601" type="curve" smooth="yes"/>
      <point x="140" y="686"/>
      <point x="166" y="735"/>
      <point x="212" y="735" type="curve" smooth="yes"/>
      <point x="258" y="735"/>
      <point x="284" y="686"/>
      <point x="284" y="602" type="curve" smooth="yes"/>
      <point x="284" y="517"/>
      <point x="257" y="466"/>
      <point x="211" y="466" type="curve" smooth="yes"/>
      <point x="166" y="466"/>
      <point x="140" y="516"/>
    </contour>
  </outline>
</glyph>
<glyph name="AE" format="1">
  <advance width="1093"/>
  <unicode hex="00C6"/>
  <outline>
    <contour>
      <point x="-27" y="0" type="line"/>
      <point x="272" y="0" type="line"/>
      <point x="272" y="37" type="line"/>
      <point x="218" y="45"/>
      <point x="195" y="60"/>
      <point x="195" y="88" type="curve" smooth="yes"/>
      <point x="195" y="103"/>
      <point x="203" y="122"/>
      <point x="215" y="146" type="curve" smooth="yes"/>
      <point x="288" y="288" type="line"/>
      <point x="489" y="288" type="line"/>
      <point x="489" y="56" type="line"/>
      <point x="404" y="37" type="line"/>
      <point x="404" y="0" type="line"/>
      <point x="1011" y="0" type="line"/>
      <point x="1053" y="234" type="line"/>
      <point x="1001" y="234" type="line"/>
      <point x="978" y="169"/>
      <point x="953" y="116"/>
      <point x="910" y="57" type="curve"/>
      <point x="661" y="57" type="line"/>
      <point x="661" y="380" type="line"/>
      <point x="787" y="380" type="line"/>
      <point x="809" y="343"/>
      <point x="823" y="307"/>
      <point x="830" y="267" type="curve"/>
      <point x="872" y="267" type="line"/>
      <point x="872" y="547" type="line"/>
      <point x="830" y="547" type="line"/>
      <point x="823" y="507"/>
      <point x="809" y="471"/>
      <point x="787" y="434" type="curve"/>
      <point x="661" y="434" type="line"/>
      <point x="661" y="713" type="line"/>
      <point x="916" y="713" type="line"/>
      <point x="950" y="661"/>
      <point x="977" y="603"/>
      <point x="993" y="550" type="curve"/>
      <point x="1035" y="550" type="line"/>
      <point x="1016" y="770" type="line"/>
      <point x="384" y="770" type="line"/>
      <point x="384" y="743" type="line"/>
      <point x="446" y="725" type="line"/>
      <point x="142" y="148" type="line" smooth="yes"/>
      <point x="102" y="72"/>
      <point x="75" y="52"/>
      <point x="-27" y="37" type="curve"/>
    </contour>
    <contour>
      <point x="316" y="342" type="line"/>
      <point x="485" y="667" type="line"/>
      <point x="489" y="667" type="line"/>
      <point x="489" y="342" type="line"/>
    </contour>
  </outline>
</glyph>
<glyph name="Oslash" format="1">
  <advance width="867"/>
  <unicode hex="00D8"/>
  <outline>
    <contour>
      <point x="433" y="-10" type="curve" smooth="yes"/>
      <point x="684" y="-10"/>
      <point x="823" y="168"/>
      <point x="823" y="385" type="curve" smooth="yes"/>
      <point x="823" y="496"/>
      <point x="786" y="596"/>
      <point x="717" y="668" type="curve"/>
      <point x="805" y="770" type="line"/>
      <point x="727" y="770" type="line"/>
      <point x="673" y="707" type="line"/>
      <point x="611" y="752"/>
      <point x="530" y="780"/>
      <point x="433" y="780" type="curve" smooth="yes"/>
      <point x="183" y="780"/>
      <point x="44" y="602"/>
      <point x="44" y="385" type="curve" smooth="yes"/>
      <point x="44" y="273"/>
      <point x="81" y="171"/>
      <point x="151" y="99" type="curve"/>
      <point x="66" y="0" type="line"/>
      <point x="143" y="0" type="line"/>
      <point x="195" y="61" type="line"/>
      <point x="257" y="16"/>
      <point x="337" y="-10"/>
    </contour>
    <contour>
      <point x="258" y="223" type="line"/>
      <point x="245" y="277"/>
      <point x="241" y="335"/>
      <point x="241" y="385" type="curve" smooth="yes"/>
      <point x="241" y="523"/>
      <point x="272" y="720"/>
      <point x="433" y="720" type="curve" smooth="yes"/>
      <point x="513" y="720"/>
      <point x="561" y="673"/>
      <point x="589" y="609" type="curve"/>
    </contour>
    <contour>
      <point x="433" y="48" type="curve" smooth="yes"/>
      <point x="355" y="48"/>
      <point x="307" y="94"/>
      <point x="279" y="158" type="curve"/>
      <point x="610" y="543" type="line"/>
      <point x="622" y="491"/>
      <point x="626" y="434"/>
      <point x="626" y="385" type="curve" smooth="yes"/>
      <point x="626" y="246"/>
      <point x="595" y="48"/>
    </contour>
  </outline>
</glyph>
<glyph name="eth" format="1">
  <advance width="607"/>
  <unicode hex="00F0"/>
  <outline>
    <contour>
      <point x="287" y="-10" type="curve" smooth="yes" name="hr00"/>
      <point x="435" y="-10"/>
      <point x="559" y="99"/>
      <point x="559" y="293" type="curve" smooth="yes"/>
      <point x="559" y="518"/>
      <point x="419" y="694"/>
      <point x="162" y="780" type="curve"/>
      <point x="129" y="730" type="line"/>
      <point x="278" y="653"/>
      <point x="361" y="546"/>
      <point x="381" y="420" type="curve"/>
      <point x="357" y="453"/>
      <point x="312" y="472"/>
      <point x="257" y="472" type="curve" smooth="yes"/>
      <point x="129" y="472"/>
      <point x="36" y="372"/>
      <point x="36" y="236" type="curve" smooth="yes"/>
      <point x="36" y="90"/>
      <point x="143" y="-10"/>
    </contour>
    <contour>
      <point x="294" y="50" type="curve" smooth="yes"/>
      <point x="236" y="50"/>
      <point x="200" y="115"/>
      <point x="200" y="219" type="curve" smooth="yes"/>
      <point x="200" y="328"/>
      <point x="239" y="397"/>
      <point x="301" y="397" type="curve" smooth="yes"/>
      <point x="335" y="397"/>
      <point x="366" y="377"/>
      <point x="383" y="343" type="curve"/>
      <point x="391" y="313"/>
      <point x="395" y="275"/>
      <point x="395" y="238" type="curve" smooth="yes"/>
      <point x="395" y="122"/>
      <point x="356" y="50"/>
    </contour>
    <contour>
      <point x="483" y="713" type="line"/>
      <point x="439" y="774" type="line"/>
      <point x="156" y="575" type="line"/>
      <point x="199" y="513" type="line"/>
    </contour>
  </outline>
</glyph>
<glyph name="dcroat" format="1">
  <advance width="674"/>
  <unicode hex="0111"/>
  <outline>
    <contour>
      <point x="660" y="599" type="line"/>
      <point x="660" y="684" type="line"/>
      <point x="313" y="684" type="line"/>
      <point x="313" y="599" type="line"/>
    </contour>
    <component base="d"/>
  </outline>
</glyph>
<glyph name="gcommaaccent" format="1">
  <advance width="584"/>
  <unicode hex="0123"/>
  <outline>
    <contour>
      <point x="326" y="860" type="line"/>
      <point x="263" y="832"/>
      <point x="227" y="785"/>
      <point x="227" y="729" type="curve" smooth="yes"/>
      <point x="227" y="681"/>
      <point x="253" y="651"/>
      <point x="295" y="651" type="curve" smooth="yes"/>
      <point x="334" y="651"/>
      <point x="362" y="674"/>
      <point x="362" y="704" type="curve" smooth="yes"/>
      <point x="362" y="747"/>
      <point x="315" y="748"/>
      <point x="315" y="777" type="curve" smooth="yes"/>
      <point x="315" y="792"/>
      <point x="329" y="816"/>
      <point x="349" y="835" type="curve"/>
    </contour>
    <component base="g"/>
  </outline>
</glyph>
<glyph name="Hbar" format="1">
  <advance width="925"/>
  <unicode hex="0126"/>
  <outline>
    <contour>
      <point x="128" y="58" type="line"/>
      <point x="43" y="37" type="line"/>
      <point x="43" y="0" type="line"/>
      <point x="384" y="0" type="line"/>
      <point x="384" y="37" type="line"/>
      <point x="300" y="58" type="line"/>
      <point x="300" y="378" type="line"/>
      <point x="626" y="378" type="line"/>
      <point x="626" y="58" type="line"/>
      <point x="541" y="37" type="line"/>
      <point x="541" y="0" type="line"/>
      <point x="882" y="0" type="line"/>
      <point x="882" y="37" type="line"/>
      <point x="798" y="58" type="line"/>
      <point x="798" y="537" type="line"/>
      <point x="875" y="537" type="line"/>
      <point x="875" y="612" type="line"/>
      <point x="798" y="612" type="line"/>
      <point x="798" y="713" type="line"/>
      <point x="882" y="733" type="line"/>
      <point x="882" y="770" type="line"/>
      <point x="541" y="770" type="line"/>
      <point x="541" y="733" type="line"/>
      <point x="626" y="713" type="line"/>
      <point x="626" y="612" type="line"/>
      <point x="300" y="612" type="line"/>
      <point x="300" y="713" type="line"/>
      <point x="384" y="733" type="line"/>
      <point x="384" y="770" type="line"/>
      <point x="43" y="770" type="line"/>
      <point x="43" y="733" type="line"/>
      <point x="128" y="713" type="line"/>
      <point x="128" y="612" type="line"/>
      <point x="53" y="612" type="line"/>
      <point x="53" y="537" type="line"/>
      <point x="128" y="537" type="line"/>
    </contour>
    <contour>
      <point x="300" y="537" type="line"/>
      <point x="626" y="537" type="line"/>
      <point x="626" y="435" type="line"/>
      <point x="300" y="435" type="line"/>
    </contour>
  </outline>
</glyph>
<glyph name="dotlessi" format="1">
  <advance width="360"/>
  <unicode hex="0131"/>
  <outline>
    <contour>
      <point x="264" y="55" type="line"/>
      <point x="264" y="540" type="line"/>
      <point x="243" y="540" type="line"/>
      <point x="24" y="492" type="line"/>
      <point x="24" y="468" type="line"/>
      <point x="109" y="441" type="line"/>
      <point x="109" y="55" type="line"/>
      <point x="24" y="35" type="line"/>
      <point x="24" y="0" type="line"/>
      <point x="344" y="0" type="line"/>
      <point x="344" y="35" type="line"/>
    </contour>
  </outline>
</glyph>
<glyph name="kgreenlandic" format="1">
  <advance width="677"/>
  <unicode hex="0138"/>
  <outline>
    <contour>
      <point x="314" y="250" type="line"/>
      <point x="459" y="0" type="line"/>
      <point x="691" y="0" type="line"/>
      <point x="691" y="35" type="line"/>
      <point x="609" y="55" type="line"/>
      <point x="405" y="374" type="line"/>
    </contour>
    <contour>
      <point x="264" y="55" type="line"/>
      <point x="264" y="540" type="line"/>
      <point x="242" y="540" type="line"/>
      <point x="24" y="491" type="line"/>
      <point x="24" y="468" type="line"/>
      <point x="109" y="441" type="line"/>
      <point x="109" y="55" type="line"/>
      <point x="24" y="35" type="line"/>
      <point x="24" y="0" type="line"/>
      <point x="351" y="0" type="line"/>
      <point x="351" y="35" type="line"/>
    </contour>
    <contour>
      <point x="366" y="495" type="line"/>
      <point x="434" y="488"/>
      <point x="452" y="483"/>
      <point x="452" y="471" type="curve" smooth="yes"/>
      <point x="452" y="463"/>
      <point x="443" y="452"/>
      <point x="427" y="435" type="curve" smooth="yes"/>
      <point x="212" y="209" type="line"/>
      <point x="234" y="161" type="line"/>
      <point x="505" y="438" type="line" smooth="yes"/>
      <point x="538" y="471"/>
      <point x="552" y="482"/>
      <point x="641" y="495" type="curve"/>
      <point x="641" y="530" type="line"/>
      <point x="366" y="530" type="line"/>
    </contour>
  </outline>
</glyph>
<glyph name="lacute" format="1">
  <advance width="356"/>
  <unicode hex="013A"/>
  <outline>
    <contour>
      <point x="35" y="837" type="line"/>
      <point x="179" y="944" type="line" smooth="yes"/>
      <point x="194" y="955"/>
      <point x="207" y="960"/>
      <point x="223" y="960" type="curve" smooth="yes"/>
      <point x="245" y="960"/>
      <point x="266" y="942"/>
      <point x="266" y="917" type="curve" smooth="yes"/>
      <point x="266" y="894"/>
      <point x="250" y="875"/>
      <point x="198" y="860" type="curve" smooth="yes"/>
      <point x="46" y="816" type="line"/>
    </contour>
    <contour>
      <point x="257" y="55" type="line"/>
      <point x="257" y="830" type="line"/>
      <point x="236" y="830" type="line"/>
      <point x="17" y="782" type="line"/>
      <point x="17" y="758" type="line"/>
      <point x="102" y="731" type="line"/>
      <point x="102" y="55" type="line"/>
      <point x="17" y="35" type="line"/>
      <point x="17" y="0" type="line"/>
      <point x="337" y="0" type="line"/>
      <point x="337" y="35" type="line"/>
    </contour>
  </outline>
</glyph>
<glyph name="Lslash" format="1">
  <advance width="700"/>
  <unicode hex="0141"/>
  <outline>
    <contour>
      <point x="373" y="442" type="line"/>
      <point x="373" y="537" type="line"/>
      <point x="61" y="371" type="line"/>
      <point x="61" y="276" type="line"/>
    </contour>
    <component base="L" xOffset="1"/>
  </outline>
</glyph>
<glyph name="eng" format="1">
  <advance width="661"/>
  <unicode hex="014B"/>
  <outline>
    <contour>
      <point x="257" y="55" type="line"/>
      <point x="257" y="450" type="line"/>
      <point x="252" y="455" type="line"/>
      <point x="252" y="540" type="line"/>
      <point x="230" y="540" type="line"/>
      <point x="26" y="491" type="line"/>
      <point x="26" y="468" type="line"/>
      <point x="102" y="440" type="line"/>
      <point x="102" y="55" type="line"/>
      <point x="27" y="35" type="line"/>
      <point x="27" y="0" type="line"/>
      <point x="327" y="0" type="line"/>
      <point x="327" y="35" type="line"/>
    </contour>
    <contour>
      <point x="245" y="396" type="line"/>
      <point x="270" y="434"/>
      <point x="298" y="450"/>
      <point x="338" y="450" type="curve" smooth="yes"/>
      <point x="380" y="450"/>
      <point x="412" y="432"/>
      <point x="426" y="399" type="curve" smooth="yes"/>
      <point x="434" y="381"/>
      <point x="436" y="357"/>
      <point x="436" y="279" type="curve" smooth="yes"/>
      <point x="436" y="55" type="line"/>
      <point x="591" y="55" type="line"/>
      <point x="591" y="318" type="line" smooth="yes"/>
      <point x="591" y="407"/>
      <point x="588" y="434"/>
      <point x="576" y="460" type="curve" smooth="yes"/>
      <point x="551" y="511"/>
      <point x="501" y="540"/>
      <point x="436" y="540" type="curve" smooth="yes"/>
      <point x="366" y="540"/>
      <point x="290" y="508"/>
      <point x="245" y="459" type="curve"/>
    </contour>
    <contour>
      <point x="436" y="-48" type="line" smooth="yes"/>
      <point x="436" y="-156"/>
      <point x="412" y="-208"/>
      <point x="364" y="-208" type="curve" smooth="yes"/>
      <point x="336" y="-208"/>
      <point x="320" y="-192"/>
      <point x="297" y="-144" type="curve" smooth="yes"/>
      <point x="279" y="-108"/>
      <point x="262" y="-96"/>
      <point x="231" y="-96" type="curve" smooth="yes"/>
      <point x="190" y="-96"/>
      <point x="164" y="-120"/>
      <point x="164" y="-158" type="curve" smooth="yes"/>
      <point x="164" y="-219"/>
      <point x="235" y="-260"/>
      <point x="341" y="-260" type="curve" smooth="yes"/>
      <point x="439" y="-260"/>
      <point x="503" y="-225"/>
      <point x="549" y="-146" type="curve" smooth="yes"/>
      <point x="581" y="-91"/>
      <point x="591" y="-40"/>
      <point x="591" y="69" type="curve"/>
      <point x="436" y="114" type="line"/>
    </contour>
  </outline>
</glyph>
<glyph name="OE" format="1">
  <advance width="1172"/>
  <unicode hex="0152"/>
  <outline>
    <contour>
      <point x="579" y="118" type="line"/>
      <point x="550" y="77"/>
      <point x="504" y="48"/>
      <point x="434" y="48" type="curve" smooth="yes"/>
      <point x="273" y="48"/>
      <point x="242" y="246"/>
      <point x="242" y="385" type="curve" smooth="yes"/>
      <point x="242" y="523"/>
      <point x="273" y="720"/>
      <point x="434" y="720" type="curve" smooth="yes"/>
      <point x="511" y="720"/>
      <point x="558" y="685"/>
      <point x="586" y="637" type="curve"/>
      <point x="670" y="711" type="line"/>
      <point x="608" y="755"/>
      <point x="529" y="780"/>
      <point x="434" y="780" type="curve" smooth="yes"/>
      <point x="184" y="780"/>
      <point x="45" y="602"/>
      <point x="45" y="385" type="curve" smooth="yes"/>
      <point x="45" y="168"/>
      <point x="184" y="-10"/>
      <point x="434" y="-10" type="curve" smooth="yes"/>
      <point x="526" y="-10"/>
      <point x="602" y="14"/>
      <point x="663" y="55" type="curve"/>
    </contour>
    <component base="E" xOffset="441"/>
  </outline>
</glyph>
<glyph name="tbar" format="1">
  <advance width="408"/>
  <unicode hex="0167"/>
  <outline>
    <contour>
      <point x="27" y="328" type="line"/>
      <point x="374" y="328" type="line"/>
      <point x="374" y="383" type="line"/>
      <point x="27" y="383" type="line"/>
    </contour>
    <component base="t" xOffset="1"/>
  </outline>
</glyph>
<glyph name="florin" format="1">
  <advance width="770"/>
  <unicode hex="0192"/>
  <outline>
    <contour>
      <point x="204" y="433" type="line"/>
      <point x="295" y="433" type="line"/>
      <point x="230" y="21" type="line" smooth="yes"/>
      <point x="213" y="-86"/>
      <point x="180" y="-139"/>
      <point x="131" y="-139" type="curve" smooth="yes"/>
      <point x="107" y="-139"/>
      <point x="97" y="-130"/>
      <point x="77" y="-75" type="curve" smooth="yes"/>
      <point x="65" y="-43"/>
      <point x="47" y="-27"/>
      <point x="20" y="-27" type="curve" smooth="yes"/>
      <point x="-24" y="-27"/>
      <point x="-54" y="-56"/>
      <point x="-54" y="-98" type="curve" smooth="yes"/>
      <point x="-54" y="-156"/>
      <point x="4" y="-191"/>
      <point x="101" y="-191" type="curve" smooth="yes"/>
      <point x="271" y="-191"/>
      <point x="369" y="-85"/>
      <point x="404" y="138" type="curve" smooth="yes"/>
      <point x="450" y="433" type="line"/>
      <point x="582" y="433" type="line"/>
      <point x="593" y="480" type="line"/>
      <point x="458" y="480" type="line"/>
      <point x="467" y="535" type="line" smooth="yes"/>
      <point x="493" y="698"/>
      <point x="521" y="729"/>
      <point x="572" y="729" type="curve" smooth="yes"/>
      <point x="604" y="729"/>
      <point x="617" y="717"/>
      <point x="622" y="677" type="curve" smooth="yes"/>
      <point x="627" y="637"/>
      <point x="650" y="616"/>
      <point x="684" y="616" type="curve" smooth="yes"/>
      <point x="725" y="616"/>
      <point x="755" y="647"/>
      <point x="755" y="690" type="curve" smooth="yes"/>
      <point x="755" y="746"/>
      <point x="699" y="780"/>
      <point x="605" y="780" type="curve" smooth="yes"/>
      <point x="491" y="780"/>
      <point x="389" y="730"/>
      <point x="347" y="653" type="curve" smooth="yes"/>
      <point x="326" y="613"/>
      <point x="320" y="594"/>
      <point x="303" y="480" type="curve"/>
      <point x="215" y="480" type="line"/>
    </contour>
  </outline>
</glyph>
<glyph name="Aringacute" format="1">
  <advance width="781"/>
  <unicode hex="01FA"/>
  <outline>
    <contour>
      <point x="239" y="825" type="line"/>
      <point x="296" y="842" type="line"/>
      <point x="307" y="834"/>
      <point x="322" y="830"/>
      <point x="338" y="830" type="curve" smooth="yes"/>
      <point x="372" y="830"/>
      <point x="398" y="851"/>
      <point x="406" y="882" type="curve"/>
      <point x="451" y="895"/>
      <point x="460" y="914"/>
      <point x="460" y="934" type="curve" smooth="yes"/>
      <point x="460" y="958"/>
      <point x="436" y="969"/>
      <point x="416" y="969" type="curve" smooth="yes"/>
      <point x="402" y="969"/>
      <point x="391" y="965"/>
      <point x="379" y="958" type="curve"/>
      <point x="367" y="966"/>
      <point x="353" y="970"/>
      <point x="338" y="970" type="curve" smooth="yes"/>
      <point x="298" y="970"/>
      <point x="268" y="940"/>
      <point x="268" y="900" type="curve" smooth="yes"/>
      <point x="268" y="892"/>
      <point x="269" y="885"/>
      <point x="271" y="878" type="curve"/>
      <point x="228" y="846" type="line"/>
    </contour>
    <contour>
      <point x="338" y="880" type="curve" smooth="yes"/>
      <point x="326" y="880"/>
      <point x="318" y="888"/>
      <point x="318" y="900" type="curve" smooth="yes"/>
      <point x="318" y="912"/>
      <point x="326" y="920"/>
      <point x="338" y="920" type="curve" smooth="yes"/>
      <point x="350" y="920"/>
      <point x="358" y="912"/>
      <point x="358" y="900" type="curve" smooth="yes"/>
      <point x="358" y="888"/>
      <point x="350" y="880"/>
    </contour>
    <component base="A"/>
  </outline>
</glyph>
<glyph name="oslashacute" format="1">
  <advance width="652"/>
  <unicode hex="01FF"/>
  <outline>
    <contour>
      <point x="326" y="-10" type="curve" smooth="yes"/>
      <point x="509" y="-10"/>
      <point x="611" y="114"/>
      <point x="611" y="265" type="curve" smooth="yes"/>
      <point x="611" y="336"/>
      <point x="588" y="401"/>
      <point x="545" y="450" type="curve"/>
      <point x="623" y="530" type="line"/>
      <point x="547" y="530" type="line"/>
      <point x="505" y="487" type="line"/>
      <point x="459" y="520"/>
      <point x="399" y="540"/>
      <point x="326" y="540" type="curve" smooth="yes"/>
      <point x="143" y="540"/>
      <point x="41" y="416"/>
      <point x="41" y="265" type="curve" smooth="yes"/>
      <point x="41" y="193"/>
      <point x="64" y="128"/>
      <point x="107" y="79" type="curve"/>
      <point x="31" y="0" type="line"/>
      <point x="106" y="0" type="line"/>
      <point x="147" y="42" type="line"/>
      <point x="193" y="9"/>
      <point x="253" y="-10"/>
    </contour>
    <contour>
      <point x="214" y="188" type="line"/>
      <point x="210" y="214"/>
      <point x="209" y="241"/>
      <point x="209" y="265" type="curve" smooth="yes"/>
      <point x="209" y="357"/>
      <point x="227" y="488"/>
      <point x="326" y="488" type="curve" smooth="yes"/>
      <point x="378" y="488"/>
      <point x="407" y="452"/>
      <point x="424" y="404" type="curve"/>
    </contour>
    <contour>
      <point x="326" y="41" type="curve" smooth="yes"/>
      <point x="274" y="41"/>
      <point x="244" y="77"/>
      <point x="228" y="125" type="curve"/>
      <point x="438" y="340" type="line"/>
      <point x="441" y="314"/>
      <point x="443" y="288"/>
      <point x="443" y="265" type="curve" smooth="yes"/>
      <point x="443" y="172"/>
      <point x="423" y="41"/>
    </contour>
    <component base="acute" xOffset="287"/>
  </outline>
</glyph>
<glyph name="schwa" format="1">
  <advance width="603"/>
  <unicode hex="0259"/>
  <outline>
    <contour>
      <point x="29" y="234" type="line"/>
      <point x="34" y="74"/>
      <point x="115" y="-10"/>
      <point x="267" y="-10" type="curve" smooth="yes"/>
      <point x="445" y="-10"/>
      <point x="567" y="105"/>
      <point x="567" y="273" type="curve" smooth="yes"/>
      <point x="567" y="432"/>
      <point x="458" y="540"/>
      <point x="292" y="540" type="curve" smooth="yes"/>
      <point x="183" y="540"/>
      <point x="88" y="489"/>
      <point x="51" y="399" type="curve" smooth="yes"/>
      <point x="46" y="387" type="line"/>
      <point x="74" y="363" type="line"/>
      <point x="81" y="371" type="line" smooth="yes"/>
      <point x="120" y="415"/>
      <point x="186" y="437"/>
      <point x="244" y="437" type="curve" smooth="yes"/>
      <point x="349" y="437"/>
      <point x="401" y="371"/>
      <point x="401" y="235" type="curve" smooth="yes"/>
      <point x="401" y="111"/>
      <point x="358" y="41"/>
      <point x="280" y="41" type="curve" smooth="yes"/>
      <point x="222" y="41"/>
      <point x="191" y="78"/>
      <point x="191" y="147" type="curve" smooth="yes"/>
      <point x="191" y="164"/>
      <point x="193" y="179"/>
      <point x="195" y="185" type="curve"/>
      <point x="474" y="195" type="line"/>
      <point x="474" y="240" type="line"/>
      <point x="37" y="240" type="line"/>
    </contour>
  </outline>
</glyph>
<glyph name="apostrophe" format="1">
  <advance width="163"/>
  <unicode hex="02BC"/>
  <outline>
    <contour>
      <point x="45" y="620" type="line"/>
      <point x="114" y="652"/>
      <point x="153" y="704"/>
      <point x="153" y="768" type="curve" smooth="yes"/>
      <point x="153" y="823"/>
      <point x="124" y="857"/>
      <point x="79" y="857" type="curve" smooth="yes"/>
      <point x="39" y="857"/>
      <point x="10" y="831"/>
      <point x="10" y="797" type="curve" smooth="yes"/>
      <point x="10" y="744"/>
      <point x="77" y="746"/>
      <point x="77" y="712" type="curve" smooth="yes"/>
      <point x="77" y="694"/>
      <point x="58" y="670"/>
      <point x="25" y="647" type="curve"/>
    </contour>
    <contour>
      <point x="68" y="651" type="move" name="_top"/>
    </contour>
  </outline>
</glyph>
<glyph name="dotaccent" format="1">
  <advance width="195"/>
  <unicode hex="02D9"/>
  <outline>
    <contour>
      <point x="10" y="696" type="curve" smooth="yes"/>
      <point x="10" y="655"/>
      <point x="40" y="614"/>
      <point x="96" y="614" type="curve" smooth="yes"/>
      <point x="155" y="614"/>
      <point x="185" y="655"/>
      <point x="185" y="696" type="curve" smooth="yes"/>
      <point x="185" y="740"/>
      <point x="151" y="779"/>
      <point x="96" y="779" type="curve" smooth="yes"/>
      <point x="42" y="779"/>
      <point x="10" y="740"/>
    </contour>
    <contour>
      <point x="96" y="614" type="move" name="_top"/>
    </contour>
  </outline>
</glyph>
<glyph name="ring" format="1">
  <advance width="186"/>
  <unicode hex="02DA"/>
  <outline>
    <contour>
      <point x="93" y="651" type="curve" smooth="yes"/>
      <point x="43" y="651"/>
      <point x="10" y="687"/>
      <point x="10" y="734" type="curve" smooth="yes"/>
      <point x="10" y="781"/>
      <point x="46" y="817"/>
      <point x="93" y="817" type="curve" smooth="yes"/>
      <point x="140" y="817"/>
      <point x="176" y="781"/>
      <point x="176" y="734" type="curve" smooth="yes"/>
      <point x="176" y="687"/>
      <point x="140" y="651"/>
    </contour>
    <contour>
      <point x="60" y="734" type="curve" smooth="yes"/>
      <point x="60" y="714"/>
      <point x="73" y="701"/>
      <point x="93" y="701" type="curve" smooth="yes"/>
      <point x="113" y="701"/>
      <point x="126" y="714"/>
      <point x="126" y="734" type="curve" smooth="yes"/>
      <point x="126" y="754"/>
      <point x="113" y="767"/>
      <point x="93" y="767" type="curve" smooth="yes"/>
      <point x="73" y="767"/>
      <point x="60" y="754"/>
    </contour>
    <contour>
      <point x="93" y="651" type="move" name="_top"/>
    </contour>
  </outline>
</glyph>
<glyph name="endash" format="1">
  <advance width="741"/>
  <unicode hex="2013"/>
  <outline>
    <contour>
      <point x="670" y="213" type="line"/>
      <point x="670" y="290" type="line"/>
      <point x="71" y="290" type="line"/>
      <point x="71" y="213" type="line"/>
    </contour>
  </outline>
</glyph>
<glyph name="emdash" format="1">
  <advance width="1062"/>
  <unicode hex="2014"/>
  <outline>
    <contour>
      <point x="991" y="213" type="line"/>
      <point x="991" y="290" type="line"/>
      <point x="71" y="290" type="line"/>
      <point x="71" y="213" type="line"/>
    </contour>
  </outline>
</glyph>
<glyph name="quoteleft" format="1">
  <advance width="260"/>
  <unicode hex="2018"/>
  <outline>
    <contour>
      <point x="175" y="830" type="line"/>
      <point x="92" y="786"/>
      <point x="43" y="710"/>
      <point x="43" y="624" type="curve" smooth="yes"/>
      <point x="43" y="551"/>
      <point x="77" y="506"/>
      <point x="132" y="506" type="curve" smooth="yes"/>
      <point x="181" y="506"/>
      <point x="217" y="539"/>
      <point x="217" y="584" type="curve" smooth="yes"/>
      <point x="217" y="656"/>
      <point x="123" y="649"/>
      <point x="123" y="696" type="curve" smooth="yes"/>
      <point x="123" y="723"/>
      <point x="155" y="765"/>
      <point x="199" y="797" type="curve"/>
    </contour>
  </outline>
</glyph>
<glyph name="quoteright" format="1">
  <advance width="258"/>
  <unicode hex="2019"/>
  <outline>
    <contour>
      <point x="87" y="506" type="line"/>
      <point x="170" y="550"/>
      <point x="219" y="626"/>
      <point x="219" y="712" type="curve" smooth="yes"/>
      <point x="219" y="785"/>
      <point x="185" y="830"/>
      <point x="130" y="830" type="curve" smooth="yes"/>
      <point x="81" y="830"/>
      <point x="45" y="797"/>
      <point x="45" y="752" type="curve" smooth="yes"/>
      <point x="45" y="680"/>
      <point x="139" y="687"/>
      <point x="139" y="640" type="curve" smooth="yes"/>
      <point x="139" y="613"/>
      <point x="107" y="571"/>
      <point x="63" y="539" type="curve"/>
    </contour>
  </outline>
</glyph>
<glyph name="quotedblleft" format="1">
  <advance width="482"/>
  <unicode hex="201C"/>
  <outline>
    <contour>
      <point x="175" y="830" type="line"/>
      <point x="92" y="786"/>
      <point x="43" y="710"/>
      <point x="43" y="624" type="curve" smooth="yes"/>
      <point x="43" y="551"/>
      <point x="77" y="506"/>
      <point x="132" y="506" type="curve" smooth="yes"/>
      <point x="181" y="506"/>
      <point x="217" y="539"/>
      <point x="217" y="584" type="curve" smooth="yes"/>
      <point x="217" y="656"/>
      <point x="123" y="649"/>
      <point x="123" y="696" type="curve" smooth="yes"/>
      <point x="123" y="723"/>
      <point x="155" y="765"/>
      <point x="199" y="797" type="curve"/>
    </contour>
    <contour>
      <point x="397" y="830" type="line"/>
      <point x="314" y="786"/>
      <point x="265" y="710"/>
      <point x="265" y="624" type="curve" smooth="yes"/>
      <point x="265" y="551"/>
      <point x="299" y="506"/>
      <point x="354" y="506" type="curve" smooth="yes"/>
      <point x="403" y="506"/>
      <point x="439" y="539"/>
      <point x="439" y="584" type="curve" smooth="yes"/>
      <point x="439" y="656"/>
      <point x="345" y="649"/>
      <point x="345" y="696" type="curve" smooth="yes"/>
      <point x="345" y="723"/>
      <point x="377" y="765"/>
      <point x="421" y="797" type="curve"/>
    </contour>
  </outline>
</glyph>
<glyph name="dagger" format="1">
  <advance width="495"/>
  <unicode hex="2020"/>
  <outline>
    <contour>
      <point x="229" y="-136" type="line"/>
      <point x="217" y="90"/>
      <point x="202" y="206"/>
      <point x="170" y="311" type="curve"/>
      <point x="193" y="376"/>
      <point x="209" y="454"/>
      <point x="221" y="562" type="curve"/>
      <point x="139" y="562"/>
      <point x="122" y="538"/>
      <point x="88" y="538" type="curve" smooth="yes"/>
      <point x="55" y="538"/>
      <point x="30" y="560"/>
      <point x="30" y="590" type="curve" smooth="yes"/>
      <point x="30" y="619"/>
      <point x="55" y="639"/>
      <point x="89" y="639" type="curve" smooth="yes"/>
      <point x="101" y="639"/>
      <point x="116" y="635"/>
      <point x="158" y="619" type="curve" smooth="yes"/>
      <point x="176" y="612"/>
      <point x="204" y="603"/>
      <point x="221" y="600" type="curve"/>
      <point x="221" y="612" type="line" smooth="yes"/>
      <point x="221" y="677"/>
      <point x="198" y="735"/>
      <point x="198" y="774" type="curve" smooth="yes"/>
      <point x="198" y="808"/>
      <point x="217" y="829"/>
      <point x="247" y="829" type="curve" smooth="yes"/>
      <point x="279" y="829"/>
      <point x="298" y="808"/>
      <point x="298" y="774" type="curve" smooth="yes"/>
      <point x="298" y="736"/>
      <point x="275" y="676"/>
      <point x="275" y="612" type="curve" smooth="yes"/>
      <point x="275" y="602" type="line"/>
      <point x="283" y="603"/>
      <point x="309" y="610"/>
      <point x="334" y="619" type="curve" smooth="yes"/>
      <point x="381" y="635"/>
      <point x="396" y="639"/>
      <point x="407" y="639" type="curve" smooth="yes"/>
      <point x="442" y="639"/>
      <point x="466" y="618"/>
      <point x="466" y="589" type="curve" smooth="yes"/>
      <point x="466" y="560"/>
      <point x="442" y="538"/>
      <point x="409" y="538" type="curve" smooth="yes"/>
      <point x="374" y="538"/>
      <point x="357" y="562"/>
      <point x="275" y="562" type="curve"/>
      <point x="285" y="459"/>
      <point x="301" y="381"/>
      <point x="326" y="311" type="curve"/>
      <point x="293" y="205"/>
      <point x="277" y="88"/>
      <point x="267" y="-136" type="curve"/>
    </contour>
  </outline>
</glyph>
<glyph name="daggerdbl" format="1">
  <advance width="526"/>
  <unicode hex="2021"/>
  <outline>
    <contour>
      <point x="341" y="346" type="curve"/>
      <point x="316" y="286"/>
      <point x="300" y="219"/>
      <point x="290" y="130" type="curve"/>
      <point x="372" y="130"/>
      <point x="389" y="154"/>
      <point x="424" y="154" type="curve" smooth="yes"/>
      <point x="457" y="154"/>
      <point x="481" y="132"/>
      <point x="481" y="103" type="curve" smooth="yes"/>
      <point x="481" y="74"/>
      <point x="457" y="53"/>
      <point x="425" y="53" type="curve" smooth="yes"/>
      <point x="412" y="53"/>
      <point x="400" y="56"/>
      <point x="349" y="73" type="curve" smooth="yes"/>
      <point x="324" y="81"/>
      <point x="298" y="89"/>
      <point x="290" y="90" type="curve"/>
      <point x="290" y="80" type="line" smooth="yes"/>
      <point x="290" y="16"/>
      <point x="313" y="-44"/>
      <point x="313" y="-82" type="curve" smooth="yes"/>
      <point x="313" y="-116"/>
      <point x="294" y="-137"/>
      <point x="262" y="-137" type="curve" smooth="yes"/>
      <point x="232" y="-137"/>
      <point x="213" y="-116"/>
      <point x="213" y="-82" type="curve" smooth="yes"/>
      <point x="213" y="-43"/>
      <point x="236" y="15"/>
      <point x="236" y="80" type="curve" smooth="yes"/>
      <point x="236" y="92" type="line"/>
      <point x="219" y="89"/>
      <point x="191" y="80"/>
      <point x="173" y="73" type="curve" smooth="yes"/>
      <point x="123" y="54"/>
      <point x="117" y="53"/>
      <point x="104" y="53" type="curve" smooth="yes"/>
      <point x="70" y="53"/>
      <point x="45" y="73"/>
      <point x="45" y="102" type="curve" smooth="yes"/>
      <point x="45" y="132"/>
      <point x="70" y="154"/>
      <point x="103" y="154" type="curve" smooth="yes"/>
      <point x="137" y="154"/>
      <point x="154" y="130"/>
      <point x="236" y="130" type="curve"/>
      <point x="224" y="224"/>
      <point x="208" y="291"/>
      <point x="185" y="346" type="curve"/>
      <point x="208" y="401"/>
      <point x="224" y="468"/>
      <point x="236" y="562" type="curve"/>
      <point x="154" y="562"/>
      <point x="137" y="538"/>
      <point x="103" y="538" type="curve" smooth="yes"/>
      <point x="70" y="538"/>
      <point x="45" y="560"/>
      <point x="45" y="590" type="curve" smooth="yes"/>
      <point x="45" y="619"/>
      <point x="70" y="639"/>
      <point x="104" y="639" type="curve" smooth="yes"/>
      <point x="116" y="639"/>
      <point x="130" y="636"/>
      <point x="173" y="619" type="curve" smooth="yes"/>
      <point x="191" y="612"/>
      <point x="219" y="603"/>
      <point x="236" y="600" type="curve"/>
      <point x="236" y="612" type="line" smooth="yes"/>
      <point x="236" y="677"/>
      <point x="213" y="735"/>
      <point x="213" y="774" type="curve" smooth="yes"/>
      <point x="213" y="808"/>
      <point x="232" y="829"/>
      <point x="262" y="829" type="curve" smooth="yes"/>
      <point x="294" y="829"/>
      <point x="313" y="808"/>
      <point x="313" y="774" type="curve" smooth="yes"/>
      <point x="313" y="736"/>
      <point x="290" y="676"/>
      <point x="290" y="612" type="curve" smooth="yes"/>
      <point x="290" y="602" type="line"/>
      <point x="298" y="603"/>
      <point x="324" y="610"/>
      <point x="349" y="619" type="curve" smooth="yes"/>
      <point x="400" y="637"/>
      <point x="410" y="639"/>
      <point x="422" y="639" type="curve" smooth="yes"/>
      <point x="457" y="639"/>
      <point x="481" y="618"/>
      <point x="481" y="589" type="curve" smooth="yes"/>
      <point x="481" y="560"/>
      <point x="457" y="538"/>
      <point x="424" y="538" type="curve" smooth="yes"/>
      <point x="389" y="538"/>
      <point x="372" y="562"/>
      <point x="290" y="562" type="curve"/>
      <point x="300" y="473"/>
      <point x="316" y="406"/>
    </contour>
  </outline>
</glyph>
<glyph name="bullet" format="1">
  <advance width="432"/>
  <unicode hex="2022"/>
  <outline>
    <contour>
      <point x="72" y="374" type="curve" smooth="yes" name="hr00"/>
      <point x="72" y="298"/>
      <point x="138" y="236"/>
      <point x="217" y="236" type="curve" smooth="yes"/>
      <point x="296" y="236"/>
      <point x="361" y="298"/>
      <point x="361" y="374" type="curve" smooth="yes"/>
      <point x="361" y="450"/>
      <point x="296" y="512"/>
      <point x="217" y="512" type="curve" smooth="yes"/>
      <point x="138" y="512"/>
      <point x="72" y="450"/>
    </contour>
  </outline>
</glyph>
<glyph name="perthousand" format="1">
  <advance width="1372"/>
  <unicode hex="2030"/>
  <outline>
    <contour>
      <point x="229" y="783" type="curve" smooth="yes"/>
      <point x="121" y="783"/>
      <point x="35" y="685"/>
      <point x="35" y="563" type="curve" smooth="yes"/>
      <point x="35" y="442"/>
      <point x="120" y="347"/>
      <point x="229" y="347" type="curve" smooth="yes"/>
      <point x="338" y="347"/>
      <point x="424" y="442"/>
      <point x="424" y="563" type="curve" smooth="yes"/>
      <point x="424" y="684"/>
      <point x="337" y="783"/>
    </contour>
    <contour>
      <point x="229" y="742" type="curve" smooth="yes"/>
      <point x="262" y="742"/>
      <point x="274" y="708"/>
      <point x="274" y="563" type="curve" smooth="yes"/>
      <point x="274" y="418"/>
      <point x="262" y="389"/>
      <point x="229" y="389" type="curve" smooth="yes"/>
      <point x="197" y="389"/>
      <point x="185" y="418"/>
      <point x="185" y="563" type="curve" smooth="yes"/>
      <point x="185" y="708"/>
      <point x="197" y="742"/>
    </contour>
    <contour>
      <point x="712" y="426" type="curve" smooth="yes"/>
      <point x="604" y="426"/>
      <point x="518" y="328"/>
      <point x="518" y="206" type="curve" smooth="yes"/>
      <point x="518" y="85"/>
      <point x="603" y="-10"/>
      <point x="712" y="-10" type="curve" smooth="yes"/>
      <point x="821" y="-10"/>
      <point x="907" y="85"/>
      <point x="907" y="206" type="curve" smooth="yes"/>
      <point x="907" y="327"/>
      <point x="820" y="426"/>
    </contour>
    <contour>
      <point x="712" y="385" type="curve" smooth="yes"/>
      <point x="745" y="385"/>
      <point x="757" y="351"/>
      <point x="757" y="206" type="curve" smooth="yes"/>
      <point x="757" y="61"/>
      <point x="745" y="32"/>
      <point x="712" y="32" type="curve" smooth="yes"/>
      <point x="680" y="32"/>
      <point x="668" y="61"/>
      <point x="668" y="206" type="curve" smooth="yes"/>
      <point x="668" y="351"/>
      <point x="680" y="385"/>
    </contour>
    <contour>
      <point x="292" y="0" type="line"/>
      <point x="757" y="770" type="line"/>
      <point x="652" y="770" type="line"/>
      <point x="188" y="0" type="line"/>
    </contour>
    <contour>
      <point x="1143" y="426" type="curve" smooth="yes"/>
      <point x="1035" y="426"/>
      <point x="949" y="328"/>
      <point x="949" y="206" type="curve" smooth="yes"/>
      <point x="949" y="85"/>
      <point x="1034" y="-10"/>
      <point x="1143" y="-10" type="curve" smooth="yes"/>
      <point x="1252" y="-10"/>
      <point x="1338" y="85"/>
      <point x="1338" y="206" type="curve" smooth="yes"/>
      <point x="1338" y="327"/>
      <point x="1251" y="426"/>
    </contour>
    <contour>
      <point x="1143" y="385" type="curve" smooth="yes"/>
      <point x="1176" y="385"/>
      <point x="1188" y="351"/>
      <point x="1188" y="206" type="curve" smooth="yes"/>
      <point x="1188" y="61"/>
      <point x="1176" y="32"/>
      <point x="1143" y="32" type="curve" smooth="yes"/>
      <point x="1111" y="32"/>
      <point x="1099" y="61"/>
      <point x="1099" y="206" type="curve" smooth="yes"/>
      <point x="1099" y="351"/>
      <point x="1111" y="385"/>
    </contour>
  </outline>
</glyph>
<glyph name="guilsinglright" format="1">
  <advance width="296"/>
  <unicode hex="203A"/>
  <outline>
    <contour>
      <point x="68" y="68" type="line"/>
      <point x="124" y="246" type="line"/>
      <point x="70" y="423" type="line"/>
      <point x="100" y="436" type="line"/>
      <point x="247" y="255" type="line"/>
      <point x="247" y="236" type="line"/>
      <point x="98" y="53" type="line"/>
    </contour>
  </outline>
</glyph>
<glyph name="zerosuperior" format="1">
  <advance width="497"/>
  <unicode hex="2070"/>
  <outline>
    <contour>
      <point x="248" y="928" type="curve" smooth="yes"/>
      <point x="128" y="928"/>
      <point x="34" y="814"/>
      <point x="34" y="668" type="curve" smooth="yes"/>
      <point x="34" y="523"/>
      <point x="127" y="412"/>
      <point x="248" y="412" type="curve" smooth="yes"/>
      <point x="369" y="412"/>
      <point x="463" y="523"/>
      <point x="463" y="668" type="curve" smooth="yes"/>
      <point x="463" y="813"/>
      <point x="368" y="928"/>
    </contour>
    <contour>
      <point x="248" y="887" type="curve" smooth="yes"/>
      <point x="288" y="887"/>
      <point x="303" y="845"/>
      <point x="303" y="668" type="curve" smooth="yes"/>
      <point x="303" y="491"/>
      <point x="288" y="454"/>
      <point x="248" y="454" type="curve" smooth="yes"/>
      <point x="209" y="454"/>
      <point x="194" y="491"/>
      <point x="194" y="668" type="curve" smooth="yes"/>
      <point x="194" y="845"/>
      <point x="209" y="887"/>
    </contour>
  </outline>
</glyph>
<glyph name="sixsuperior" format="1">
  <advance width="469"/>
  <unicode hex="2076"/>
  <outline>
    <contour>
      <point x="240" y="412" type="curve" smooth="yes"/>
      <point x="366" y="412"/>
      <point x="451" y="478"/>
      <point x="451" y="573" type="curve" smooth="yes"/>
      <point x="451" y="662"/>
      <point x="377" y="728"/>
      <point x="278" y="728" type="curve" smooth="yes"/>
      <point x="237" y="728"/>
      <point x="206" y="716"/>
      <point x="189" y="694" type="curve"/>
      <point x="199" y="763"/>
      <point x="284" y="859"/>
      <point x="368" y="898" type="curve"/>
      <point x="346" y="926" type="line"/>
      <point x="156" y="871"/>
      <point x="32" y="741"/>
      <point x="32" y="597" type="curve" smooth="yes"/>
      <point x="32" y="482"/>
      <point x="111" y="412"/>
    </contour>
    <contour>
      <point x="247" y="454" type="curve" smooth="yes"/>
      <point x="205" y="454"/>
      <point x="178" y="500"/>
      <point x="178" y="573" type="curve" smooth="yes"/>
      <point x="178" y="598"/>
      <point x="181" y="622"/>
      <point x="187" y="642" type="curve"/>
      <point x="199" y="664"/>
      <point x="219" y="677"/>
      <point x="242" y="677" type="curve" smooth="yes"/>
      <point x="284" y="677"/>
      <point x="310" y="632"/>
      <point x="310" y="562" type="curve" smooth="yes"/>
      <point x="310" y="495"/>
      <point x="286" y="454"/>
    </contour>
  </outline>
</glyph>
<glyph name="zeroinferior" format="1">
  <advance width="498"/>
  <unicode hex="2080"/>
  <outline>
    <contour>
      <point x="248" y="354" type="curve" smooth="yes"/>
      <point x="128" y="354"/>
      <point x="34" y="240"/>
      <point x="34" y="94" type="curve" smooth="yes"/>
      <point x="34" y="-51"/>
      <point x="127" y="-162"/>
      <point x="248" y="-162" type="curve" smooth="yes"/>
      <point x="369" y="-162"/>
      <point x="463" y="-51"/>
      <point x="463" y="94" type="curve" smooth="yes"/>
      <point x="463" y="239"/>
      <point x="368" y="354"/>
    </contour>
    <contour>
      <point x="248" y="313" type="curve" smooth="yes"/>
      <point x="288" y="313"/>
      <point x="303" y="271"/>
      <point x="303" y="94" type="curve" smooth="yes"/>
      <point x="303" y="-83"/>
      <point x="288" y="-120"/>
      <point x="248" y="-120" type="curve" smooth="yes"/>
      <point x="209" y="-120"/>
      <point x="194" y="-83"/>
      <point x="194" y="94" type="curve" smooth="yes"/>
      <point x="194" y="271"/>
      <point x="209" y="313"/>
    </contour>
  </outline>
</glyph>
<glyph name="twoinferior" format="1">
  <advance width="464"/>
  <unicode hex="2082"/>
  <outline>
    <contour>
      <point x="320" y="-155" type="line"/>
      <point x="339" y="-178" type="line"/>
      <point x="367" y="-178" type="line"/>
      <point x="433" y="-5" type="line"/>
      <point x="392" y="1" type="line"/>
      <point x="372" y="-29"/>
      <point x="358" y="-50"/>
      <point x="340" y="-64" type="curve"/>
      <point x="170" y="-64" type="line"/>
      <point x="365" y="62"/>
      <point x="425" y="133"/>
      <point x="425" y="212" type="curve" smooth="yes"/>
      <point x="425" y="293"/>
      <point x="342" y="354"/>
      <point x="234" y="354" type="curve" smooth="yes"/>
      <point x="142" y="354"/>
      <point x="66" y="307"/>
      <point x="28" y="228" type="curve"/>
      <point x="66" y="213" type="line"/>
      <point x="92" y="257"/>
      <point x="144" y="289"/>
      <point x="190" y="289" type="curve" smooth="yes"/>
      <point x="243" y="289"/>
      <point x="277" y="254"/>
      <point x="277" y="199" type="curve" smooth="yes"/>
      <point x="277" y="123"/>
      <point x="208" y="38"/>
      <point x="23" y="-112" type="curve"/>
      <point x="30" y="-155" type="line"/>
    </contour>
  </outline>
</glyph>
<glyph name="threeinferior" format="1">
  <advance width="444"/>
  <unicode hex="2083"/>
  <outline>
    <contour>
      <point x="121" y="82" type="line"/>
      <point x="129" y="84"/>
      <point x="149" y="85"/>
      <point x="162" y="85" type="curve" smooth="yes"/>
      <point x="230" y="85"/>
      <point x="267" y="43"/>
      <point x="267" y="-28" type="curve" smooth="yes"/>
      <point x="267" y="-85"/>
      <point x="246" y="-117"/>
      <point x="203" y="-117" type="curve" smooth="yes"/>
      <point x="125" y="-117"/>
      <point x="153" y="-21"/>
      <point x="79" y="-21" type="curve" smooth="yes"/>
      <point x="43" y="-21"/>
      <point x="19" y="-42"/>
      <point x="19" y="-71" type="curve" smooth="yes"/>
      <point x="19" y="-122"/>
      <point x="91" y="-162"/>
      <point x="183" y="-162" type="curve" smooth="yes"/>
      <point x="312" y="-162"/>
      <point x="413" y="-84"/>
      <point x="413" y="11" type="curve" smooth="yes"/>
      <point x="413" y="86"/>
      <point x="353" y="135"/>
      <point x="263" y="142" type="curve"/>
      <point x="263" y="146" type="line"/>
      <point x="321" y="155"/>
      <point x="377" y="198"/>
      <point x="377" y="251" type="curve" smooth="yes"/>
      <point x="377" y="313"/>
      <point x="317" y="354"/>
      <point x="226" y="354" type="curve" smooth="yes"/>
      <point x="135" y="354"/>
      <point x="65" y="309"/>
      <point x="47" y="241" type="curve"/>
      <point x="78" y="231" type="line"/>
      <point x="98" y="266"/>
      <point x="141" y="290"/>
      <point x="180" y="290" type="curve" smooth="yes"/>
      <point x="220" y="290"/>
      <point x="243" y="269"/>
      <point x="243" y="236" type="curve" smooth="yes"/>
      <point x="243" y="188"/>
      <point x="189" y="139"/>
      <point x="106" y="113" type="curve"/>
    </contour>
  </outline>
</glyph>
<glyph name="fiveinferior" format="1">
  <advance width="428"/>
  <unicode hex="2085"/>
  <outline>
    <contour>
      <point x="152" y="244" type="line"/>
      <point x="342" y="244" type="line"/>
      <point x="379" y="362" type="line"/>
      <point x="346" y="374" type="line"/>
      <point x="321" y="340" type="line"/>
      <point x="112" y="340" type="line"/>
      <point x="64" y="53" type="line"/>
      <point x="103" y="53" type="line"/>
      <point x="124" y="65"/>
      <point x="146" y="71"/>
      <point x="179" y="71" type="curve" smooth="yes"/>
      <point x="243" y="71"/>
      <point x="287" y="32"/>
      <point x="287" y="-23" type="curve" smooth="yes"/>
      <point x="287" y="-78"/>
      <point x="251" y="-116"/>
      <point x="196" y="-116" type="curve" smooth="yes"/>
      <point x="110" y="-116"/>
      <point x="146" y="-25"/>
      <point x="75" y="-25" type="curve" smooth="yes"/>
      <point x="40" y="-25"/>
      <point x="14" y="-46"/>
      <point x="14" y="-75" type="curve" smooth="yes"/>
      <point x="14" y="-124"/>
      <point x="81" y="-161"/>
      <point x="173" y="-161" type="curve" smooth="yes"/>
      <point x="305" y="-161"/>
      <point x="403" y="-83"/>
      <point x="403" y="22" type="curve" smooth="yes"/>
      <point x="403" y="112"/>
      <point x="323" y="174"/>
      <point x="200" y="174" type="curve" smooth="yes"/>
      <point x="182" y="174"/>
      <point x="159" y="171"/>
      <point x="141" y="165" type="curve"/>
    </contour>
  </outline>
</glyph>
<glyph name="sixinferior" format="1">
  <advance width="469"/>
  <unicode hex="2086"/>
  <outline>
    <contour>
      <point x="240" y="-162" type="curve" smooth="yes"/>
      <point x="366" y="-162"/>
      <point x="451" y="-96"/>
      <point x="451" y="-1" type="curve" smooth="yes"/>
      <point x="451" y="88"/>
      <point x="377" y="154"/>
      <point x="278" y="154" type="curve" smooth="yes"/>
      <point x="237" y="154"/>
      <point x="206" y="142"/>
      <point x="189" y="120" type="curve"/>
      <point x="199" y="189"/>
      <point x="284" y="285"/>
      <point x="368" y="324" type="curve"/>
      <point x="346" y="352" type="line"/>
      <point x="156" y="297"/>
      <point x="32" y="167"/>
      <point x="32" y="23" type="curve" smooth="yes"/>
      <point x="32" y="-92"/>
      <point x="111" y="-162"/>
    </contour>
    <contour>
      <point x="247" y="-120" type="curve" smooth="yes"/>
      <point x="205" y="-120"/>
      <point x="178" y="-74"/>
      <point x="178" y="-1" type="curve" smooth="yes"/>
      <point x="178" y="24"/>
      <point x="181" y="48"/>
      <point x="187" y="68" type="curve"/>
      <point x="199" y="90"/>
      <point x="219" y="103"/>
      <point x="242" y="103" type="curve" smooth="yes"/>
      <point x="284" y="103"/>
      <point x="310" y="58"/>
      <point x="310" y="-12" type="curve" smooth="yes"/>
      <point x="310" y="-79"/>
      <point x="286" y="-120"/>
    </contour>
  </outline>
</glyph>
<glyph name="eightinferior" format="1">
  <advance width="487"/>
  <unicode hex="2088"/>
  <outline>
    <contour>
      <point x="327" y="134" type="curve"/>
      <point x="393" y="157"/>
      <point x="428" y="194"/>
      <point x="428" y="241" type="curve" smooth="yes"/>
      <point x="428" y="309"/>
      <point x="355" y="354"/>
      <point x="246" y="354" type="curve" smooth="yes"/>
      <point x="130" y="354"/>
      <point x="56" y="302"/>
      <point x="56" y="220" type="curve" smooth="yes"/>
      <point x="56" y="166"/>
      <point x="85" y="124"/>
      <point x="144" y="89" type="curve"/>
      <point x="68" y="61"/>
      <point x="32" y="23"/>
      <point x="32" y="-27" type="curve" smooth="yes"/>
      <point x="32" y="-105"/>
      <point x="103" y="-162"/>
      <point x="239" y="-162" type="curve" smooth="yes"/>
      <point x="366" y="-162"/>
      <point x="455" y="-98"/>
      <point x="455" y="-8" type="curve" smooth="yes"/>
      <point x="455" y="50"/>
      <point x="417" y="93"/>
    </contour>
    <contour>
      <point x="276" y="152" type="curve"/>
      <point x="198" y="185"/>
      <point x="167" y="213"/>
      <point x="167" y="252" type="curve" smooth="yes"/>
      <point x="167" y="290"/>
      <point x="195" y="313"/>
      <point x="240" y="313" type="curve" smooth="yes"/>
      <point x="290" y="313"/>
      <point x="320" y="286"/>
      <point x="320" y="241" type="curve" smooth="yes"/>
      <point x="320" y="208"/>
      <point x="305" y="178"/>
    </contour>
    <contour>
      <point x="189" y="69" type="curve"/>
      <point x="292" y="33"/>
      <point x="336" y="-2"/>
      <point x="336" y="-47" type="curve" smooth="yes"/>
      <point x="336" y="-91"/>
      <point x="300" y="-120"/>
      <point x="247" y="-120" type="curve" smooth="yes"/>
      <point x="186" y="-120"/>
      <point x="153" y="-84"/>
      <point x="153" y="-19" type="curve" smooth="yes"/>
      <point x="153" y="22"/>
      <point x="166" y="54"/>
    </contour>
  </outline>
</glyph>
<glyph name="trademark" format="1">
  <advance width="903"/>
  <unicode hex="2122"/>
  <outline>
    <contour>
      <point x="424" y="494" type="line"/>
      <point x="388" y="486" type="line"/>
      <point x="388" y="462" type="line"/>
      <point x="495" y="462" type="line"/>
      <point x="495" y="486" type="line"/>
      <point x="460" y="494" type="line"/>
      <point x="460" y="716" type="line"/>
      <point x="464" y="716" type="line"/>
      <point x="553" y="458" type="line"/>
      <point x="624" y="458" type="line"/>
      <point x="719" y="699" type="line"/>
      <point x="719" y="494" type="line"/>
      <point x="683" y="486" type="line"/>
      <point x="683" y="462" type="line"/>
      <point x="837" y="462" type="line"/>
      <point x="837" y="486" type="line"/>
      <point x="801" y="494" type="line"/>
      <point x="801" y="737" type="line"/>
      <point x="837" y="745" type="line"/>
      <point x="837" y="770" type="line"/>
      <point x="703" y="770" type="line"/>
      <point x="613" y="533" type="line"/>
      <point x="609" y="533" type="line"/>
      <point x="532" y="770" type="line"/>
      <point x="388" y="770" type="line"/>
      <point x="388" y="745" type="line"/>
      <point x="424" y="737" type="line"/>
    </contour>
    <contour>
      <point x="178" y="494" type="line"/>
      <point x="134" y="486" type="line"/>
      <point x="134" y="462" type="line"/>
      <point x="309" y="462" type="line"/>
      <point x="309" y="486" type="line"/>
      <point x="265" y="494" type="line"/>
      <point x="265" y="738" type="line"/>
      <point x="314" y="738" type="line"/>
      <point x="351" y="666" type="line"/>
      <point x="376" y="666" type="line"/>
      <point x="361" y="770" type="line"/>
      <point x="81" y="770" type="line"/>
      <point x="66" y="666" type="line"/>
      <point x="91" y="666" type="line"/>
      <point x="128" y="738" type="line"/>
      <point x="178" y="738" type="line"/>
    </contour>
  </outline>
</glyph>
<glyph name="uni2215" format="1">
  <advance width="505"/>
  <unicode hex="2215"/>
  <outline>
    <contour>
      <point x="82" y="0" type="line"/>
      <point x="527" y="770" type="line"/>
      <point x="422" y="770" type="line"/>
      <point x="-22" y="0" type="line"/>
    </contour>
  </outline>
</glyph>
<glyph name="commaaccent" format="1">
  <advance width="155"/>
  <unicode hex="F6C3"/>
  <outline>
    <contour>
      <point x="46" y="-260" type="line"/>
      <point x="109" y="-233"/>
      <point x="145" y="-186"/>
      <point x="145" y="-130" type="curve" smooth="yes"/>
      <point x="145" y="-82"/>
      <point x="119" y="-52"/>
      <point x="77" y="-52" type="curve" smooth="yes"/>
      <point x="38" y="-52"/>
      <point x="10" y="-75"/>
      <point x="10" y="-105" type="curve" smooth="yes"/>
      <point x="10" y="-148"/>
      <point x="57" y="-149"/>
      <point x="57" y="-178" type="curve" smooth="yes"/>
      <point x="57" y="-193"/>
      <point x="43" y="-217"/>
      <point x="23" y="-236" type="curve"/>
    </contour>
    <contour>
      <point x="77" y="0" type="move" name="_bottom"/>
    </contour>
  </outline>
</glyph>
<glyph name="f_l" format="1">
  <advance width="750"/>
  <unicode hex="FB02"/>
  <outline>
    <contour>
      <point x="14" y="483" type="line"/>
      <point x="116" y="483" type="line"/>
      <point x="116" y="55" type="line"/>
      <point x="31" y="35" type="line"/>
      <point x="31" y="0" type="line"/>
      <point x="374" y="0" type="line"/>
      <point x="374" y="35" type="line"/>
      <point x="271" y="55" type="line"/>
      <point x="271" y="483" type="line"/>
      <point x="496" y="483" type="line"/>
      <point x="496" y="55" type="line"/>
      <point x="411" y="35" type="line"/>
      <point x="411" y="0" type="line"/>
      <point x="731" y="0" type="line"/>
      <point x="731" y="35" type="line"/>
      <point x="651" y="55" type="line"/>
      <point x="651" y="727" type="line" smooth="yes"/>
      <point x="651" y="788"/>
      <point x="562" y="829"/>
      <point x="432" y="829" type="curve" smooth="yes"/>
      <point x="283" y="829"/>
      <point x="173" y="775"/>
      <point x="133" y="682" type="curve" smooth="yes"/>
      <point x="120" y="653"/>
      <point x="116" y="622"/>
      <point x="116" y="530" type="curve"/>
      <point x="28" y="530" type="line"/>
    </contour>
    <contour>
      <point x="271" y="564" type="line" smooth="yes"/>
      <point x="271" y="658"/>
      <point x="273" y="687"/>
      <point x="283" y="710" type="curve" smooth="yes"/>
      <point x="300" y="751"/>
      <point x="343" y="776"/>
      <point x="398" y="776" type="curve" smooth="yes"/>
      <point x="460" y="776"/>
      <point x="496" y="743"/>
      <point x="496" y="676" type="curve" smooth="yes"/>
      <point x="496" y="530" type="line"/>
      <point x="271" y="530" type="line"/>
    </contour>
  </outline>
</glyph>
<glyph name="f_f_i" format="1">
  <advance width="1128"/>
  <unicode hex="FB03"/>
  <outline>
    <contour>
      <point x="14" y="483" type="line"/>
      <point x="116" y="483" type="line"/>
      <point x="116" y="55" type="line"/>
      <point x="31" y="35" type="line"/>
      <point x="31" y="0" type="line"/>
      <point x="374" y="0" type="line"/>
      <point x="374" y="35" type="line"/>
      <point x="271" y="55" type="line"/>
      <point x="271" y="483" type="line"/>
      <point x="497" y="483" type="line"/>
      <point x="497" y="55" type="line"/>
      <point x="412" y="35" type="line"/>
      <point x="412" y="0" type="line"/>
      <point x="755" y="0" type="line"/>
      <point x="755" y="35" type="line"/>
      <point x="652" y="55" type="line"/>
      <point x="652" y="483" type="line"/>
      <point x="792" y="483" type="line"/>
      <point x="877" y="441" type="line"/>
      <point x="877" y="55" type="line"/>
      <point x="792" y="35" type="line"/>
      <point x="792" y="0" type="line"/>
      <point x="1112" y="0" type="line"/>
      <point x="1112" y="35" type="line"/>
      <point x="1032" y="55" type="line"/>
      <point x="1032" y="550" type="line"/>
      <point x="1009" y="550" type="line"/>
      <point x="792" y="530" type="line"/>
      <point x="652" y="530" type="line"/>
      <point x="652" y="564" type="line" smooth="yes"/>
      <point x="652" y="656"/>
      <point x="654" y="685"/>
      <point x="664" y="710" type="curve" smooth="yes"/>
      <point x="680" y="752"/>
      <point x="723" y="776"/>
      <point x="787" y="776" type="curve" smooth="yes"/>
      <point x="835" y="776"/>
      <point x="847" y="766"/>
      <point x="870" y="706" type="curve" smooth="yes"/>
      <point x="888" y="657"/>
      <point x="920" y="632"/>
      <point x="963" y="632" type="curve" smooth="yes"/>
      <point x="1008" y="632"/>
      <point x="1039" y="663"/>
      <point x="1039" y="707" type="curve" smooth="yes"/>
      <point x="1039" y="780"/>
      <point x="946" y="829"/>
      <point x="808" y="829" type="curve" smooth="yes"/>
      <point x="706" y="829"/>
      <point x="620" y="801"/>
      <point x="565" y="752" type="curve"/>
      <point x="528" y="770"/>
      <point x="473" y="780"/>
      <point x="408" y="780" type="curve" smooth="yes"/>
      <point x="278" y="780"/>
      <point x="170" y="722"/>
      <point x="133" y="633" type="curve" smooth="yes"/>
      <point x="123" y="610"/>
      <point x="118" y="585"/>
      <point x="116" y="530" type="curve"/>
      <point x="28" y="530" type="line"/>
    </contour>
    <contour>
      <point x="271" y="530" type="line"/>
      <point x="271" y="589"/>
      <point x="272" y="633"/>
      <point x="283" y="661" type="curve" smooth="yes"/>
      <point x="300" y="708"/>
      <point x="344" y="727"/>
      <point x="389" y="727" type="curve" smooth="yes"/>
      <point x="458" y="727"/>
      <point x="488" y="685"/>
      <point x="499" y="605" type="curve"/>
      <point x="498" y="585"/>
      <point x="497" y="561"/>
      <point x="497" y="530" type="curve"/>
    </contour>
  </outline>
</glyph>
<glyph name="Euro.tnum" format="1">
  <advance width="600"/>
  <outline>
    <contour>
      <point x="357" y="-10" type="curve" smooth="yes" name="hr00"/>
      <point x="465" y="-10"/>
      <point x="554" y="58"/>
      <point x="554" y="145" type="curve" smooth="yes"/>
      <point x="554" y="186"/>
      <point x="534" y="207"/>
      <point x="499" y="207" type="curve" smooth="yes"/>
      <point x="447" y="207"/>
      <point x="435" y="162"/>
      <point x="429" y="139" type="curve" smooth="yes"/>
      <point x="418" y="97"/>
      <point x="402" y="49"/>
      <point x="352" y="49" type="curve" smooth="yes"/>
      <point x="290" y="49"/>
      <point x="261" y="124"/>
      <point x="261" y="374" type="curve" smooth="yes"/>
      <point x="261" y="649"/>
      <point x="296" y="720"/>
      <point x="363" y="720" type="curve" smooth="yes"/>
      <point x="406" y="720"/>
      <point x="422" y="691"/>
      <point x="434" y="640" type="curve" smooth="yes"/>
      <point x="441" y="609"/>
      <point x="456" y="572"/>
      <point x="500" y="572" type="curve" smooth="yes"/>
      <point x="533" y="572"/>
      <point x="554" y="594"/>
      <point x="554" y="633" type="curve" smooth="yes"/>
      <point x="554" y="714"/>
      <point x="466" y="780"/>
      <point x="361" y="780" type="curve" smooth="yes"/>
      <point x="193" y="780"/>
      <point x="78" y="612"/>
      <point x="78" y="381" type="curve" smooth="yes"/>
      <point x="78" y="153"/>
      <point x="190" y="-10"/>
    </contour>
    <contour>
      <point x="451" y="411" type="line"/>
      <point x="461" y="475" type="line"/>
      <point x="30" y="475" type="line"/>
      <point x="20" y="411" type="line"/>
    </contour>
    <contour>
      <point x="431" y="290" type="line"/>
      <point x="441" y="354" type="line"/>
      <point x="10" y="354" type="line"/>
      <point x="0" y="290" type="line"/>
    </contour>
  </outline>
</glyph>
<glyph name="acute.cap" format="1">
  <advance width="261"/>
  <outline>
    <contour>
      <point x="10" y="845" type="line"/>
      <point x="135" y="939" type="line" smooth="yes"/>
      <point x="158" y="956"/>
      <point x="179" y="963"/>
      <point x="196" y="963" type="curve" smooth="yes"/>
      <point x="230" y="963"/>
      <point x="251" y="937"/>
      <point x="251" y="909" type="curve" smooth="yes"/>
      <point x="251" y="884"/>
      <point x="234" y="857"/>
      <point x="192" y="849" type="curve" smooth="yes"/>
      <point x="27" y="817" type="line"/>
    </contour>
    <contour>
      <point x="100" y="830" type="move" name="_topcap"/>
    </contour>
  </outline>
</glyph>
<glyph name="breve.cap" format="1">
  <advance width="324"/>
  <outline>
    <contour>
      <point x="60" y="965" type="line"/>
      <point x="76" y="942"/>
      <point x="117" y="933"/>
      <point x="161" y="933" type="curve" smooth="yes"/>
      <point x="203" y="933"/>
      <point x="243" y="942"/>
      <point x="265" y="965" type="curve"/>
      <point x="314" y="965" type="line"/>
      <point x="280" y="843"/>
      <point x="203" y="829"/>
      <point x="157" y="829" type="curve" smooth="yes"/>
      <point x="95" y="829"/>
      <point x="22" y="863"/>
      <point x="10" y="965" type="curve"/>
    </contour>
    <contour>
      <point x="157" y="829" type="move" name="_topcap"/>
    </contour>
  </outline>
</glyph>
<glyph name="c_t" format="1">
  <advance width="966"/>
  <outline>
    <contour>
      <point x="305" y="-10" type="curve" smooth="yes"/>
      <point x="413" y="-10"/>
      <point x="491" y="37"/>
      <point x="531" y="133" type="curve" smooth="yes"/>
      <point x="536" y="145" type="line"/>
      <point x="508" y="167" type="line"/>
      <point x="501" y="159" type="line" smooth="yes"/>
      <point x="464" y="116"/>
      <point x="413" y="93"/>
      <point x="353" y="93" type="curve" smooth="yes"/>
      <point x="254" y="93"/>
      <point x="204" y="161"/>
      <point x="204" y="289" type="curve" smooth="yes"/>
      <point x="204" y="416"/>
      <point x="253" y="488"/>
      <point x="337" y="488" type="curve" smooth="yes"/>
      <point x="391" y="488"/>
      <point x="404" y="452"/>
      <point x="410" y="405" type="curve" smooth="yes"/>
      <point x="414" y="375"/>
      <point x="426" y="340"/>
      <point x="476" y="340" type="curve" smooth="yes"/>
      <point x="517" y="340"/>
      <point x="543" y="366"/>
      <point x="543" y="407" type="curve" smooth="yes"/>
      <point x="543" y="445"/>
      <point x="518" y="475"/>
      <point x="482" y="502" type="curve" smooth="yes"/>
      <point x="452" y="524"/>
      <point x="439" y="572"/>
      <point x="439" y="628" type="curve" smooth="yes"/>
      <point x="439" y="723"/>
      <point x="485" y="776"/>
      <point x="568" y="776" type="curve" smooth="yes"/>
      <point x="642" y="776"/>
      <point x="683" y="734"/>
      <point x="683" y="658" type="curve" smooth="yes"/>
      <point x="683" y="587"/>
      <point x="648" y="539"/>
      <point x="577" y="510" type="curve"/>
      <point x="583" y="480" type="line"/>
      <point x="654" y="480" type="line"/>
      <point x="654" y="132" type="line" smooth="yes"/>
      <point x="654" y="14"/>
      <point x="707" y="-10"/>
      <point x="798" y="-10" type="curve" smooth="yes"/>
      <point x="866" y="-10"/>
      <point x="923" y="14"/>
      <point x="957" y="57" type="curve"/>
      <point x="934" y="90" type="line"/>
      <point x="918" y="71"/>
      <point x="898" y="62"/>
      <point x="873" y="62" type="curve" smooth="yes"/>
      <point x="834" y="62"/>
      <point x="809" y="67"/>
      <point x="809" y="166" type="curve" smooth="yes"/>
      <point x="809" y="480" type="line"/>
      <point x="949" y="480" type="line"/>
      <point x="964" y="530" type="line"/>
      <point x="809" y="530" type="line"/>
      <point x="817" y="560"/>
      <point x="820" y="588"/>
      <point x="820" y="615" type="curve" smooth="yes"/>
      <point x="820" y="744"/>
      <point x="730" y="829"/>
      <point x="582" y="829" type="curve" smooth="yes"/>
      <point x="440" y="829"/>
      <point x="334" y="752"/>
      <point x="334" y="648" type="curve" smooth="yes"/>
      <point x="334" y="606"/>
      <point x="354" y="563"/>
      <point x="392" y="539" type="curve"/>
      <point x="392" y="535" type="line"/>
      <point x="373" y="538"/>
      <point x="353" y="540"/>
      <point x="332" y="540" type="curve" smooth="yes"/>
      <point x="159" y="540"/>
      <point x="36" y="422"/>
      <point x="36" y="258" type="curve" smooth="yes"/>
      <point x="36" y="102"/>
      <point x="148" y="-10"/>
    </contour>
  </outline>
</glyph>
<glyph name="caron.alt" format="1">
  <advance width="131"/>
  <outline>
    <contour>
      <point x="16" y="642" type="line"/>
      <point x="16" y="783" type="line" smooth="yes"/>
      <point x="16" y="833"/>
      <point x="44" y="857"/>
      <point x="83" y="857" type="curve" smooth="yes"/>
      <point x="108" y="857"/>
      <point x="121" y="842"/>
      <point x="121" y="817" type="curve" smooth="yes"/>
      <point x="121" y="802"/>
      <point x="117" y="784"/>
      <point x="108" y="765" type="curve" smooth="yes"/>
      <point x="48" y="642" type="line"/>
    </contour>
    <contour>
      <point x="34" y="651" type="move" name="_top"/>
    </contour>
  </outline>
</glyph>
<glyph name="comma.tnum" format="1">
  <advance width="300"/>
  <outline>
    <contour>
      <point x="105" y="-159" type="line"/>
      <point x="188" y="-115"/>
      <point x="237" y="-39"/>
      <point x="237" y="47" type="curve" smooth="yes"/>
      <point x="237" y="120"/>
      <point x="203" y="165"/>
      <point x="148" y="165" type="curve" smooth="yes"/>
      <point x="99" y="165"/>
      <point x="63" y="132"/>
      <point x="63" y="87" type="curve" smooth="yes"/>
      <point x="63" y="15"/>
      <point x="157" y="22"/>
      <point x="157" y="-25" type="curve" smooth="yes"/>
      <point x="157" y="-52"/>
      <point x="125" y="-94"/>
      <point x="81" y="-126" type="curve"/>
    </contour>
  </outline>
</glyph>
<glyph name="degree.tnum" format="1">
  <advance width="312"/>
  <outline>
    <contour>
      <point x="156" y="587" type="curve" smooth="yes"/>
      <point x="88" y="587"/>
      <point x="35" y="640"/>
      <point x="35" y="708" type="curve" smooth="yes"/>
      <point x="35" y="776"/>
      <point x="88" y="830"/>
      <point x="156" y="830" type="curve" smooth="yes"/>
      <point x="223" y="830"/>
      <point x="277" y="775"/>
      <point x="277" y="708" type="curve" smooth="yes"/>
      <point x="277" y="640"/>
      <point x="224" y="587"/>
    </contour>
    <contour>
      <point x="91" y="708" type="curve" smooth="yes"/>
      <point x="91" y="671"/>
      <point x="119" y="643"/>
      <point x="156" y="643" type="curve" smooth="yes"/>
      <point x="195" y="643"/>
      <point x="221" y="671"/>
      <point x="221" y="708" type="curve" smooth="yes"/>
      <point x="221" y="747"/>
      <point x="195" y="775"/>
      <point x="156" y="775" type="curve" smooth="yes"/>
      <point x="119" y="775"/>
      <point x="91" y="747"/>
    </contour>
  </outline>
</glyph>
<glyph name="dieresis.cap" format="1">
  <advance width="371"/>
  <outline>
    <contour>
      <point x="10" y="896" type="curve" smooth="yes"/>
      <point x="10" y="864"/>
      <point x="34" y="829"/>
      <point x="81" y="829" type="curve" smooth="yes"/>
      <point x="129" y="829"/>
      <point x="154" y="864"/>
      <point x="154" y="896" type="curve" smooth="yes"/>
      <point x="154" y="932"/>
      <point x="126" y="965"/>
      <point x="81" y="965" type="curve" smooth="yes"/>
      <point x="36" y="965"/>
      <point x="10" y="932"/>
    </contour>
    <contour>
      <point x="217" y="896" type="curve" smooth="yes"/>
      <point x="217" y="864"/>
      <point x="242" y="829"/>
      <point x="288" y="829" type="curve" smooth="yes"/>
      <point x="337" y="829"/>
      <point x="361" y="864"/>
      <point x="361" y="896" type="curve" smooth="yes"/>
      <point x="361" y="932"/>
      <point x="333" y="965"/>
      <point x="288" y="965" type="curve" smooth="yes"/>
      <point x="243" y="965"/>
      <point x="217" y="932"/>
    </contour>
    <contour>
      <point x="185" y="829" type="move" name="_topcap"/>
    </contour>
  </outline>
</glyph>
<glyph name="dotbelow" format="1">
  <advance width="195"/>
  <outline>
    <contour>
      <point x="10" y="-178" type="curve" smooth="yes"/>
      <point x="10" y="-219"/>
      <point x="40" y="-260"/>
      <point x="96" y="-260" type="curve" smooth="yes"/>
      <point x="155" y="-260"/>
      <point x="185" y="-219"/>
      <point x="185" y="-178" type="curve" smooth="yes"/>
      <point x="185" y="-134"/>
      <point x="151" y="-95"/>
      <point x="96" y="-95" type="curve" smooth="yes"/>
      <point x="42" y="-95"/>
      <point x="10" y="-134"/>
    </contour>
    <contour>
      <point x="96" y="0" type="move" name="_bottom"/>
    </contour>
  </outline>
</glyph>
<glyph name="eight.denominator" format="1">
  <advance width="487"/>
  <outline>
    <contour>
      <point x="327" y="289" type="curve"/>
      <point x="393" y="312"/>
      <point x="428" y="349"/>
      <point x="428" y="396" type="curve" smooth="yes"/>
      <point x="428" y="464"/>
      <point x="355" y="509"/>
      <point x="246" y="509" type="curve" smooth="yes"/>
      <point x="130" y="509"/>
      <point x="56" y="457"/>
      <point x="56" y="375" type="curve" smooth="yes"/>
      <point x="56" y="321"/>
      <point x="85" y="279"/>
      <point x="144" y="244" type="curve"/>
      <point x="68" y="216"/>
      <point x="32" y="178"/>
      <point x="32" y="128" type="curve" smooth="yes"/>
      <point x="32" y="50"/>
      <point x="103" y="-7"/>
      <point x="239" y="-7" type="curve" smooth="yes"/>
      <point x="366" y="-7"/>
      <point x="455" y="57"/>
      <point x="455" y="147" type="curve" smooth="yes"/>
      <point x="455" y="205"/>
      <point x="417" y="248"/>
    </contour>
    <contour>
      <point x="276" y="307" type="curve"/>
      <point x="198" y="340"/>
      <point x="167" y="368"/>
      <point x="167" y="407" type="curve" smooth="yes"/>
      <point x="167" y="445"/>
      <point x="195" y="468"/>
      <point x="240" y="468" type="curve" smooth="yes"/>
      <point x="290" y="468"/>
      <point x="320" y="441"/>
      <point x="320" y="396" type="curve" smooth="yes"/>
      <point x="320" y="363"/>
      <point x="305" y="333"/>
    </contour>
    <contour>
      <point x="189" y="224" type="curve"/>
      <point x="292" y="188"/>
      <point x="336" y="153"/>
      <point x="336" y="108" type="curve" smooth="yes"/>
      <point x="336" y="64"/>
      <point x="300" y="35"/>
      <point x="247" y="35" type="curve" smooth="yes"/>
      <point x="186" y="35"/>
      <point x="153" y="71"/>
      <point x="153" y="136" type="curve" smooth="yes"/>
      <point x="153" y="177"/>
      <point x="166" y="209"/>
    </contour>
  </outline>
</glyph>
<glyph name="equal.tnum" format="1">
  <advance width="600"/>
  <outline>
    <contour>
      <point x="505" y="392" type="line" name="hr00"/>
      <point x="505" y="455" type="line"/>
      <point x="95" y="455" type="line"/>
      <point x="95" y="392" type="line"/>
    </contour>
    <contour>
      <point x="505" y="231" type="line"/>
      <point x="505" y="294" type="line"/>
      <point x="95" y="294" type="line"/>
      <point x="95" y="231" type="line"/>
    </contour>
  </outline>
</glyph>
<glyph name="f_b" format="1">
  <advance width="1075"/>
  <outline>
    <contour>
      <point x="31" y="0" type="line"/>
      <point x="374" y="0" type="line"/>
      <point x="374" y="35" type="line"/>
      <point x="271" y="55" type="line"/>
      <point x="271" y="483" type="line"/>
      <point x="408" y="483" type="line"/>
      <point x="430" y="530" type="line"/>
      <point x="271" y="530" type="line"/>
      <point x="271" y="564" type="line" smooth="yes"/>
      <point x="271" y="658"/>
      <point x="273" y="687"/>
      <point x="283" y="710" type="curve" smooth="yes"/>
      <point x="300" y="751"/>
      <point x="343" y="776"/>
      <point x="398" y="776" type="curve" smooth="yes"/>
      <point x="460" y="776"/>
      <point x="496" y="743"/>
      <point x="496" y="676" type="curve" smooth="yes"/>
      <point x="496" y="0" type="line"/>
      <point x="525" y="0" type="line"/>
      <point x="611" y="36" type="line"/>
      <point x="617" y="36" type="line"/>
      <point x="660" y="6"/>
      <point x="713" y="-10"/>
      <point x="767" y="-10" type="curve" smooth="yes"/>
      <point x="920" y="-10"/>
      <point x="1038" y="118"/>
      <point x="1038" y="287" type="curve" smooth="yes"/>
      <point x="1038" y="437"/>
      <point x="948" y="540"/>
      <point x="817" y="540" type="curve" smooth="yes"/>
      <point x="753" y="540"/>
      <point x="696" y="513"/>
      <point x="651" y="469" type="curve"/>
      <point x="651" y="727" type="line" smooth="yes"/>
      <point x="651" y="788"/>
      <point x="562" y="829"/>
      <point x="432" y="829" type="curve" smooth="yes"/>
      <point x="283" y="829"/>
      <point x="173" y="775"/>
      <point x="133" y="682" type="curve" smooth="yes"/>
      <point x="120" y="653"/>
      <point x="116" y="622"/>
      <point x="116" y="530" type="curve"/>
      <point x="28" y="530" type="line"/>
      <point x="14" y="483" type="line"/>
      <point x="116" y="483" type="line"/>
      <point x="116" y="55" type="line"/>
      <point x="31" y="35" type="line"/>
    </contour>
    <contour>
      <point x="747" y="44" type="curve" smooth="yes"/>
      <point x="689" y="44"/>
      <point x="651" y="94"/>
      <point x="651" y="170" type="curve" smooth="yes"/>
      <point x="651" y="404" type="line"/>
      <point x="675" y="440"/>
      <point x="708" y="462"/>
      <point x="748" y="462" type="curve" smooth="yes"/>
      <point x="825" y="462"/>
      <point x="869" y="386"/>
      <point x="869" y="259" type="curve" smooth="yes"/>
      <point x="869" y="130"/>
      <point x="821" y="44"/>
    </contour>
  </outline>
</glyph>
<glyph name="f_f_k" format="1">
  <advance width="1445"/>
  <outline>
    <contour>
      <point x="31" y="0" type="line"/>
      <point x="374" y="0" type="line"/>
      <point x="374" y="35" type="line"/>
      <point x="271" y="55" type="line"/>
      <point x="271" y="483" type="line"/>
      <point x="497" y="483" type="line"/>
      <point x="497" y="55" type="line"/>
      <point x="412" y="35" type="line"/>
      <point x="412" y="0" type="line"/>
      <point x="755" y="0" type="line"/>
      <point x="755" y="35" type="line"/>
      <point x="652" y="55" type="line"/>
      <point x="652" y="483" type="line"/>
      <point x="808" y="483" type="line"/>
      <point x="820" y="530" type="line"/>
      <point x="652" y="530" type="line"/>
      <point x="652" y="564" type="line" smooth="yes"/>
      <point x="652" y="658"/>
      <point x="654" y="687"/>
      <point x="664" y="710" type="curve" smooth="yes"/>
      <point x="681" y="751"/>
      <point x="724" y="776"/>
      <point x="779" y="776" type="curve" smooth="yes"/>
      <point x="845" y="776"/>
      <point x="877" y="740"/>
      <point x="877" y="665" type="curve" smooth="yes"/>
      <point x="877" y="55" type="line"/>
      <point x="792" y="35" type="line"/>
      <point x="792" y="0" type="line"/>
      <point x="1119" y="0" type="line"/>
      <point x="1119" y="35" type="line"/>
      <point x="1032" y="55" type="line"/>
      <point x="1032" y="191" type="line"/>
      <point x="1084" y="245" type="line"/>
      <point x="1227" y="0" type="line"/>
      <point x="1459" y="0" type="line"/>
      <point x="1459" y="35" type="line"/>
      <point x="1377" y="55" type="line"/>
      <point x="1187" y="351" type="line"/>
      <point x="1273" y="438" type="line" smooth="yes"/>
      <point x="1306" y="471"/>
      <point x="1320" y="482"/>
      <point x="1409" y="495" type="curve"/>
      <point x="1409" y="530" type="line"/>
      <point x="1134" y="530" type="line"/>
      <point x="1134" y="495" type="line"/>
      <point x="1202" y="488"/>
      <point x="1220" y="483"/>
      <point x="1220" y="471" type="curve" smooth="yes"/>
      <point x="1220" y="463"/>
      <point x="1211" y="452"/>
      <point x="1195" y="435" type="curve" smooth="yes"/>
      <point x="1032" y="263" type="line"/>
      <point x="1032" y="727" type="line" smooth="yes"/>
      <point x="1032" y="788"/>
      <point x="943" y="829"/>
      <point x="813" y="829" type="curve" smooth="yes"/>
      <point x="707" y="829"/>
      <point x="620" y="802"/>
      <point x="565" y="752" type="curve"/>
      <point x="527" y="770"/>
      <point x="473" y="780"/>
      <point x="408" y="780" type="curve" smooth="yes"/>
      <point x="277" y="780"/>
      <point x="170" y="722"/>
      <point x="133" y="633" type="curve" smooth="yes"/>
      <point x="123" y="610"/>
      <point x="118" y="585"/>
      <point x="116" y="530" type="curve"/>
      <point x="28" y="530" type="line"/>
      <point x="14" y="483" type="line"/>
      <point x="116" y="483" type="line"/>
      <point x="116" y="55" type="line"/>
      <point x="31" y="35" type="line"/>
    </contour>
    <contour>
      <point x="271" y="530" type="line"/>
      <point x="271" y="590"/>
      <point x="273" y="633"/>
      <point x="283" y="661" type="curve" smooth="yes"/>
      <point x="301" y="708"/>
      <point x="344" y="727"/>
      <point x="389" y="727" type="curve" smooth="yes"/>
      <point x="459" y="727"/>
      <point x="497" y="680"/>
      <point x="497" y="607" type="curve" smooth="yes"/>
      <point x="497" y="530" type="line"/>
    </contour>
  </outline>
</glyph>
<glyph name="f_h" format="1">
  <advance width="1083"/>
  <outline>
    <contour>
      <point x="31" y="0" type="line"/>
      <point x="374" y="0" type="line"/>
      <point x="374" y="35" type="line"/>
      <point x="271" y="55" type="line"/>
      <point x="271" y="483" type="line"/>
      <point x="435" y="483" type="line"/>
      <point x="451" y="530" type="line"/>
      <point x="271" y="530" type="line"/>
      <point x="271" y="564" type="line" smooth="yes"/>
      <point x="271" y="658"/>
      <point x="273" y="687"/>
      <point x="283" y="710" type="curve" smooth="yes"/>
      <point x="300" y="751"/>
      <point x="343" y="776"/>
      <point x="398" y="776" type="curve" smooth="yes"/>
      <point x="460" y="776"/>
      <point x="496" y="743"/>
      <point x="496" y="676" type="curve" smooth="yes"/>
      <point x="496" y="55" type="line"/>
      <point x="421" y="35" type="line"/>
      <point x="421" y="0" type="line"/>
      <point x="721" y="0" type="line"/>
      <point x="721" y="35" type="line"/>
      <point x="651" y="55" type="line"/>
      <point x="651" y="419" type="line"/>
      <point x="675" y="443"/>
      <point x="702" y="454"/>
      <point x="736" y="454" type="curve" smooth="yes"/>
      <point x="782" y="454"/>
      <point x="809" y="434"/>
      <point x="825" y="399" type="curve" smooth="yes"/>
      <point x="834" y="379"/>
      <point x="835" y="350"/>
      <point x="835" y="279" type="curve" smooth="yes"/>
      <point x="835" y="55" type="line"/>
      <point x="765" y="35" type="line"/>
      <point x="765" y="0" type="line"/>
      <point x="1065" y="0" type="line"/>
      <point x="1065" y="35" type="line"/>
      <point x="990" y="55" type="line"/>
      <point x="990" y="318" type="line" smooth="yes"/>
      <point x="990" y="410"/>
      <point x="987" y="435"/>
      <point x="975" y="460" type="curve" smooth="yes"/>
      <point x="949" y="513"/>
      <point x="900" y="540"/>
      <point x="833" y="540" type="curve" smooth="yes"/>
      <point x="769" y="540"/>
      <point x="698" y="515"/>
      <point x="651" y="479" type="curve"/>
      <point x="651" y="727" type="line" smooth="yes"/>
      <point x="651" y="788"/>
      <point x="562" y="829"/>
      <point x="432" y="829" type="curve" smooth="yes"/>
      <point x="283" y="829"/>
      <point x="173" y="775"/>
      <point x="133" y="682" type="curve" smooth="yes"/>
      <point x="120" y="653"/>
      <point x="116" y="622"/>
      <point x="116" y="530" type="curve"/>
      <point x="28" y="530" type="line"/>
      <point x="14" y="483" type="line"/>
      <point x="116" y="483" type="line"/>
      <point x="116" y="55" type="line"/>
      <point x="31" y="35" type="line"/>
    </contour>
  </outline>
</glyph>
<glyph name="f_k" format="1">
  <advance width="1064"/>
  <outline>
    <contour>
      <point x="31" y="0" type="line"/>
      <point x="374" y="0" type="line"/>
      <point x="374" y="35" type="line"/>
      <point x="271" y="55" type="line"/>
      <point x="271" y="483" type="line"/>
      <point x="448" y="483" type="line"/>
      <point x="458" y="530" type="line"/>
      <point x="271" y="530" type="line"/>
      <point x="271" y="564" type="line" smooth="yes"/>
      <point x="271" y="658"/>
      <point x="273" y="687"/>
      <point x="283" y="710" type="curve" smooth="yes"/>
      <point x="300" y="751"/>
      <point x="343" y="776"/>
      <point x="398" y="776" type="curve" smooth="yes"/>
      <point x="464" y="776"/>
      <point x="496" y="740"/>
      <point x="496" y="665" type="curve" smooth="yes"/>
      <point x="496" y="55" type="line"/>
      <point x="411" y="35" type="line"/>
      <point x="411" y="0" type="line"/>
      <point x="738" y="0" type="line"/>
      <point x="738" y="35" type="line"/>
      <point x="651" y="55" type="line"/>
      <point x="651" y="191" type="line"/>
      <point x="703" y="245" type="line"/>
      <point x="846" y="0" type="line"/>
      <point x="1078" y="0" type="line"/>
      <point x="1078" y="35" type="line"/>
      <point x="996" y="55" type="line"/>
      <point x="806" y="351" type="line"/>
      <point x="892" y="438" type="line" smooth="yes"/>
      <point x="925" y="471"/>
      <point x="939" y="482"/>
      <point x="1028" y="495" type="curve"/>
      <point x="1028" y="530" type="line"/>
      <point x="753" y="530" type="line"/>
      <point x="753" y="495" type="line"/>
      <point x="821" y="488"/>
      <point x="839" y="483"/>
      <point x="839" y="471" type="curve" smooth="yes"/>
      <point x="839" y="463"/>
      <point x="830" y="452"/>
      <point x="814" y="435" type="curve" smooth="yes"/>
      <point x="651" y="263" type="line"/>
      <point x="651" y="727" type="line" smooth="yes"/>
      <point x="651" y="788"/>
      <point x="562" y="829"/>
      <point x="432" y="829" type="curve" smooth="yes"/>
      <point x="283" y="829"/>
      <point x="173" y="775"/>
      <point x="133" y="682" type="curve" smooth="yes"/>
      <point x="120" y="653"/>
      <point x="116" y="622"/>
      <point x="116" y="530" type="curve"/>
      <point x="28" y="530" type="line"/>
      <point x="14" y="483" type="line"/>
      <point x="116" y="483" type="line"/>
      <point x="116" y="55" type="line"/>
      <point x="31" y="35" type="line"/>
    </contour>
  </outline>
</glyph>
<glyph name="f_t" format="1">
  <advance width="806"/>
  <outline>
    <contour>
      <point x="641" y="-10" type="curve" smooth="yes"/>
      <point x="705" y="-10"/>
      <point x="764" y="13"/>
      <point x="799" y="57" type="curve"/>
      <point x="776" y="90" type="line"/>
      <point x="758" y="69"/>
      <point x="737" y="62"/>
      <point x="716" y="62" type="curve" smooth="yes"/>
      <point x="690" y="62"/>
      <point x="672" y="72"/>
      <point x="661" y="90" type="curve" smooth="yes"/>
      <point x="653" y="102"/>
      <point x="651" y="117"/>
      <point x="651" y="166" type="curve" smooth="yes"/>
      <point x="651" y="483" type="line"/>
      <point x="791" y="483" type="line"/>
      <point x="806" y="530" type="line"/>
      <point x="651" y="530" type="line"/>
      <point x="651" y="659" type="line"/>
      <point x="620" y="664" type="line"/>
      <point x="445" y="530" type="line"/>
      <point x="271" y="530" type="line"/>
      <point x="271" y="585" type="line" smooth="yes"/>
      <point x="271" y="656"/>
      <point x="272" y="702"/>
      <point x="283" y="732" type="curve" smooth="yes"/>
      <point x="296" y="768"/>
      <point x="321" y="779"/>
      <point x="349" y="779" type="curve" smooth="yes"/>
      <point x="386" y="779"/>
      <point x="394" y="760"/>
      <point x="404" y="727" type="curve" smooth="yes"/>
      <point x="411" y="705"/>
      <point x="425" y="666"/>
      <point x="474" y="666" type="curve" smooth="yes"/>
      <point x="515" y="666"/>
      <point x="543" y="693"/>
      <point x="543" y="731" type="curve" smooth="yes"/>
      <point x="543" y="791"/>
      <point x="472" y="830"/>
      <point x="373" y="830" type="curve" smooth="yes"/>
      <point x="257" y="830"/>
      <point x="162" y="777"/>
      <point x="132" y="703" type="curve" smooth="yes"/>
      <point x="119" y="672"/>
      <point x="116" y="628"/>
      <point x="116" y="530" type="curve"/>
      <point x="28" y="530" type="line"/>
      <point x="14" y="483" type="line"/>
      <point x="116" y="483" type="line"/>
      <point x="116" y="55" type="line"/>
      <point x="31" y="35" type="line"/>
      <point x="31" y="0" type="line"/>
      <point x="394" y="0" type="line"/>
      <point x="394" y="35" type="line"/>
      <point x="271" y="55" type="line"/>
      <point x="271" y="483" type="line"/>
      <point x="496" y="483" type="line"/>
      <point x="496" y="132" type="line" smooth="yes"/>
      <point x="496" y="78"/>
      <point x="504" y="40"/>
      <point x="534" y="18" type="curve" smooth="yes"/>
      <point x="559" y="0"/>
      <point x="598" y="-10"/>
    </contour>
  </outline>
</glyph>
<glyph name="five.denominator" format="1">
  <advance width="428"/>
  <outline>
    <contour>
      <point x="152" y="398" type="line"/>
      <point x="342" y="398" type="line"/>
      <point x="379" y="516" type="line"/>
      <point x="346" y="528" type="line"/>
      <point x="321" y="494" type="line"/>
      <point x="112" y="494" type="line"/>
      <point x="64" y="207" type="line"/>
      <point x="103" y="207" type="line"/>
      <point x="124" y="219"/>
      <point x="153" y="225"/>
      <point x="179" y="225" type="curve" smooth="yes"/>
      <point x="243" y="225"/>
      <point x="287" y="186"/>
      <point x="287" y="131" type="curve" smooth="yes"/>
      <point x="287" y="76"/>
      <point x="251" y="38"/>
      <point x="196" y="38" type="curve" smooth="yes"/>
      <point x="110" y="38"/>
      <point x="146" y="129"/>
      <point x="75" y="129" type="curve" smooth="yes"/>
      <point x="40" y="129"/>
      <point x="14" y="108"/>
      <point x="14" y="79" type="curve" smooth="yes"/>
      <point x="14" y="30"/>
      <point x="81" y="-7"/>
      <point x="173" y="-7" type="curve" smooth="yes"/>
      <point x="305" y="-7"/>
      <point x="403" y="71"/>
      <point x="403" y="176" type="curve" smooth="yes"/>
      <point x="403" y="266"/>
      <point x="323" y="329"/>
      <point x="200" y="329" type="curve" smooth="yes"/>
      <point x="182" y="329"/>
      <point x="159" y="325"/>
      <point x="141" y="319" type="curve"/>
    </contour>
  </outline>
</glyph>
<glyph name="five.numerator" format="1">
  <advance width="428"/>
  <outline>
    <contour>
      <point x="152" y="672" type="line"/>
      <point x="342" y="672" type="line"/>
      <point x="379" y="790" type="line"/>
      <point x="346" y="802" type="line"/>
      <point x="321" y="768" type="line"/>
      <point x="112" y="768" type="line"/>
      <point x="64" y="481" type="line"/>
      <point x="103" y="481" type="line"/>
      <point x="124" y="493"/>
      <point x="153" y="499"/>
      <point x="179" y="499" type="curve" smooth="yes"/>
      <point x="243" y="499"/>
      <point x="287" y="460"/>
      <point x="287" y="405" type="curve" smooth="yes"/>
      <point x="287" y="350"/>
      <point x="251" y="312"/>
      <point x="196" y="312" type="curve" smooth="yes"/>
      <point x="110" y="312"/>
      <point x="146" y="403"/>
      <point x="75" y="403" type="curve" smooth="yes"/>
      <point x="40" y="403"/>
      <point x="14" y="382"/>
      <point x="14" y="353" type="curve" smooth="yes"/>
      <point x="14" y="304"/>
      <point x="81" y="267"/>
      <point x="173" y="267" type="curve" smooth="yes"/>
      <point x="305" y="267"/>
      <point x="403" y="345"/>
      <point x="403" y="450" type="curve" smooth="yes"/>
      <point x="403" y="540"/>
      <point x="323" y="603"/>
      <point x="200" y="603" type="curve" smooth="yes"/>
      <point x="182" y="603"/>
      <point x="159" y="599"/>
      <point x="141" y="593" type="curve"/>
    </contour>
  </outline>
</glyph>
<glyph name="four.numerator" format="1">
  <advance width="459"/>
  <outline>
    <contour>
      <point x="224" y="316" type="line"/>
      <point x="131" y="300" type="line"/>
      <point x="131" y="274" type="line"/>
      <point x="430" y="274" type="line"/>
      <point x="430" y="300" type="line"/>
      <point x="361" y="316" type="line"/>
      <point x="361" y="397" type="line"/>
      <point x="433" y="397" type="line"/>
      <point x="433" y="463" type="line"/>
      <point x="361" y="463" type="line"/>
      <point x="361" y="777" type="line"/>
      <point x="283" y="783" type="line"/>
      <point x="1" y="440" type="line"/>
      <point x="18" y="397" type="line"/>
      <point x="224" y="397" type="line"/>
    </contour>
    <contour>
      <point x="224" y="463" type="line"/>
      <point x="89" y="463" type="line"/>
      <point x="88" y="467" type="line"/>
      <point x="220" y="630" type="line"/>
      <point x="224" y="630" type="line"/>
    </contour>
  </outline>
</glyph>
<glyph name="grave.cap" format="1">
  <advance width="261"/>
  <outline>
    <contour>
      <point x="234" y="817" type="line"/>
      <point x="69" y="849" type="line" smooth="yes"/>
      <point x="27" y="857"/>
      <point x="10" y="884"/>
      <point x="10" y="909" type="curve" smooth="yes"/>
      <point x="10" y="937"/>
      <point x="31" y="963"/>
      <point x="65" y="963" type="curve" smooth="yes"/>
      <point x="82" y="963"/>
      <point x="103" y="956"/>
      <point x="126" y="939" type="curve" smooth="yes"/>
      <point x="251" y="845" type="line"/>
    </contour>
    <contour>
      <point x="145" y="830" type="move" name="_topcap"/>
    </contour>
  </outline>
</glyph>
<glyph name="greater.tnum" format="1">
  <advance width="600"/>
  <outline>
    <contour>
      <point x="506" y="315" type="line"/>
      <point x="506" y="366" type="line"/>
      <point x="97" y="561" type="line"/>
      <point x="97" y="475" type="line"/>
      <point x="414" y="341" type="line"/>
      <point x="414" y="337" type="line"/>
      <point x="97" y="201" type="line"/>
      <point x="97" y="121" type="line"/>
    </contour>
  </outline>
</glyph>
<glyph name="hungarumlaut.cap" format="1">
  <advance width="432"/>
  <outline>
    <contour>
      <point x="10" y="841" type="line"/>
      <point x="96" y="930" type="line" smooth="yes"/>
      <point x="120" y="955"/>
      <point x="142" y="965"/>
      <point x="161" y="965" type="curve" smooth="yes"/>
      <point x="194" y="965"/>
      <point x="216" y="939"/>
      <point x="216" y="911" type="curve" smooth="yes"/>
      <point x="216" y="888"/>
      <point x="203" y="860"/>
      <point x="167" y="851" type="curve" smooth="yes"/>
      <point x="31" y="816" type="line"/>
    </contour>
    <contour>
      <point x="216" y="841" type="line"/>
      <point x="302" y="930" type="line" smooth="yes"/>
      <point x="326" y="955"/>
      <point x="348" y="965"/>
      <point x="367" y="965" type="curve" smooth="yes"/>
      <point x="400" y="965"/>
      <point x="422" y="939"/>
      <point x="422" y="911" type="curve" smooth="yes"/>
      <point x="422" y="888"/>
      <point x="409" y="860"/>
      <point x="373" y="851" type="curve" smooth="yes"/>
      <point x="237" y="816" type="line"/>
    </contour>
    <contour>
      <point x="183" y="830" type="move" name="_topcap"/>
    </contour>
  </outline>
</glyph>
<glyph name="less.tnum" format="1">
  <advance width="600"/>
  <outline>
    <contour>
      <point x="503" y="116" type="line"/>
      <point x="503" y="201" type="line"/>
      <point x="186" y="337" type="line"/>
      <point x="186" y="341" type="line"/>
      <point x="503" y="475" type="line"/>
      <point x="503" y="556" type="line"/>
      <point x="94" y="361" type="line"/>
      <point x="94" y="310" type="line"/>
    </contour>
  </outline>
</glyph>
<glyph name="macron.cap" format="1">
  <advance width="327"/>
  <outline>
    <contour>
      <point x="317" y="864" type="line"/>
      <point x="317" y="960" type="line"/>
      <point x="10" y="960" type="line"/>
      <point x="10" y="864" type="line"/>
    </contour>
    <contour>
      <point x="164" y="829" type="move" name="_topcap"/>
    </contour>
  </outline>
</glyph>
<glyph name="minus.tnum" format="1">
  <advance width="600"/>
  <outline>
    <contour>
      <point x="505" y="307" type="line"/>
      <point x="505" y="372" type="line"/>
      <point x="95" y="372" type="line"/>
      <point x="95" y="307" type="line"/>
    </contour>
  </outline>
</glyph>
<glyph name="multiply.tnum" format="1">
  <advance width="600"/>
  <outline>
    <contour>
      <point x="435" y="156" type="line"/>
      <point x="484" y="205" type="line"/>
      <point x="166" y="523" type="line"/>
      <point x="117" y="474" type="line"/>
    </contour>
    <contour>
      <point x="116" y="205" type="line"/>
      <point x="166" y="154" type="line"/>
      <point x="485" y="473" type="line"/>
      <point x="434" y="523" type="line"/>
    </contour>
  </outline>
</glyph>
<glyph name="nine.numerator" format="1">
  <advance width="469"/>
  <outline>
    <contour>
      <point x="229" y="781" type="curve"/>
      <point x="103" y="781"/>
      <point x="18" y="716"/>
      <point x="18" y="621" type="curve" smooth="yes"/>
      <point x="18" y="537"/>
      <point x="92" y="473"/>
      <point x="191" y="473" type="curve" smooth="yes"/>
      <point x="232" y="473"/>
      <point x="263" y="486"/>
      <point x="280" y="507" type="curve"/>
      <point x="270" y="436"/>
      <point x="185" y="336"/>
      <point x="101" y="296" type="curve"/>
      <point x="123" y="267" type="line"/>
      <point x="313" y="322"/>
      <point x="437" y="453"/>
      <point x="437" y="597" type="curve" smooth="yes"/>
      <point x="437" y="711"/>
      <point x="358" y="781"/>
    </contour>
    <contour>
      <point x="222" y="740" type="curve"/>
      <point x="264" y="740"/>
      <point x="291" y="694"/>
      <point x="291" y="621" type="curve" smooth="yes"/>
      <point x="291" y="599"/>
      <point x="288" y="577"/>
      <point x="282" y="560" type="curve"/>
      <point x="270" y="538"/>
      <point x="250" y="525"/>
      <point x="227" y="525" type="curve" smooth="yes"/>
      <point x="185" y="525"/>
      <point x="159" y="566"/>
      <point x="159" y="632" type="curve" smooth="yes"/>
      <point x="159" y="699"/>
      <point x="183" y="740"/>
    </contour>
  </outline>
</glyph>
<glyph name="nine.oldstyle" format="1">
  <advance width="544"/>
  <outline>
    <contour>
      <point x="271" y="540" type="curve" smooth="yes"/>
      <point x="127" y="540"/>
      <point x="24" y="442"/>
      <point x="24" y="305" type="curve" smooth="yes"/>
      <point x="24" y="180"/>
      <point x="111" y="86"/>
      <point x="226" y="86" type="curve" smooth="yes"/>
      <point x="273" y="86"/>
      <point x="303" y="102"/>
      <point x="326" y="138" type="curve"/>
      <point x="330" y="136" type="line"/>
      <point x="309" y="7"/>
      <point x="231" y="-86"/>
      <point x="84" y="-161" type="curve"/>
      <point x="102" y="-202" type="line"/>
      <point x="359" y="-124"/>
      <point x="511" y="50"/>
      <point x="511" y="268" type="curve" smooth="yes"/>
      <point x="511" y="437"/>
      <point x="420" y="540"/>
    </contour>
    <contour>
      <point x="262" y="480" type="curve" smooth="yes"/>
      <point x="308" y="480"/>
      <point x="340" y="409"/>
      <point x="340" y="306" type="curve" smooth="yes"/>
      <point x="340" y="270"/>
      <point x="336" y="240"/>
      <point x="328" y="207" type="curve"/>
      <point x="312" y="180"/>
      <point x="295" y="168"/>
      <point x="272" y="168" type="curve" smooth="yes"/>
      <point x="220" y="168"/>
      <point x="188" y="227"/>
      <point x="188" y="322" type="curve" smooth="yes"/>
      <point x="188" y="415"/>
      <point x="218" y="480"/>
    </contour>
  </outline>
</glyph>
<glyph name="nine.tnum" format="1">
  <advance width="600"/>
  <outline>
    <contour>
      <point x="302" y="777" type="curve" name="hr00"/>
      <point x="144" y="777"/>
      <point x="36" y="677"/>
      <point x="36" y="531" type="curve" smooth="yes"/>
      <point x="36" y="401"/>
      <point x="129" y="305"/>
      <point x="257" y="305" type="curve" smooth="yes"/>
      <point x="312" y="305"/>
      <point x="357" y="324"/>
      <point x="381" y="357" type="curve"/>
      <point x="367" y="246"/>
      <point x="255" y="92"/>
      <point x="144" y="30" type="curve"/>
      <point x="167" y="-10" type="line"/>
      <point x="407" y="74"/>
      <point x="564" y="274"/>
      <point x="564" y="495" type="curve" smooth="yes"/>
      <point x="564" y="670"/>
      <point x="465" y="777"/>
    </contour>
    <contour>
      <point x="294" y="717" type="curve"/>
      <point x="356" y="717"/>
      <point x="395" y="645"/>
      <point x="395" y="530" type="curve" smooth="yes"/>
      <point x="395" y="496"/>
      <point x="391" y="461"/>
      <point x="383" y="434" type="curve"/>
      <point x="366" y="400"/>
      <point x="335" y="380"/>
      <point x="301" y="380" type="curve" smooth="yes"/>
      <point x="239" y="380"/>
      <point x="200" y="445"/>
      <point x="200" y="548" type="curve" smooth="yes"/>
      <point x="200" y="652"/>
      <point x="236" y="717"/>
    </contour>
  </outline>
</glyph>
<glyph name="numbersign.tnum" format="1">
  <advance width="600"/>
  <outline>
    <contour>
      <point x="39" y="463" type="line" name="hr00"/>
      <point x="583" y="463" type="line"/>
      <point x="595" y="530" type="line"/>
      <point x="51" y="530" type="line"/>
    </contour>
    <contour>
      <point x="1" y="256" type="line"/>
      <point x="545" y="256" type="line"/>
      <point x="559" y="323" type="line"/>
      <point x="15" y="323" type="line"/>
    </contour>
    <contour>
      <point x="210" y="696" type="line"/>
      <point x="115" y="92" type="line"/>
      <point x="183" y="92" type="line"/>
      <point x="278" y="696" type="line"/>
    </contour>
    <contour>
      <point x="417" y="696" type="line"/>
      <point x="322" y="92" type="line"/>
      <point x="389" y="92" type="line"/>
      <point x="484" y="696" type="line"/>
    </contour>
  </outline>
</glyph>
<glyph name="one.denominator" format="1">
  <advance width="351"/>
  <outline>
    <contour>
      <point x="211" y="509" type="line"/>
      <point x="153" y="465"/>
      <point x="101" y="440"/>
      <point x="25" y="431" type="curve"/>
      <point x="25" y="400" type="line"/>
      <point x="119" y="400" type="line"/>
      <point x="119" y="43" type="line"/>
      <point x="26" y="25" type="line"/>
      <point x="26" y="0" type="line"/>
      <point x="351" y="0" type="line"/>
      <point x="351" y="25" type="line"/>
      <point x="254" y="43" type="line"/>
      <point x="254" y="504" type="line"/>
    </contour>
  </outline>
</glyph>
<glyph name="one.oldstyle" format="1">
  <advance width="471"/>
  <outline>
    <contour>
      <point x="296" y="540" type="line"/>
      <point x="221" y="471"/>
      <point x="155" y="439"/>
      <point x="44" y="420" type="curve"/>
      <point x="44" y="375" type="line"/>
      <point x="182" y="375" type="line"/>
      <point x="182" y="61" type="line"/>
      <point x="40" y="36" type="line"/>
      <point x="40" y="0" type="line"/>
      <point x="466" y="0" type="line"/>
      <point x="466" y="36" type="line"/>
      <point x="337" y="61" type="line"/>
      <point x="337" y="532" type="line"/>
    </contour>
  </outline>
</glyph>
<glyph name="one.tnum" format="1">
  <advance width="600"/>
  <outline>
    <contour>
      <point x="353" y="780" type="line" name="hr00"/>
      <point x="280" y="712"/>
      <point x="211" y="674"/>
      <point x="121" y="658" type="curve"/>
      <point x="121" y="615" type="line"/>
      <point x="244" y="615" type="line"/>
      <point x="244" y="62" type="line"/>
      <point x="121" y="36" type="line"/>
      <point x="121" y="0" type="line"/>
      <point x="525" y="0" type="line"/>
      <point x="525" y="36" type="line"/>
      <point x="399" y="62" type="line"/>
      <point x="399" y="772" type="line"/>
    </contour>
  </outline>
</glyph>
<glyph name="paragraph.tnum" format="1">
  <advance width="600"/>
  <outline>
    <contour>
      <point x="364" y="-108" type="line"/>
      <point x="364" y="715" type="line"/>
      <point x="433" y="715" type="line"/>
      <point x="433" y="-108" type="line"/>
      <point x="508" y="-108" type="line"/>
      <point x="508" y="713" type="line"/>
      <point x="586" y="730" type="line"/>
      <point x="586" y="770" type="line"/>
      <point x="259" y="770" type="line" smooth="yes"/>
      <point x="115" y="770"/>
      <point x="27" y="685"/>
      <point x="27" y="554" type="curve" smooth="yes"/>
      <point x="27" y="438"/>
      <point x="107" y="340"/>
      <point x="234" y="340" type="curve" smooth="yes"/>
      <point x="290" y="340" type="line"/>
      <point x="290" y="-108" type="line"/>
    </contour>
  </outline>
</glyph>
<glyph name="percent.tnum" format="1">
  <advance width="1050"/>
  <outline>
    <contour>
      <point x="257" y="783" type="curve" smooth="yes"/>
      <point x="143" y="783"/>
      <point x="53" y="677"/>
      <point x="53" y="543" type="curve" smooth="yes"/>
      <point x="53" y="410"/>
      <point x="142" y="307"/>
      <point x="257" y="307" type="curve" smooth="yes"/>
      <point x="372" y="307"/>
      <point x="462" y="410"/>
      <point x="462" y="543" type="curve" smooth="yes"/>
      <point x="462" y="676"/>
      <point x="371" y="783"/>
    </contour>
    <contour>
      <point x="257" y="742" type="curve" smooth="yes"/>
      <point x="290" y="742"/>
      <point x="302" y="704"/>
      <point x="302" y="543" type="curve" smooth="yes"/>
      <point x="302" y="382"/>
      <point x="290" y="349"/>
      <point x="257" y="349" type="curve" smooth="yes"/>
      <point x="225" y="349"/>
      <point x="213" y="382"/>
      <point x="213" y="543" type="curve" smooth="yes"/>
      <point x="213" y="704"/>
      <point x="225" y="742"/>
    </contour>
    <contour>
      <point x="792" y="466" type="curve" smooth="yes"/>
      <point x="678" y="466"/>
      <point x="588" y="360"/>
      <point x="588" y="226" type="curve" smooth="yes"/>
      <point x="588" y="93"/>
      <point x="677" y="-10"/>
      <point x="792" y="-10" type="curve" smooth="yes"/>
      <point x="907" y="-10"/>
      <point x="997" y="93"/>
      <point x="997" y="226" type="curve" smooth="yes"/>
      <point x="997" y="359"/>
      <point x="906" y="466"/>
    </contour>
    <contour>
      <point x="792" y="425" type="curve" smooth="yes"/>
      <point x="825" y="425"/>
      <point x="837" y="387"/>
      <point x="837" y="226" type="curve" smooth="yes"/>
      <point x="837" y="65"/>
      <point x="825" y="32"/>
      <point x="792" y="32" type="curve" smooth="yes"/>
      <point x="760" y="32"/>
      <point x="748" y="65"/>
      <point x="748" y="226" type="curve" smooth="yes"/>
      <point x="748" y="387"/>
      <point x="760" y="425"/>
    </contour>
    <contour>
      <point x="344" y="0" type="line"/>
      <point x="809" y="770" type="line"/>
      <point x="704" y="770" type="line"/>
      <point x="240" y="0" type="line"/>
    </contour>
  </outline>
</glyph>
<glyph name="period.tnum" format="1">
  <advance width="300"/>
  <outline>
    <contour>
      <point x="60" y="76" type="curve" smooth="yes"/>
      <point x="60" y="25"/>
      <point x="96" y="-10"/>
      <point x="149" y="-10" type="curve" smooth="yes"/>
      <point x="202" y="-10"/>
      <point x="240" y="26"/>
      <point x="240" y="76" type="curve" smooth="yes"/>
      <point x="240" y="127"/>
      <point x="201" y="164"/>
      <point x="148" y="164" type="curve" smooth="yes"/>
      <point x="96" y="164"/>
      <point x="60" y="127"/>
    </contour>
  </outline>
</glyph>
<glyph name="plus.tnum" format="1">
  <advance width="600"/>
  <outline>
    <contour>
      <point x="505" y="307" type="line"/>
      <point x="505" y="372" type="line"/>
      <point x="95" y="372" type="line"/>
      <point x="95" y="307" type="line"/>
    </contour>
    <contour>
      <point x="267" y="134" type="line"/>
      <point x="334" y="134" type="line"/>
      <point x="334" y="544" type="line"/>
      <point x="267" y="544" type="line"/>
    </contour>
  </outline>
</glyph>
<glyph name="plusminus.tnum" format="1">
  <advance width="600"/>
  <outline>
    <contour>
      <point x="505" y="414" type="line"/>
      <point x="505" y="479" type="line"/>
      <point x="95" y="479" type="line"/>
      <point x="95" y="414" type="line"/>
    </contour>
    <contour>
      <point x="267" y="241" type="line"/>
      <point x="334" y="241" type="line"/>
      <point x="334" y="651" type="line"/>
      <point x="267" y="651" type="line"/>
    </contour>
    <contour>
      <point x="505" y="98" type="line"/>
      <point x="505" y="163" type="line"/>
      <point x="95" y="163" type="line"/>
      <point x="95" y="98" type="line"/>
    </contour>
  </outline>
</glyph>
<glyph name="ring.cap" format="1">
  <advance width="160"/>
  <outline>
    <contour>
      <point x="80" y="830" type="curve" smooth="yes"/>
      <point x="38" y="830"/>
      <point x="10" y="860"/>
      <point x="10" y="900" type="curve" smooth="yes"/>
      <point x="10" y="940"/>
      <point x="40" y="970"/>
      <point x="80" y="970" type="curve" smooth="yes"/>
      <point x="120" y="970"/>
      <point x="150" y="940"/>
      <point x="150" y="900" type="curve" smooth="yes"/>
      <point x="150" y="860"/>
      <point x="120" y="830"/>
    </contour>
    <contour>
      <point x="60" y="900" type="curve" smooth="yes"/>
      <point x="60" y="888"/>
      <point x="68" y="880"/>
      <point x="80" y="880" type="curve" smooth="yes"/>
      <point x="92" y="880"/>
      <point x="100" y="888"/>
      <point x="100" y="900" type="curve" smooth="yes"/>
      <point x="100" y="912"/>
      <point x="92" y="920"/>
      <point x="80" y="920" type="curve" smooth="yes"/>
      <point x="68" y="920"/>
      <point x="60" y="912"/>
    </contour>
    <contour>
      <point x="79" y="830" type="move" name="_topcap"/>
    </contour>
  </outline>
</glyph>
<glyph name="seven.numerator" format="1">
  <advance width="419"/>
  <outline>
    <contour>
      <point x="117" y="768" type="line"/>
      <point x="112" y="794" type="line"/>
      <point x="79" y="800" type="line"/>
      <point x="7" y="630" type="line"/>
      <point x="41" y="618" type="line"/>
      <point x="83" y="672" type="line"/>
      <point x="296" y="672" type="line"/>
      <point x="108" y="382" type="line" smooth="yes"/>
      <point x="88" y="351"/>
      <point x="77" y="326"/>
      <point x="77" y="309" type="curve" smooth="yes"/>
      <point x="77" y="283"/>
      <point x="102" y="267"/>
      <point x="141" y="267" type="curve" smooth="yes"/>
      <point x="172" y="267"/>
      <point x="194" y="283"/>
      <point x="207" y="313" type="curve" smooth="yes"/>
      <point x="302" y="536"/>
      <point x="314" y="563"/>
      <point x="415" y="748" type="curve"/>
      <point x="401" y="768" type="line"/>
    </contour>
  </outline>
</glyph>
